{
.appVersion = "3338";
.formatVersion = 3;
DisplayStrings = (
"nnnnnnnnn
oooooooo
/Placeholder/Placeholder/Placeholder/Placeholder/Placeholder/Placeholder/Placeholder/Placeholder 
n/Placeholder n/Placeholder/Placeholder nn/Placeholder nn
o/Placeholder o/Placeholder/Placeholder oo/Placeholder oo
abcdefghijklmnopqrstuvwxyz
HHHHHHHH
OOOOOOOO
/Placeholder/Placeholder/Placeholder/Placeholder/Placeholder/Placeholder/Placeholder/Placeholder 
H/Placeholder H/Placeholder HH/Placeholder HH
O/Placeholder O/Placeholder OO/Placeholder OO
ABCDEFGHIJKLMNOPQRSTUVWXYZ
nnnnnnnn
00000000
/Placeholder/Placeholder/Placeholder/Placeholder/Placeholder/Placeholder/Placeholder/Placeholder 
n/Placeholder n/Placeholder/Placeholder nn/Placeholder nn
0/Placeholder 0/Placeholder/Placeholder 00/Placeholder 00
123456789
HHHHHHHH

/Placeholder/Placeholder/Placeholder/Placeholder/Placeholder/Placeholder/Placeholder/Placeholder 
H/Placeholder H/Placeholder/Placeholder HH/Placeholder HH
/Placeholder/Placeholder/Placeholder/Placeholder 

n/Placeholder  n/Placeholder  nn/Placeholder  nn
o/Placeholder  o/Placeholder  oo/Placeholder  oo
d/Placeholder  d/Placeholder  dd/Placeholder  dd
.,:;?!T&*(a)(g)(h){a}{g}{h}[a][g][h]
a-a–a—a
n-n-n-o-o-o
see-through ",
"abcdefghijklmnopqrstuvwxyz
ABCDEFGHIJKLMNOPQRSTUVWXYZ
0123456789
!&*()",
"a...a,a…a¡¿·a    Ha   Ha.•Aa#1acold//hot/backslash josse_pickard‚,„“Bha”‘’«a»‹›1\"'",
"¢1¤1$1€1£1¥6126",
"@A&A¶A§A°|A†‡¢¤S$€£¥
abcdefghijklmnopqrstuvwxyz"
);
axes = (
{
name = Weight;
tag = wght;
}
);
date = "2025-01-01 18:56:37 +0000";
familyName = PCB;
fontMaster = (
{
axesValues = (
0
);
id = m01;
metricValues = (
{
over = 16;
pos = 800;
},
{
over = 16;
pos = 728;
},
{
over = 16;
pos = 500;
},
{
over = -16;
},
{
over = -16;
pos = -200;
},
{
}
);
name = Regular;
userData = {
GSCornerRadius = 5;
};
visible = 1;
},
{
axesValues = (
100
);
iconName = Bold;
id = m002;
metricValues = (
{
over = 16;
pos = 800;
},
{
over = 16;
pos = 700;
},
{
over = 16;
pos = 500;
},
{
over = -16;
},

glyphs = (
{
glyphname = A;
lastChange = "2025-01-13 15:15:41 +0000";
layers = (
{
layerId = m01;
name = Regular;
shapes = (
{
attr = {
strokeHeight = 112;
strokeWidth = 112;
};
closed = 0;
nodes = (
(103,-2,l),
(103,338,l),
(437,672,l),
(544,672,l),
(544,0,l)
);
},
{
attr = {
strokeHeight = 105;
strokeWidth = 105;
};
closed = 0;
nodes = (
(110,267,l),
(519,267,l)
);
}
);
width = 664;
},
{
associatedMasterId = m01;
layerId = "49295C79-29E2-4048-B007-BDEF9621AB52";
name = "4 Jan 25 at 10:27";
shapes = (
{
attr = {
strokeHeight = 119;
strokeWidth = 119;
};
closed = 0;
nodes = (
(99,-2,l),
(99,256,l),
(271,428,l),
(271,521,l),
(418,668,l),
(540,668,l),
(540,0,l)
);
},
{
attr = {
strokeHeight = 111;
strokeWidth = 111;
};
closed = 0;
nodes = (
(106,222,l),
(515,222,l)
);
}
);
width = 640;
},
{
associatedMasterId = m01;
layerId = "D994C658-E735-479D-98FF-DFB72D3991F1";
name = "6 Jan 25 at 10:10";
shapes = (
{
attr = {
strokeHeight = 119;
strokeWidth = 119;
};
closed = 0;
nodes = (
(99,-2,l),
(99,338,l),
(203,442,l),
(203,562,l),
(323,668,l),
(540,668,l),
(540,349,l),
(457,267,l),
(457,0,l)
);
},
{
attr = {
strokeHeight = 111;
strokeWidth = 111;
};
closed = 0;
nodes = (
(106,267,l),
(515,267,l)
);
}
);
width = 640;
},
{
associatedMasterId = m01;
layerId = "7F6BBF9A-02A1-43A9-8402-93E49A5B32B3";
name = "6 Jan 25 at 12:31";
shapes = (
{
attr = {
strokeHeight = 119;
strokeWidth = 119;
};
closed = 0;
nodes = (
(99,-2,l),
(99,338,l),
(429,668,l),
(540,668,l),
(540,349,l),
(457,267,l),
(457,0,l)
);
},
{
attr = {
strokeHeight = 111;
strokeWidth = 111;
};
closed = 0;
nodes = (
(106,267,l),
(515,267,l)
);
}
);
width = 640;
},
{
associatedMasterId = m01;
layerId = "ABEDE3CE-E304-4C50-8F6B-C00EB8229655";
name = "6 Jan 25 at 12:32";
shapes = (
{
attr = {
strokeHeight = 119;
strokeWidth = 119;
};
closed = 0;
nodes = (
(99,0,l),
(99,236,l),
(271,408,l),
(271,521,l),
(418,668,l),
(540,668,l),
(540,0,l)
);
},
{
attr = {
strokeHeight = 111;
strokeWidth = 111;
};
closed = 0;
nodes = (
(106,55,l),
(221,55,l),
(388,222,l),
(515,222,l)
);
}
);
width = 640;
},
{
associatedMasterId = m01;
layerId = "8A5C1E7E-8489-45E2-BF9C-48DE1167E8D6";
name = "7 Jan 25 at 09:34";
shapes = (
{
attr = {
strokeHeight = 119;
strokeWidth = 119;
};
closed = 0;
nodes = (
(540,0,l),
(540,668,l),
(418,668,l),
(271,521,l),
(271,408,l),
(99,236,l),
(99,119,l),
(159,59,l),
(225,59,l),
(388,222,l),
(515,222,l)
);
}
);
width = 640;
},
{
associatedMasterId = m01;
layerId = "580BE0C7-0F7A-44D6-8A36-66727D5A8145";
name = "7 Jan 25 at 11:45";
shapes = (
{
closed = 0;
nodes = (
(160,0,l),
(247,0,l),
(414,167,l),
(481,167,l)
);
},
{
closed = 0;
nodes = (
(160,56,l),
(223,56,l),
(390,223,l),
(481,223,l)
);
},
{
closed = 0;
nodes = (
(160,28,l),
(235,28,l),
(402,195,l),
(481,195,l)
);
},
{
closed = 0;
nodes = (
(160,14,l),
(241,14,l),
(408,181,l),
(481,181,l)
);
},
{
closed = 0;
nodes = (
(160,42,l),
(229,42,l),
(396,209,l),
(481,209,l)
);
},
{
closed = 0;
nodes = (
(160,84,l),
(211,84,l),
(378,251,l),
(481,251,l)
);
},
{
closed = 0;
nodes = (
(160,70,l),
(217,70,l),
(384,237,l),
(481,237,l)
);
},
{
closed = 0;
nodes = (
(160,98,l),
(205,98,l),
(372,265,l),
(481,265,l)
);
},
{
closed = 0;
nodes = (
(40,0,l),
(40,261,l),
(212,433,l),
(212,546,l),
(394,728,l),
(601,728,l),
(601,0,l)
);
},
{
closed = 0;
nodes = (
(100,0,l),
(100,241,l),
(272,413,l),
(272,526,l),
(418,672,l),
(541,672,l),
(541,0,l)
);
},
{
closed = 0;
nodes = (
(70,0,l),
(70,251,l),
(242,423,l),
(242,536,l),
(406,700,l),
(571,700,l),
(571,0,l)
);
},
{
closed = 0;
nodes = (
(55,0,l),
(55,256,l),
(227,428,l),
(227,541,l),
(400,714,l),
(586,714,l),
(586,0,l)
);
},
{
closed = 0;
nodes = (
(85,0,l),
(85,246,l),
(257,418,l),
(257,531,l),
(412,686,l),
(556,686,l),
(556,0,l)
);
},
{
closed = 0;
nodes = (
(130,0,l),
(130,231,l),
(302,403,l),
(302,516,l),
(430,644,l),
(511,644,l),
(511,0,l)
);
},
{
closed = 0;
nodes = (
(115,0,l),
(115,236,l),
(287,408,l),
(287,521,l),
(424,658,l),
(526,658,l),
(526,0,l)
);
},
{
closed = 0;
nodes = (
(145,0,l),
(145,226,l),
(317,398,l),
(317,511,l),
(436,630,l),
(496,630,l),
(496,0,l)
);
}
);
width = 640;
},
{
associatedMasterId = m01;
layerId = "11BF2098-0AA2-4CA9-8C60-CB105EBCE68B";
name = "7 Jan 25 at 11:54";
shapes = (
{
attr = {
strokeHeight = 4;
strokeWidth = 4;
};
closed = 0;
nodes = (
(40,112,l),
(40,261,l),
(212,433,l),
(212,546,l),
(394,728,l),
(482,728,l)
);
},
{
attr = {
strokeHeight = 4;
strokeWidth = 4;
};
closed = 0;
nodes = (
(100,112,l),
(100,241,l),
(272,413,l),
(272,526,l),
(418,672,l),
(482,672,l)
);
},
{
attr = {
strokeHeight = 4;
strokeWidth = 4;
};
closed = 0;
nodes = (
(70,112,l),
(70,251,l),
(242,423,l),
(242,536,l),
(406,700,l),
(482,700,l)
);
},
{
attr = {
strokeHeight = 4;
strokeWidth = 4;
};
closed = 0;
nodes = (
(55,112,l),
(55,256,l),
(227,428,l),
(227,541,l),
(400,714,l),
(482,714,l)
);
},
{
attr = {
strokeHeight = 4;
strokeWidth = 4;
};
closed = 0;
nodes = (
(85,112,l),
(85,246,l),
(257,418,l),
(257,531,l),
(412,686,l),
(482,686,l)
);
},
{
attr = {
strokeHeight = 4;
strokeWidth = 4;
};
closed = 0;
nodes = (
(130,112,l),
(130,231,l),
(302,403,l),
(302,516,l),
(430,644,l),
(482,644,l)
);
},
{
attr = {
strokeHeight = 4;
strokeWidth = 4;
};
closed = 0;
nodes = (
(115,112,l),
(115,236,l),
(287,408,l),
(287,521,l),
(424,658,l),
(482,658,l)
);
},
{
attr = {
strokeHeight = 4;
strokeWidth = 4;
};
closed = 0;
nodes = (
(145,112,l),
(145,226,l),
(317,398,l),
(317,511,l),
(436,630,l),
(482,630,l)
);
},
{
attr = {
strokeHeight = 4;
strokeWidth = 4;
};
closed = 0;
nodes = (
(496,616,l),
(496,315,l),
(439,265,l),
(372,265,l),
(205,98,l),
(160,98,l)
);
},
{
attr = {
strokeHeight = 4;
strokeWidth = 4;
};
closed = 0;
nodes = (
(511,616,l),
(511,310,l),
(445,251,l),
(378,251,l),
(211,84,l),
(160,84,l)
);
},
{
attr = {
strokeHeight = 4;
strokeWidth = 4;
};
closed = 0;
nodes = (
(526,616,l),
(526,305,l),
(451,237,l),
(384,237,l),
(217,70,l),
(160,70,l)
);
},
{
attr = {
strokeHeight = 4;
strokeWidth = 4;
};
closed = 0;
nodes = (
(541,616,l),
(541,300,l),
(457,223,l),
(390,223,l),
(223,56,l),
(160,56,l)
);
},
{
attr = {
strokeHeight = 4;
strokeWidth = 4;
};
closed = 0;
nodes = (
(556,616,l),
(556,295,l),
(463,209,l),
(396,209,l),
(229,42,l),
(160,42,l)
);
},
{
attr = {
strokeHeight = 4;
strokeWidth = 4;
};
closed = 0;
nodes = (
(571,616,l),
(571,290,l),
(469,195,l),
(402,195,l),
(235,28,l),
(160,28,l)
);
},
{
attr = {
strokeHeight = 4;
strokeWidth = 4;
};
closed = 0;
nodes = (
(586,616,l),
(586,285,l),
(475,181,l),
(408,181,l),
(241,14,l),
(160,14,l)
);
},
{
attr = {
strokeHeight = 4;
strokeWidth = 4;
};
closed = 0;
nodes = (
(601,616,l),
(601,280,l),
(481,167,l),
(414,167,l),
(247,0,l),
(160,0,l)
);
},
{
attr = {
strokeHeight = 4;
strokeWidth = 4;
};
closed = 0;
nodes = (
(511,181,l),
(511,0,l)
);
},
{
attr = {
strokeHeight = 4;
strokeWidth = 4;
};
closed = 0;
nodes = (
(496,167,l),
(496,0,l)
);
},
{
attr = {
strokeHeight = 4;
strokeWidth = 4;
};
closed = 0;
nodes = (
(541,209,l),
(541,0,l)
);
},
{
attr = {
strokeHeight = 4;
strokeWidth = 4;
};
closed = 0;
nodes = (
(526,195,l),
(526,0,l)
);
},
{
attr = {
strokeHeight = 4;
strokeWidth = 4;
};
closed = 0;
nodes = (
(571,237,l),
(571,0,l)
);
},
{
attr = {
strokeHeight = 4;
strokeWidth = 4;
};
closed = 0;
nodes = (
(556,223,l),
(556,0,l)
);
},
{
attr = {
strokeHeight = 4;
strokeWidth = 4;
};
closed = 0;
nodes = (
(601,265,l),
(601,0,l)
);
},
{
attr = {
strokeHeight = 4;
strokeWidth = 4;
};
closed = 0;
nodes = (
(586,251,l),
(586,0,l)
);
}
);
width = 640;
},
{
associatedMasterId = m01;
layerId = "B0B014D7-3518-42D4-B634-93CA4598D225";
name = "7 Jan 25 at 09:31";
shapes = (
{
closed = 1;
nodes = (
(40,105,l),
(145,105,l),
(145,0,l),
(40,0,l)
);
},
{
attr = {
strokeHeight = 4;
strokeWidth = 4;
};
closed = 0;
nodes = (
(40,120,l),
(40,226,l),
(212,398,l),
(212,546,l),
(394,728,l),
(481,728,l)
);
},
{
attr = {
strokeHeight = 4;
strokeWidth = 4;
};
closed = 0;
nodes = (
(100,120,l),
(100,226,l),
(272,398,l),
(272,546,l),
(394,668,l),
(481,668,l)
);
},
{
attr = {
strokeHeight = 4;
strokeWidth = 4;
};
closed = 0;
nodes = (
(55,120,l),
(55,226,l),
(227,398,l),
(227,546,l),
(394,713,l),
(481,713,l)
);
},
{
attr = {
strokeHeight = 4;
strokeWidth = 4;
};
closed = 0;
nodes = (
(70,120,l),
(70,226,l),
(242,398,l),
(242,546,l),
(394,698,l),
(481,698,l)
);
},
{
attr = {
strokeHeight = 4;
strokeWidth = 4;
};
closed = 0;
nodes = (
(85,120,l),
(85,226,l),
(257,398,l),
(257,546,l),
(394,683,l),
(481,683,l)
);
},
{
attr = {
strokeHeight = 4;
strokeWidth = 4;
};
closed = 0;
nodes = (
(115,120,l),
(115,226,l),
(287,398,l),
(287,546,l),
(394,653,l),
(481,653,l)
);
},
{
attr = {
strokeHeight = 4;
strokeWidth = 4;
};
closed = 0;
nodes = (
(130,120,l),
(130,226,l),
(302,398,l),
(302,546,l),
(394,638,l),
(481,638,l)
);
},
{
attr = {
strokeHeight = 4;
strokeWidth = 4;
};
closed = 0;
nodes = (
(145,120,l),
(145,226,l),
(317,398,l),
(317,546,l),
(394,623,l),
(481,623,l)
);
},
{
attr = {
strokeHeight = 4;
strokeWidth = 4;
};
closed = 0;
nodes = (
(496,608,l),
(496,279,l),
(482,265,l),
(365,265,l),
(205,105,l),
(160,105,l)
);
},
{
attr = {
strokeHeight = 4;
strokeWidth = 4;
};
closed = 0;
nodes = (
(526,608,l),
(526,279,l),
(482,235,l),
(365,235,l),
(205,75,l),
(160,75,l)
);
},
{
attr = {
strokeHeight = 4;
strokeWidth = 4;
};
closed = 0;
nodes = (
(511,608,l),
(511,279,l),
(482,250,l),
(365,250,l),
(205,90,l),
(160,90,l)
);
},
{
attr = {
strokeHeight = 4;
strokeWidth = 4;
};
closed = 0;
nodes = (
(541,608,l),
(541,279,l),
(482,220,l),
(365,220,l),
(205,60,l),
(160,60,l)
);
},
{
attr = {
strokeHeight = 4;
strokeWidth = 4;
};
closed = 0;
nodes = (
(571,608,l),
(571,279,l),
(482,190,l),
(365,190,l),
(205,30,l),
(160,30,l)
);
},
{
attr = {
strokeHeight = 4;
strokeWidth = 4;
};
closed = 0;
nodes = (
(556,608,l),
(556,279,l),
(482,205,l),
(365,205,l),
(205,45,l),
(160,45,l)
);
},
{
attr = {
strokeHeight = 4;
strokeWidth = 4;
};
closed = 0;
nodes = (
(601,608,l),
(601,279,l),
(482,160,l),
(365,160,l),
(205,0,l),
(160,0,l)
);
},
{
attr = {
strokeHeight = 4;
strokeWidth = 4;
};
closed = 0;
nodes = (
(586,608,l),
(586,279,l),
(482,175,l),
(365,175,l),
(205,15,l),
(160,15,l)
);
},
{
attr = {
strokeHeight = 4;
strokeWidth = 4;
};
closed = 0;
nodes = (
(496,156,l),
(496,98,l)
);
},
{
attr = {
strokeHeight = 4;
strokeWidth = 4;
};
closed = 0;
nodes = (
(511,171,l),
(511,84,l)
);
},
{
attr = {
strokeHeight = 4;
strokeWidth = 4;
};
closed = 0;
nodes = (
(526,186,l),
(526,70,l)
);
},
{
attr = {
strokeHeight = 4;
strokeWidth = 4;
};
closed = 0;
nodes = (
(541,201,l),
(541,56,l)
);
},
{
attr = {
strokeHeight = 4;
strokeWidth = 4;
};
closed = 0;
nodes = (
(556,216,l),
(556,42,l)
);
},
{
attr = {
strokeHeight = 4;
strokeWidth = 4;
};
closed = 0;
nodes = (
(571,231,l),
(571,28,l)
);
},
{
attr = {
strokeHeight = 4;
strokeWidth = 4;
};
closed = 0;
nodes = (
(586,246,l),
(586,14,l)
);
},
{
attr = {
strokeHeight = 4;
strokeWidth = 4;
};
closed = 0;
nodes = (
(601,261,l),
(601,0,l)
);
},
{
closed = 1;
nodes = (
(153,-8,l),
(153,113,l),
(32,113,l),
(32,-8,l)
);
},
{
closed = 1;
nodes = (
(499,150,o),
(502,153,o),
(502,156,cs),
(502,159,o),
(499,162,o),
(496,162,cs),
(493,162,o),
(490,159,o),
(490,156,cs),
(490,153,o),
(493,150,o),
(496,150,cs)
);
}
);
width = 640;
},
{
layerId = m002;
width = 600;
},
{
associatedMasterId = m01;
layerId = "599B7266-DDCD-4980-9DEF-3E84810C949B";
name = "7 Jan 25 at 12:02";
shapes = (
{
closed = 0;
nodes = (
(40,112,l),
(40,257,ls),
(40,259,o),
(41,262,o),
(43,264,cs),
(209,430,ls),
(211,432,o),
(212,435,o),
(212,437,cs),
(212,542,ls),
(212,544,o),
(213,547,o),
(215,549,cs),
(391,725,ls),
(393,727,o),
(396,728,o),
(398,728,cs),
(482,728,l)
);
},
{
closed = 0;
nodes = (
(100,112,l),
(100,237,ls),
(100,239,o),
(101,242,o),
(103,244,cs),
(269,410,ls),
(271,412,o),
(272,415,o),
(272,417,cs),
(272,522,ls),
(272,524,o),
(273,527,o),
(275,529,cs),
(415,669,ls),
(417,671,o),
(420,672,o),
(422,672,cs),
(482,672,l)
);
},
{
closed = 0;
nodes = (
(70,112,l),
(70,247,ls),
(70,249,o),
(71,252,o),
(73,254,cs),
(239,420,ls),
(241,422,o),
(242,425,o),
(242,427,cs),
(242,532,ls),
(242,534,o),
(243,537,o),
(245,539,cs),
(403,697,ls),
(405,699,o),
(408,700,o),
(410,700,cs),
(482,700,l)
);
},
{
closed = 0;
nodes = (
(55,112,l),
(55,252,ls),
(55,254,o),
(56,257,o),
(58,259,cs),
(224,425,ls),
(226,427,o),
(227,430,o),
(227,432,cs),
(227,537,ls),
(227,539,o),
(228,542,o),
(230,544,cs),
(397,711,ls),
(399,713,o),
(402,714,o),
(404,714,cs),
(482,714,l)
);
},
{
closed = 0;
nodes = (
(85,112,l),
(85,242,ls),
(85,244,o),
(86,247,o),
(88,249,cs),
(254,415,ls),
(256,417,o),
(257,420,o),
(257,422,cs),
(257,527,ls),
(257,529,o),
(258,532,o),
(260,534,cs),
(409,683,ls),
(411,685,o),
(414,686,o),
(416,686,cs),
(482,686,l)
);
},
{
closed = 0;
nodes = (
(130,112,l),
(130,227,ls),
(130,229,o),
(131,232,o),
(133,234,cs),
(299,400,ls),
(301,402,o),
(302,405,o),
(302,407,cs),
(302,512,ls),
(302,514,o),
(303,517,o),
(305,519,cs),
(427,641,ls),
(429,643,o),
(432,644,o),
(434,644,cs),
(482,644,l)
);
},
{
closed = 0;
nodes = (
(115,112,l),
(115,232,ls),
(115,234,o),
(116,237,o),
(118,239,cs),
(284,405,ls),
(286,407,o),
(287,410,o),
(287,412,cs),
(287,517,ls),
(287,519,o),
(288,522,o),
(290,524,cs),
(421,655,ls),
(423,657,o),
(426,658,o),
(428,658,cs),
(482,658,l)
);
},
{
closed = 0;
nodes = (
(145,112,l),
(145,222,ls),
(145,224,o),
(146,227,o),
(148,229,cs),
(314,395,ls),
(316,397,o),
(317,400,o),
(317,402,cs),
(317,507,ls),
(317,509,o),
(318,512,o),
(320,514,cs),
(433,627,ls),
(435,629,o),
(438,630,o),
(440,630,cs),
(482,630,l)
);
},
{
closed = 0;
nodes = (
(496,616,l),
(496,319,ls),
(496,317,o),
(495,314,o),
(493,313,cs),
(442,267,ls),
(440,266,o),
(437,265,o),
(435,265,cs),
(376,265,ls),
(374,265,o),
(371,264,o),
(369,262,cs),
(208,101,ls),
(206,99,o),
(203,98,o),
(201,98,cs),
(160,98,l)
);
},
{
closed = 0;
nodes = (
(511,616,l),
(511,314,ls),
(511,312,o),
(510,309,o),
(508,308,cs),
(448,253,ls),
(446,252,o),
(443,251,o),
(441,251,cs),
(382,251,ls),
(380,251,o),
(377,250,o),
(375,248,cs),
(214,87,ls),
(212,85,o),
(209,84,o),
(207,84,cs),
(160,84,l)
);
},
{
closed = 0;
nodes = (
(526,616,l),
(526,309,ls),
(526,307,o),
(525,304,o),
(523,303,cs),
(454,239,ls),
(452,238,o),
(449,237,o),
(447,237,cs),
(388,237,ls),
(386,237,o),
(383,236,o),
(381,234,cs),
(220,73,ls),
(218,71,o),
(215,70,o),
(213,70,cs),
(160,70,l)
);
},
{
closed = 0;
nodes = (
(541,616,l),
(541,304,ls),
(541,302,o),
(540,299,o),
(538,298,cs),
(460,225,ls),
(458,224,o),
(455,223,o),
(453,223,cs),
(394,223,ls),
(392,223,o),
(389,222,o),
(387,220,cs),
(226,59,ls),
(224,57,o),
(221,56,o),
(219,56,cs),
(160,56,l)
);
},
{
closed = 0;
nodes = (
(556,616,l),
(556,299,ls),
(556,297,o),
(555,294,o),
(553,293,cs),
(466,211,ls),
(464,210,o),
(461,209,o),
(459,209,cs),
(400,209,ls),
(398,209,o),
(395,208,o),
(393,206,cs),
(232,45,ls),
(230,43,o),
(227,42,o),
(225,42,cs),
(160,42,l)
);
},
{
closed = 0;
nodes = (
(571,616,l),
(571,294,ls),
(571,292,o),
(570,288,o),
(568,287,cs),
(472,197,ls),
(470,196,o),
(467,195,o),
(465,195,cs),
(406,195,ls),
(404,195,o),
(401,194,o),
(399,192,cs),
(238,31,ls),
(236,29,o),
(233,28,o),
(231,28,cs),
(160,28,l)
);
},
{
closed = 0;
nodes = (
(586,616,l),
(586,289,ls),
(586,287,o),
(585,284,o),
(583,282,cs),
(478,183,ls),
(476,182,o),
(473,181,o),
(471,181,cs),
(412,181,ls),
(410,181,o),
(407,180,o),
(405,178,cs),
(244,17,ls),
(242,15,o),
(239,14,o),
(237,14,cs),
(160,14,l)
);
},
{
closed = 0;
nodes = (
(601,616,l),
(601,284,ls),
(601,282,o),
(600,279,o),
(598,277,cs),
(484,169,ls),
(482,168,o),
(479,167,o),
(477,167,cs),
(418,167,ls),
(416,167,o),
(413,166,o),
(411,164,cs),
(250,3,ls),
(248,1,o),
(245,0,o),
(243,0,cs),
(160,0,l)
);
},
{
closed = 0;
nodes = (
(511,176,l),
(511,84,l)
);
},
{
closed = 0;
nodes = (
(496,162,l),
(496,98,l)
);
},
{
closed = 0;
nodes = (
(541,204,l),
(541,56,l)
);
},
{
closed = 0;
nodes = (
(526,190,l),
(526,70,l)
);
},
{
closed = 0;
nodes = (
(571,232,l),
(571,28,l)
);
},
{
closed = 0;
nodes = (
(556,218,l),
(556,42,l)
);
},
{
closed = 0;
nodes = (
(601,260,l),
(601,0,l)
);
},
{
closed = 0;
nodes = (
(586,246,l),
(586,14,l)
);
}
);
width = 640;
}
);
metricRight = "=H";
unicode = 65;
},
{
glyphname = B;
lastChange = "2025-01-12 22:17:46 +0000";
layers = (
{
layerId = m01;
shapes = (
{
attr = {
strokeHeight = 105;
strokeWidth = 112;
};
closed = 0;
nodes = (
(119,0,l),
(119,675,l),
(433,675,l),
(530,578,l),
(530,463,l),
(440,373,l)
);
},
{
attr = {
strokeHeight = 105;
strokeWidth = 112;
};
closed = 0;
nodes = (
(119,373,l),
(464,373,l),
(554,283,l),
(554,149,l),
(457,52,l),
(119,52,l)
);
}
);
width = 654;
},
{
layerId = m002;
width = 600;
},
{
associatedMasterId = m01;
layerId = "8920CD84-823E-4D6A-919D-24A70DD4B83D";
name = "3 Jan 25 at 17:25";
shapes = (
{
attr = {
strokeHeight = 119;
strokeWidth = 119;
};
closed = 0;
nodes = (
(99,0,l),
(99,668,l),
(400,668,l),
(510,558,l),
(510,418,l)
);
},
{
attr = {
strokeWidth = 119;
};
closed = 0;
nodes = (
(99,358,l),
(424,358,l),
(534,248,l),
(534,169,l),
(424,59,l),
(99,59,l)
);
}
);
width = 600;
},
{
associatedMasterId = m01;
layerId = "86399B2A-5706-4F38-A97B-3CE80ED0ABFE";
name = "4 Jan 25 at 10:29";
shapes = (
{
attr = {
strokeHeight = 119;
strokeWidth = 119;
};
closed = 0;
nodes = (
(99,0,l),
(99,330,l),
(199,430,l),
(199,668,l)
);
},
{
attr = {
strokeWidth = 119;
};
closed = 0;
nodes = (
(145,365,l),
(444,365,l),
(534,275,l),
(534,149,l),
(444,59,l),
(97,59,l)
);
},
{
attr = {
strokeHeight = 119;
strokeWidth = 119;
};
closed = 0;
nodes = (
(42,668,l),
(420,668,l),
(510,578,l),
(510,455,l),
(420,365,l)
);
}
);
width = 624;
},
{
associatedMasterId = m01;
layerId = "830A43A9-78F0-4E88-89DB-732B541F1559";
name = "4 Jan 25 at 10:29";
shapes = (
{
attr = {
strokeHeight = 119;
strokeWidth = 119;
};
closed = 0;
nodes = (
(199,0,l),
(199,373,l),
(99,473,l),
(99,668,l),
(420,668,l),
(510,578,l),
(510,463,l),
(420,373,l)
);
},
{
attr = {
strokeWidth = 119;
};
closed = 0;
nodes = (
(145,373,l),
(444,373,l),
(534,283,l),
(534,149,l),
(444,59,l),
(29,59,l)
);
}
);
width = 624;
},
{
associatedMasterId = m01;
layerId = "051C65F3-F6E9-4025-BEA7-B711767EFD44";
name = "6 Jan 25 at 12:33";
shapes = (
{
attr = {
strokeHeight = 119;
strokeWidth = 119;
};
closed = 0;
nodes = (
(99,0,l),
(99,330,l),
(199,430,l),
(199,668,l)
);
},
{
attr = {
strokeHeight = 119;
strokeWidth = 119;
};
closed = 0;
nodes = (
(42,668,l),
(420,668,l),
(510,578,l),
(510,445,l),
(432,367,l),
(432,342,l),
(534,240,l),
(534,149,l),
(444,59,l),
(97,59,l)
);
}
);
width = 624;
},
{
associatedMasterId = m01;
layerId = "9E6056E6-44ED-4340-B3D7-80ECE23F0AE1";
name = "6 Jan 25 at 12:34";
shapes = (
{
attr = {
strokeHeight = 119;
strokeWidth = 119;
};
closed = 0;
nodes = (
(99,0,l),
(99,330,l),
(199,430,l),
(199,668,l)
);
},
{
attr = {
strokeHeight = 119;
strokeWidth = 119;
};
closed = 0;
nodes = (
(42,668,l),
(420,668,l),
(510,578,l),
(510,445,l),
(432,367,l),
(534,265,l),
(534,149,l),
(444,59,l),
(97,59,l)
);
}
);
width = 624;
}
);
metricLeft = "=H";
unicode = 66;
},
{
glyphname = C;
lastChange = "2025-01-08 19:46:01 +0000";
layers = (
{
layerId = m01;
shapes = (
{
attr = {
strokeHeight = 119;
strokeWidth = 119;
};
closed = 0;
nodes = (
(547,668,l),
(268,668,l),
(104,504,l),
(104,177,l),
(222,59,l),
(547,59,l)
);
}
);
width = 567;
},
{
layerId = m002;
width = 600;
},
{
associatedMasterId = m01;
layerId = "7A2BFE62-9F93-4CB5-B652-3150FAB0040B";
name = "3 Jan 25 at 17:31";
shapes = (
{
attr = {
strokeHeight = 119;
strokeWidth = 119;
};
closed = 0;
nodes = (
(540,668,l),
(319,668,l),
(99,448,l),
(99,196,l),
(223,59,l),
(540,59,l)
);
}
);
width = 695;
},
{
associatedMasterId = m01;
layerId = "117468F4-A508-4295-B07F-DFBA448C757C";
name = "3 Jan 25 at 17:31";
shapes = (
{
attr = {
strokeHeight = 119;
strokeWidth = 119;
};
closed = 0;
nodes = (
(590,581,l),
(510,668,l),
(349,668,l),
(99,418,l),
(99,196,l),
(223,59,l),
(540,59,l),
(633,152,l)
);
}
);
width = 695;
},
{
associatedMasterId = m01;
layerId = "4924DCDE-2034-42C1-93C0-3E633607FF81";
name = "4 Jan 25 at 10:38";
shapes = (
{
attr = {
strokeHeight = 119;
strokeWidth = 119;
};
closed = 0;
nodes = (
(542,668,l),
(295,668,l),
(99,472,l),
(99,309,l),
(209,199,l),
(209,112,l),
(262,59,l),
(542,59,l)
);
}
);
width = 562;
},
{
associatedMasterId = m01;
guides = (
{
angle = 90;
pos = (159,380);
}
);
layerId = "502BB42F-DA9D-4E30-BA71-038D2F4F5D02";
name = "4 Jan 25 at 10:41";
shapes = (
{
attr = {
strokeHeight = 119;
strokeWidth = 119;
};
closed = 0;
nodes = (
(562,668,l),
(292,668,l),
(209,585,l),
(209,478,l),
(99,368,l),
(99,245,l),
(285,59,l),
(495,59,l),
(578,142,l)
);
}
);
width = 630;
}
);
metricLeft = "=O";
unicode = 67;
},
{
glyphname = D;
lastChange = "2025-01-08 19:49:10 +0000";
layers = (
{
layerId = m01;
name = Regular;
shapes = (
{
attr = {
strokeHeight = 119;
strokeWidth = 119;
};
closed = 1;
nodes = (
(119,668,l),
(396,668,l),
(560,504,l),
(560,177,l),
(442,59,l),
(119,59,l)
);
}
);
width = 670;
},
{
associatedMasterId = m01;
layerId = "0D1B11E5-EE18-4EE0-8016-4F13132E1B73";
name = "4 Jan 25 at 10:51";
shapes = (
{
attr = {
strokeHeight = 119;
strokeWidth = 119;
};
closed = 0;
nodes = (
(199,0,l),
(199,295,l),
(99,395,l),
(99,668,l),
(344,668,l),
(540,472,l),
(540,137,l),
(462,59,l),
(40,59,l)
);
}
);
width = 620;
},
{
associatedMasterId = m01;
layerId = "36B613A3-AB0E-4902-B5D4-8EE0ACE2BF90";
name = "4 Jan 25 at 10:49";
shapes = (
{
attr = {
strokeHeight = 119;
strokeWidth = 119;
};
closed = 0;
nodes = (
(99,0,l),
(99,273,l),
(218,392,l),
(218,668,l)
);
},
{
attr = {
strokeHeight = 119;
strokeWidth = 119;
};
closed = 0;
nodes = (
(40,668,l),
(344,668,l),
(540,472,l),
(540,137,l),
(462,59,l),
(40,59,l)
);
}
);
width = 620;
},
{
associatedMasterId = m01;
layerId = "EC06FEB2-7FA7-456C-8DA5-F96D29E42973";
name = "4 Jan 25 at 11:00";
shapes = (
{
attr = {
strokeHeight = 119;
strokeWidth = 119;
};
closed = 0;
nodes = (
(99,0,l),
(99,273,l),
(218,392,l),
(218,584,l),
(302,668,l),
(344,668,l),
(540,472,l),
(540,137,l),
(462,59,l),
(40,59,l)
);
},
{
attr = {
strokeHeight = 119;
strokeWidth = 119;
};
closed = 0;
nodes = (
(40,668,l),
(159,668,l)
);
}
);
width = 620;
},
{
layerId = m002;
width = 600;
}
);
metricLeft = "=H";
unicode = 68;
},
{
glyphname = E;
lastChange = "2025-01-08 20:03:27 +0000";
layers = (
{
layerId = m01;
shapes = (
{
attr = {
strokeWidth = 119;
};
closed = 0;
nodes = (
(162,373,l),
(487,373,l)
);
},
{
attr = {
strokeWidth = 119;
};
closed = 0;
nodes = (
(567,59,l),
(192,59,l),
(114,137,l),
(114,590,l),
(192,668,l),
(557,668,l)
);
}
);
width = 589;
},
{
associatedMasterId = m01;
layerId = "C436E827-5C7B-4BBB-9B97-B3711EC9415D";
name = "3 Jan 25 at 17:44";
shapes = (
{
attr = {
strokeHeight = 119;
strokeWidth = 119;
};
closed = 0;
nodes = (
(99,0,l),
(99,264,l),
(196,373,l),
(99,477,l),
(99,668,l),
(542,668,l)
);
},
{
attr = {
strokeWidth = 119;
};
closed = 0;
nodes = (
(196,373,l),
(492,373,l)
);
},
{
attr = {
strokeWidth = 119;
};
closed = 0;
nodes = (
(552,59,l),
(99,59,l)
);
}
);
width = 592;
},
{
associatedMasterId = m01;
layerId = "12347BEB-08FE-478E-99EC-7D419A9BDEC6";
name = "3 Jan 25 at 17:45";
shapes = (
{
attr = {
strokeHeight = 119;
strokeWidth = 119;
};
closed = 0;
nodes = (
(99,0,l),
(99,668,l),
(542,668,l)
);
},
{
attr = {
strokeWidth = 119;
};
closed = 0;
nodes = (
(147,373,l),
(492,373,l)
);
},
{
attr = {
strokeWidth = 119;
};
closed = 0;
nodes = (
(552,59,l),
(99,59,l)
);
}
);
width = 592;
},
{
associatedMasterId = m01;
layerId = "09E11A91-5055-4D9B-A22A-735CB66B1A5A";
name = "3 Jan 25 at 22:52";
shapes = (
{
attr = {
strokeWidth = 119;
};
closed = 0;
nodes = (
(147,373,l),
(492,373,l)
);
},
{
attr = {
strokeWidth = 119;
};
closed = 0;
nodes = (
(552,59,l),
(177,59,l),
(99,137,l),
(99,472,l),
(296,668,l),
(542,668,l)
);
}
);
width = 582;
},
{
associatedMasterId = m01;
layerId = "6D0F80AB-3F3C-4984-9899-592B2CAFB71C";
name = "4 Jan 25 at 10:59";
shapes = (
{
attr = {
strokeWidth = 119;
};
closed = 0;
nodes = (
(552,59,l),
(177,59,l),
(99,137,l),
(99,288,l),
(184,373,l),
(492,373,l)
);
},
{
attr = {
strokeWidth = 119;
};
closed = 0;
nodes = (
(99,433,l),
(99,590,l),
(177,668,l),
(542,668,l)
);
}
);
width = 582;
},
{
associatedMasterId = m01;
layerId = "5301C911-D307-4D73-92E4-D3BE711AE3FE";
name = "5 Jan 25 at 20:19";
shapes = (
{
attr = {
strokeWidth = 119;
};
closed = 0;
nodes = (
(147,440,l),
(492,440,l)
);
},
{
attr = {
strokeWidth = 119;
};
closed = 0;
nodes = (
(552,59,l),
(177,59,l),
(99,137,l),
(99,346,l),
(168,415,l),
(168,464,l),
(99,533,l),
(99,590,l),
(177,668,l),
(542,668,l)
);
}
);
width = 582;
},
{
associatedMasterId = m01;
layerId = "80B763B5-C5E4-4351-AEFA-E020C30E4EAA";
name = "5 Jan 25 at 20:19";
shapes = (
{
attr = {
strokeWidth = 119;
};
closed = 0;
nodes = (
(552,141,l),
(390,141,l),
(308,59,l),
(177,59,l),
(99,137,l),
(99,314,l)
);
},
{
attr = {
strokeWidth = 119;
};
closed = 0;
nodes = (
(542,668,l),
(177,668,l),
(99,590,l),
(99,457,l),
(183,373,l),
(492,373,l)
);
}
);
width = 582;
},
{
associatedMasterId = m01;
layerId = "E435F8CC-4951-4627-BA19-C09E0B0B1A0E";
name = "5 Jan 25 at 20:23";
shapes = (
{
attr = {
strokeWidth = 119;
};
closed = 0;
nodes = (
(99,433,l),
(99,590,l),
(177,668,l),
(308,668,l),
(390,586,l),
(552,586,l)
);
},
{
attr = {
strokeWidth = 119;
};
closed = 0;
nodes = (
(492,318,l),
(368,318,l),
(309,374,l),
(183,374,l),
(99,290,l),
(99,137,l),
(177,59,l),
(542,59,l)
);
}
);
width = 582;
},
{
associatedMasterId = m01;
layerId = "63741EDC-A0F7-4417-BA29-AE8E0DF16CD9";
name = "5 Jan 25 at 20:24";
shapes = (
{
attr = {
strokeWidth = 119;
};
closed = 0;
nodes = (
(147,331,l),
(256,331,l),
(334,409,l),
(472,409,l)
);
},
{
attr = {
strokeWidth = 119;
};
closed = 0;
nodes = (
(552,59,l),
(177,59,l),
(99,137,l),
(99,590,l),
(177,668,l),
(542,668,l)
);
}
);
width = 582;
},
{
associatedMasterId = m01;
layerId = "1F92DF62-5199-44A7-9F6E-95FB70D3EAE0";
name = "5 Jan 25 at 21:14";
shapes = (
{
attr = {
strokeWidth = 119;
};
closed = 0;
nodes = (
(164,354,l),
(472,354,l)
);
},
{
attr = {
strokeWidth = 119;
};
closed = 0;
nodes = (
(542,59,l),
(302,59,l),
(218,143,l),
(218,361,l),
(99,480,l),
(99,590,l),
(177,668,l),
(552,668,l)
);
},
{
attr = {
strokeHeight = 119;
strokeWidth = 119;
};
closed = 0;
nodes = (
(40,59,l),
(159,59,l)
);
}
);
width = 582;
},
{
associatedMasterId = m01;
layerId = "37D21A1D-5549-4187-91F9-3B058463466B";
name = "5 Jan 25 at 20:29";
shapes = (
{
attr = {
strokeWidth = 119;
};
closed = 0;
nodes = (
(164,354,l),
(472,354,l)
);
},
{
attr = {
strokeWidth = 119;
};
closed = 0;
nodes = (
(542,59,l),
(302,59,l),
(218,143,l),
(218,361,l),
(99,480,l),
(99,590,l),
(177,668,l),
(327,668,l),
(417,758,l),
(552,758,l)
);
},
{
attr = {
strokeHeight = 119;
strokeWidth = 119;
};
closed = 0;
nodes = (
(40,59,l),
(159,59,l)
);
}
);
width = 582;
},
{
layerId = m002;
width = 600;
},
{
associatedMasterId = m01;
layerId = "33578886-FDA3-4632-8DF6-6635B42CCAD8";
name = "5 Jan 25 at 21:21";
shapes = (
{
attr = {
strokeWidth = 119;
};
closed = 0;
nodes = (
(492,353,l),
(184,353,l),
(99,268,l),
(99,142,l),
(184,59,l),
(552,59,l)
);
},
{
attr = {
strokeWidth = 119;
};
closed = 0;
nodes = (
(542,668,l),
(177,668,l),
(99,590,l),
(99,544,l),
(184,459,l),
(184,368,l)
);
}
);
width = 582;
}
);
unicode = 69;
},
{
glyphname = F;
lastChange = "2025-01-08 20:04:27 +0000";
layers = (
{
layerId = m01;
shapes = (
{
attr = {
strokeWidth = 119;
};
closed = 0;
nodes = (
(162,373,l),
(507,373,l)
);
},
{
attr = {
strokeWidth = 119;
};
closed = 0;
nodes = (
(114,0,l),
(114,590,l),
(192,668,l),
(557,668,l)
);
}
);
width = 577;
},
{
associatedMasterId = m01;
layerId = "194DDCF4-D8DB-4534-B19D-E9471EDCE489";
name = "5 Jan 25 at 21:04";
shapes = (
{
attr = {
strokeWidth = 119;
};
closed = 0;
nodes = (
(99,0,l),
(99,82,l),
(99,288,l),
(184,373,l),
(492,373,l)
);
},
{
attr = {
strokeWidth = 119;
};
closed = 0;
nodes = (
(542,668,l),
(177,668,l),
(99,590,l),
(99,433,l)
);
}
);
width = 562;
},
{
associatedMasterId = m01;
layerId = "68620707-1751-4F25-B1CF-E00034FD0115";
name = "5 Jan 25 at 21:09";
shapes = (
{
attr = {
strokeWidth = 119;
};
closed = 0;
nodes = (
(99,0,l),
(99,288,l),
(184,373,l),
(330,373,l),
(401,314,l),
(492,314,l)
);
},
{
attr = {
strokeWidth = 119;
};
closed = 0;
nodes = (
(542,668,l),
(177,668,l),
(99,590,l),
(99,433,l)
);
}
);
width = 562;
},
{
associatedMasterId = m01;
layerId = "3468769B-26FC-4F60-870F-EAAE2019112A";
name = "5 Jan 25 at 21:15";
shapes = (
{
attr = {
strokeWidth = 119;
};
closed = 0;
nodes = (
(99,0,l),
(99,82,l),
(99,248,l),
(184,333,l),
(330,333,l),
(401,392,l),
(492,392,l)
);
},
{
attr = {
strokeWidth = 119;
};
closed = 0;
nodes = (
(542,668,l),
(177,668,l),
(99,590,l),
(99,544,l),
(184,459,l),
(184,358,l)
);
}
);
width = 562;
},
{
associatedMasterId = m01;
layerId = "51FF4ACA-69BA-4B1C-903A-9824AD2C6518";
name = "5 Jan 25 at 21:19";
shapes = (
{
attr = {
strokeWidth = 119;
};
closed = 0;
nodes = (
(99,0,l),
(99,82,l),
(99,268,l),
(184,353,l),
(492,353,l)
);
},
{
attr = {
strokeWidth = 119;
};
closed = 0;
nodes = (
(542,668,l),
(177,668,l),
(99,590,l),
(99,544,l),
(184,459,l),
(184,368,l)
);
}
);
width = 562;
},
{
associatedMasterId = m01;
layerId = "0A8EA423-3F9E-4F23-9554-4570656E013D";
name = "5 Jan 25 at 21:10";
shapes = (
{
attr = {
strokeWidth = 119;
};
closed = 0;
nodes = (
(99,0,l),
(99,82,l),
(99,248,l),
(184,333,l),
(330,333,l),
(401,392,l),
(492,392,l)
);
},
{
attr = {
strokeWidth = 119;
};
closed = 0;
nodes = (
(542,668,l),
(302,668,l),
(218,584,l),
(218,358,l)
);
},
{
attr = {
strokeHeight = 119;
strokeWidth = 119;
};
closed = 0;
nodes = (
(40,668,l),
(159,668,l)
);
}
);
width = 562;
},
{
associatedMasterId = m01;
layerId = "65FFCC00-2F6C-41A9-850C-03CB8A46DD11";
name = "5 Jan 25 at 21:17";
shapes = (
{
attr = {
strokeWidth = 119;
};
closed = 0;
nodes = (
(99,0,l),
(99,82,l),
(99,248,l),
(184,333,l),
(492,333,l)
);
},
{
attr = {
strokeWidth = 119;
};
closed = 0;
nodes = (
(542,668,l),
(302,668,l),
(218,584,l),
(218,358,l)
);
},
{
attr = {
strokeHeight = 119;
strokeWidth = 119;
};
closed = 0;
nodes = (
(40,668,l),
(159,668,l)
);
}
);
width = 562;
},
{
layerId = m002;
width = 600;
}
);
metricLeft = "=E";
unicode = 70;
},
{
glyphname = G;
lastChange = "2025-01-08 20:04:53 +0000";
layers = (
{
layerId = m01;
shapes = (
{
attr = {
strokeHeight = 119;
strokeWidth = 119;
};
closed = 0;
nodes = (
(607,668,l),
(300,668,l),
(104,472,l),
(104,209,l),
(254,59,l),
(452,59,l),
(612,219,l),
(612,369,l),
(370,369,l)
);
}
);
width = 707;
},
{
associatedMasterId = m01;
layerId = "73532838-858F-4096-9CD1-0E02CAC9A934";
name = "6 Jan 25 at 10:21";
shapes = (
{
attr = {
strokeHeight = 119;
strokeWidth = 119;
};
closed = 0;
nodes = (
(592,668,l),
(285,668,l),
(189,572,l),
(189,469,l),
(89,369,l),
(89,209,l),
(239,59,l),
(437,59,l),
(597,219,l),
(597,385,l),
(358,385,l)
);
}
);
width = 697;
},
{
associatedMasterId = m01;
layerId = "0E2CCC86-F766-4443-9C58-9BECED075BDD";
name = "5 Jan 25 at 21:17";
shapes = (
{
attr = {
strokeHeight = 119;
strokeWidth = 119;
};
closed = 0;
nodes = (
(592,668,l),
(285,668,l),
(189,572,l),
(189,469,l),
(89,369,l),
(89,209,l),
(239,59,l),
(437,59,l),
(597,219,l),
(597,399,l),
(492,399,l),
(358,265,l)
);
}
);
width = 697;
},
{
associatedMasterId = m01;
layerId = "7B8D6869-29C9-4599-BAAF-6DCD3CEA816D";
name = "6 Jan 25 at 10:17";
shapes = (
{
attr = {
strokeHeight = 119;
strokeWidth = 119;
};
closed = 0;
nodes = (
(592,668,l),
(285,668,l),
(189,572,l),
(189,469,l),
(89,369,l),
(89,209,l),
(239,59,l),
(437,59,l),
(597,219,l),
(597,339,l),
(537,399,l),
(462,399,l),
(328,265,l)
);
}
);
width = 697;
},
{
associatedMasterId = m01;
layerId = "A005B142-8D4C-460C-88EE-C4B39D4EC316";
name = "6 Jan 25 at 10:17";
shapes = (
{
attr = {
strokeHeight = 119;
strokeWidth = 119;
};
closed = 0;
nodes = (
(592,668,l),
(285,668,l),
(189,572,l),
(189,469,l),
(89,369,l),
(89,209,l),
(239,59,l),
(437,59,l),
(597,219,l),
(597,330,l),
(543,384,l),
(462,384,l),
(408,330,l),
(308,330,l)
);
}
);
width = 697;
},
{
layerId = m002;
width = 600;
},
{
associatedMasterId = m01;
layerId = "9B725DEB-7A23-44C3-B884-0F4D658A1768";
name = "6 Jan 25 at 10:23";
shapes = (
{
attr = {
strokeHeight = 119;
strokeWidth = 119;
};
closed = 0;
nodes = (
(592,668,l),
(285,668,l),
(189,572,l),
(189,469,l),
(89,369,l),
(89,209,l),
(239,59,l),
(437,59,l),
(597,219,l),
(597,330,l),
(543,384,l),
(462,384,l),
(408,438,l),
(308,438,l)
);
}
);
width = 697;
},
{
associatedMasterId = m01;
layerId = "63915E8A-237F-4298-8EBE-71DF24AD756D";
name = "6 Jan 25 at 10:27";
shapes = (
{
attr = {
strokeHeight = 119;
strokeWidth = 119;
};
closed = 0;
nodes = (
(592,668,l),
(285,668,l),
(189,572,l),
(189,469,l),
(89,369,l),
(89,209,l),
(239,59,l),
(407,59,l),
(597,249,l)
);
},
{
attr = {
strokeHeight = 119;
strokeWidth = 119;
};
closed = 0;
nodes = (
(358,265,l),
(492,399,l),
(597,399,l),
(597,249,l),
(597,0,l)
);
}
);
width = 697;
}
);
metricLeft = "=C";
unicode = 71;
},
{
glyphname = H;
lastChange = "2025-01-10 14:57:36 +0000";
layers = (
{
layerId = m01;
name = Regular;
shapes = (
{
attr = {
strokeHeight = 111;
strokeWidth = 111;
};
closed = 0;
nodes = (
(119,0,l),
(119,728,l)
);
},
{
attr = {
strokeHeight = 111;
strokeWidth = 111;
};
closed = 0;
nodes = (
(596,0,l),
(596,728,l)
);
},
{
attr = {
strokeHeight = 104;
strokeWidth = 104;
};
closed = 0;
nodes = (
(596,368,l),
(119,368,l)
);
}
);
width = 716;
},
{
associatedMasterId = m01;
layerId = "19B25B98-041C-484A-81E1-B78013DA2A7A";
name = "3 Jan 25 at 21:52";
shapes = (
{
attr = {
strokeWidth = 119;
};
closed = 0;
nodes = (
(99,0,l),
(99,728,l)
);
},
{
attr = {
strokeWidth = 119;
};
closed = 0;
nodes = (
(556,0,l),
(556,728,l)
);
},
{
attr = {
strokeHeight = 111;
strokeWidth = 111;
};
closed = 0;
nodes = (
(556,494,l),
(430,368,l),
(219,368,l),
(99,248,l)
);
}
);
width = 656;
},
{
associatedMasterId = m01;
layerId = "AD345B69-C1F6-4ED4-B745-FEC0F1AEAEFE";
name = "6 Jan 25 at 10:42";
shapes = (
{
attr = {
strokeWidth = 119;
};
closed = 0;
nodes = (
(99,0,l),
(99,728,l)
);
},
{
attr = {
strokeWidth = 119;
};
closed = 0;
nodes = (
(556,0,l),
(556,728,l)
);
},
{
attr = {
strokeHeight = 111;
strokeWidth = 111;
};
closed = 0;
nodes = (
(556,514,l),
(410,368,l),
(239,368,l),
(99,228,l)
);
}
);
width = 656;
},
{
associatedMasterId = m01;
layerId = "9303D771-085A-4504-BD1F-485DCDF6D21A";
name = "6 Jan 25 at 10:29";
shapes = (
{
attr = {
strokeWidth = 119;
};
closed = 0;
nodes = (
(99,0,l),
(99,251,l),
(218,370,l),
(218,728,l)
);
},
{
attr = {
strokeWidth = 119;
};
closed = 0;
nodes = (
(556,0,l),
(556,367,l),
(675,486,l),
(675,728,l)
);
},
{
attr = {
strokeHeight = 111;
strokeWidth = 111;
};
closed = 0;
nodes = (
(556,368,l),
(218,368,l)
);
}
);
width = 775;
},
{
associatedMasterId = m01;
layerId = "BE5ACCCE-7E0F-49E4-AE6E-945998D921D4";
name = "6 Jan 25 at 10:31";
shapes = (
{
attr = {
strokeWidth = 119;
};
closed = 0;
nodes = (
(675,0,l),
(675,129,l),
(556,248,l),
(556,728,l)
);
},
{
attr = {
strokeWidth = 119;
};
closed = 0;
nodes = (
(218,0,l),
(218,367,l),
(99,486,l),
(99,728,l)
);
},
{
attr = {
strokeHeight = 111;
strokeWidth = 111;
};
closed = 0;
nodes = (
(218,368,l),
(436,368,l),
(556,248,l)
);
}
);
width = 775;
},
{
associatedMasterId = m01;
layerId = "4B56CCBC-8605-4406-9524-E78AEF913948";
name = "6 Jan 25 at 10:33";
shapes = (
{
attr = {
strokeWidth = 119;
};
closed = 0;
nodes = (
(675,0,l),
(675,189,l),
(556,308,l),
(556,728,l)
);
},
{
attr = {
strokeWidth = 119;
};
closed = 0;
nodes = (
(218,0,l),
(218,407,l),
(99,526,l),
(99,728,l)
);
},
{
attr = {
strokeHeight = 111;
strokeWidth = 111;
};
closed = 0;
nodes = (
(218,408,l),
(326,408,l),
(426,308,l),
(542,308,l)
);
}
);
width = 775;
},
{
associatedMasterId = m01;
layerId = "80D15342-F01A-4780-9CA8-3C45AC4E61A4";
name = "6 Jan 25 at 10:37";
shapes = (
{
attr = {
strokeWidth = 119;
};
closed = 0;
nodes = (
(675,0,l),
(675,189,l),
(556,308,l),
(556,728,l)
);
},
{
attr = {
strokeWidth = 119;
};
closed = 0;
nodes = (
(218,0,l),
(218,407,l),
(99,526,l),
(99,728,l)
);
},
{
attr = {
strokeHeight = 111;
strokeWidth = 111;
};
closed = 0;
nodes = (
(542,476,l),
(426,476,l),
(326,376,l),
(218,376,l)
);
}
);
width = 775;
},
{
associatedMasterId = m01;
layerId = "C8B149BD-BDF2-4852-8792-3B0A2CEF4A73";
name = "6 Jan 25 at 10:35";
shapes = (
{
attr = {
strokeWidth = 119;
};
closed = 0;
nodes = (
(546,0,l),
(546,189,l),
(665,308,l),
(665,728,l)
);
},
{
attr = {
strokeWidth = 119;
};
closed = 0;
nodes = (
(218,0,l),
(218,407,l),
(99,526,l),
(99,728,l)
);
},
{
attr = {
strokeHeight = 111;
strokeWidth = 111;
};
closed = 0;
nodes = (
(622,476,l),
(486,476,l),
(386,376,l),
(218,376,l)
);
}
);
width = 775;
},
{
associatedMasterId = m01;
layerId = "E534FC4B-9021-4E5E-B8BE-249A4DBED1CC";
name = "6 Jan 25 at 10:38";
shapes = (
{
attr = {
strokeWidth = 119;
};
closed = 0;
nodes = (
(665,0,l),
(665,317,l),
(546,436,l),
(546,728,l)
);
},
{
attr = {
strokeWidth = 119;
};
closed = 0;
nodes = (
(218,0,l),
(218,367,l),
(99,486,l),
(99,728,l)
);
},
{
attr = {
strokeHeight = 111;
strokeWidth = 111;
};
closed = 0;
nodes = (
(546,436,l),
(436,436,l),
(336,336,l),
(218,336,l)
);
}
);
width = 775;
},
{
associatedMasterId = m01;
layerId = "C6492471-9E17-4377-A0A8-1E2D5A333DA4";
name = "6 Jan 25 at 10:45";
shapes = (
{
attr = {
strokeWidth = 119;
};
closed = 0;
nodes = (
(99,0,l),
(99,249,l),
(218,368,l),
(218,728,l)
);
},
{
attr = {
strokeWidth = 119;
};
closed = 0;
nodes = (
(556,0,l),
(556,728,l)
);
},
{
attr = {
strokeHeight = 111;
strokeWidth = 111;
};
closed = 0;
nodes = (
(556,368,l),
(218,368,l)
);
}
);
width = 656;
},
{
associatedMasterId = m01;
layerId = "6B13DAE3-D82D-4A05-8C6D-017BCC2BB4E3";
name = "6 Jan 25 at 10:44";
shapes = (
{
attr = {
strokeWidth = 119;
};
closed = 0;
nodes = (
(99,0,l),
(99,249,l),
(218,368,l),
(218,728,l)
);
},
{
attr = {
strokeWidth = 119;
};
closed = 0;
nodes = (
(596,0,l),
(596,514,l),
(496,614,l),
(496,728,l)
);
},
{
attr = {
strokeHeight = 111;
strokeWidth = 111;
};
closed = 0;
nodes = (
(596,249,l),
(475,249,l),
(356,368,l),
(218,368,l)
);
}
);
width = 696;
},
{
layerId = m002;
width = 600;
},
{
associatedMasterId = m01;
layerId = "2BD9BF52-30EF-4708-92AA-9DD33DDC0872";
name = "6 Jan 25 at 11:02";
shapes = (
{
attr = {
strokeWidth = 119;
};
closed = 0;
nodes = (
(99,0,l),
(99,249,l),
(218,368,l),
(218,728,l)
);
},
{
attr = {
strokeWidth = 119;
};
closed = 0;
nodes = (
(496,0,l),
(496,114,l),
(596,214,l),
(596,728,l)
);
},
{
attr = {
strokeHeight = 111;
strokeWidth = 111;
};
closed = 0;
nodes = (
(596,368,l),
(218,368,l)
);
}
);
width = 696;
},
{
associatedMasterId = m01;
layerId = "DBE8CE02-A903-43D9-8825-4A2E13991771";
name = "6 Jan 25 at 11:04";
shapes = (
{
attr = {
strokeWidth = 119;
};
closed = 0;
nodes = (
(99,0,l),
(99,279,l),
(218,398,l),
(218,728,l)
);
},
{
attr = {
strokeWidth = 119;
};
closed = 0;
nodes = (
(596,0,l),
(596,728,l)
);
},
{
attr = {
strokeHeight = 111;
strokeWidth = 111;
};
closed = 0;
nodes = (
(596,279,l),
(465,279,l),
(346,398,l),
(218,398,l)
);
}
);
width = 696;
},
{
associatedMasterId = m01;
layerId = "9825F22B-B734-4A1B-9A80-98F1592204B9";
name = "10 Jan 25 at 14:07";
shapes = (
{
attr = {
strokeHeight = 105;
strokeWidth = 105;
};
closed = 0;
nodes = (
(119,0,l),
(119,728,l)
);
},
{
attr = {
strokeHeight = 105;
strokeWidth = 105;
};
closed = 0;
nodes = (
(596,0,l),
(596,728,l)
);
},
{
attr = {
strokeHeight = 98;
strokeWidth = 98;
};
closed = 0;
nodes = (
(596,368,l),
(119,368,l)
);
}
);
width = 716;
},
{
associatedMasterId = m01;
layerId = "2AC92C1D-ADFF-4005-B16D-2A26258DD097";
name = "10 Jan 25 at 14:09";
shapes = (
{
closed = 1;
nodes = (
(652,0,l),
(652,728,l),
(540,728,l),
(540,0,l)
);
},
{
closed = 1;
nodes = (
(177,0,l),
(177,728,l),
(65,728,l),
(65,0,l)
);
},
{
closed = 1;
nodes = (
(562,315,l),
(562,420,l),
(155,420,l),
(155,315,l)
);
}
);
width = 716;
}
);
unicode = 72;
},
{
glyphname = I;
lastChange = "2025-01-08 20:05:29 +0000";
layers = (
{
layerId = m002;
width = 600;
},
{
associatedMasterId = m01;
layerId = "BA583558-92FE-4776-855E-8AFC1A3B20FA";
name = "6 Jan 25 at 15:34";
shapes = (
{
attr = {
strokeWidth = 119;
};
closed = 0;
nodes = (
(99,0,l),
(99,356,l),
(218,475,l),
(218,728,l)
);
}
);
width = 318;
},
{
layerId = m01;
name = Regular;
shapes = (
{
attr = {
strokeWidth = 119;
};
closed = 0;
nodes = (
(119,0,l),
(119,728,l)
);
}
);
width = 239;
}
);
metricLeft = "=H";
metricRight = "=H";
unicode = 73;
},
{
glyphname = J;
lastChange = "2025-01-08 20:06:21 +0000";
layers = (
{
layerId = m01;
shapes = (
{
attr = {
strokeWidth = 119;
};
closed = 0;
nodes = (
(44,59,l),
(148,59,l),
(231,142,l),
(231,668,l),
(44,668,l)
);
}
);
width = 346;
},
{
layerId = m002;
width = 600;
},
{
associatedMasterId = m01;
layerId = "5FCC948B-3E78-4406-8B7F-68F8B9EABB72";
name = "3 Jan 25 at 21:19";
shapes = (
{
attr = {
strokeWidth = 119;
};
closed = 0;
nodes = (
(99,-200,l),
(99,728,l)
);
}
);
width = 199;
},
{
associatedMasterId = m01;
layerId = "A268B593-02F6-4B90-B4C2-325B045B8A17";
name = "3 Jan 25 at 21:19";
shapes = (
{
attr = {
strokeWidth = 119;
};
closed = 0;
nodes = (
(-24,-147,l),
(99,-24,l),
(99,728,l)
);
}
);
width = 199;
},
{
associatedMasterId = m01;
layerId = "1A75007F-10A0-40D0-984A-2F41A540B1BB";
name = "6 Jan 25 at 11:17";
shapes = (
{
attr = {
strokeWidth = 119;
};
closed = 0;
nodes = (
(99,728,l),
(99,-44,l),
(6,-137,l),
(-88,-137,l)
);
}
);
width = 199;
},
{
associatedMasterId = m01;
layerId = "793CB470-A22E-4F89-903E-B4183CC01DDF";
name = "6 Jan 25 at 11:22";
shapes = (
{
attr = {
strokeWidth = 119;
};
closed = 0;
nodes = (
(218,728,l),
(218,395,l),
(99,276,l),
(99,-44,l),
(6,-137,l),
(-88,-137,l)
);
}
);
width = 318;
},
{
associatedMasterId = m01;
layerId = "64621FAE-E728-4537-9801-A0172A8CDCE8";
name = "6 Jan 25 at 11:28";
shapes = (
{
attr = {
strokeWidth = 119;
};
closed = 0;
nodes = (
(-20,-120,l),
(144,-120,l),
(227,-37,l),
(227,354,l),
(346,473,l),
(346,668,l),
(40,668,l)
);
}
);
width = 446;
},
{
associatedMasterId = m01;
layerId = "00AB464A-B576-4281-B9DE-7D3A8463BEDF";
name = "6 Jan 25 at 11:45";
shapes = (
{
attr = {
strokeWidth = 119;
};
closed = 0;
nodes = (
(30,59,l),
(164,59,l),
(257,152,l),
(257,384,l),
(346,473,l),
(346,668,l),
(40,668,l)
);
}
);
width = 446;
}
);
unicode = 74;
},
{
glyphname = K;
lastChange = "2025-01-08 20:16:54 +0000";
layers = (
{
associatedMasterId = m01;
layerId = "630F296F-DC45-499C-A886-011D0BD9E750";
name = "3 Jan 25 at 21:27";
shapes = (
{
attr = {
strokeWidth = 119;
};
closed = 0;
nodes = (
(99,0,l),
(99,728,l)
);
},
{
attr = {
strokeHeight = 119;
strokeWidth = 119;
};
closed = 0;
nodes = (
(583,36,l),
(245,374,l),
(566,695,l)
);
}
);
width = 600;
},
{
associatedMasterId = m01;
layerId = "04E22F99-6E94-45F6-A8EC-5F9FA24F377B";
name = "3 Jan 25 at 21:29";
shapes = (
{
attr = {
strokeWidth = 119;
};
closed = 0;
nodes = (
(99,0,l),
(99,728,l)
);
},
{
attr = {
strokeHeight = 119;
strokeWidth = 119;
};
closed = 0;
nodes = (
(566,29,l),
(255,340,l),
(255,407,l),
(546,698,l)
);
}
);
width = 600;
},
{
associatedMasterId = m01;
layerId = "42B78B3D-69EB-49A7-AD1A-32D801216960";
name = "3 Jan 25 at 21:23";
shapes = (
{
attr = {
strokeWidth = 119;
};
closed = 0;
nodes = (
(99,0,l),
(99,728,l)
);
},
{
attr = {
strokeHeight = 119;
strokeWidth = 119;
};
closed = 0;
nodes = (
(516,-1,l),
(516,340,l),
(215,340,l),
(215,407,l),
(506,698,l)
);
}
);
width = 600;
},
{
layerId = m002;
width = 600;
},
{
associatedMasterId = m01;
layerId = "EAD4116D-5A3F-4489-B6F9-5735D30F40CA";
name = "3 Jan 25 at 21:30";
shapes = (
{
attr = {
strokeWidth = 119;
};
closed = 0;
nodes = (
(99,0,l),
(99,728,l)
);
},
{
attr = {
strokeHeight = 119;
strokeWidth = 119;
};
closed = 0;
nodes = (
(516,-1,l),
(516,263,l),
(439,340,l),
(215,340,l),
(215,407,l),
(506,698,l)
);
}
);
width = 600;
},
{
associatedMasterId = m01;
layerId = "D5397445-BF20-4AE4-8A90-7D37BF02A6CB";
name = "3 Jan 25 at 21:49";
shapes = (
{
attr = {
strokeWidth = 119;
};
closed = 0;
nodes = (
(99,0,l),
(99,728,l)
);
},
{
attr = {
strokeHeight = 119;
strokeWidth = 119;
};
closed = 0;
nodes = (
(533,36,l),
(195,374,l),
(113,374,l),
(195,374,l),
(513,692,l)
);
}
);
width = 600;
},
{
layerId = m01;
name = Regular;
shapes = (
{
attr = {
strokeWidth = 119;
};
closed = 0;
nodes = (
(119,0,l),
(119,728,l)
);
},
{
attr = {
strokeHeight = 119;
strokeWidth = 119;
};
closed = 0;
nodes = (
(549,-1,l),
(549,152,l),
(323,378,l),
(119,378,l),
(299,378,l),
(529,608,l),
(529,728,l)
);
}
);
width = 645;
},
{
associatedMasterId = m01;
layerId = "650B3160-5737-47D5-99D0-9B524176215C";
name = "6 Jan 25 at 11:45";
shapes = (
{
attr = {
strokeWidth = 119;
};
closed = 0;
nodes = (
(99,0,l),
(99,728,l)
);
},
{
attr = {
strokeHeight = 119;
strokeWidth = 119;
};
closed = 0;
nodes = (
(536,21,l),
(215,342,l),
(215,408,l),
(298,491,l),
(409,491,l),
(486,568,l),
(486,728,l)
);
}
);
width = 600;
},
{
associatedMasterId = m01;
layerId = "7B87524E-C644-4D42-BB1E-CD5E700E1938";
name = "8 Jan 25 at 20:07";
shapes = (
{
attr = {
strokeWidth = 119;
};
closed = 0;
nodes = (
(119,0,l),
(119,728,l)
);
},
{
attr = {
strokeHeight = 119;
strokeWidth = 119;
};
closed = 0;
nodes = (
(529,-1,l),
(529,172,l),
(452,249,l),
(328,249,l),
(235,342,l),
(235,408,l),
(318,491,l),
(432,491,l),
(509,568,l),
(509,728,l)
);
}
);
width = 632;
}
);
metricLeft = "=H";
unicode = 75;
},
{
glyphname = L;
lastChange = "2025-01-08 20:17:11 +0000";
layers = (
{
layerId = m01;
shapes = (
{
attr = {
strokeWidth = 119;
};
closed = 0;
nodes = (
(502,59,l),
(197,59,l),
(119,137,l),
(119,728,l)
);
}
);
width = 517;
},
{
associatedMasterId = m01;
layerId = "255B639A-5019-48E6-92B6-C925A542E777";
name = "6 Jan 25 at 11:48";
shapes = (
{
attr = {
strokeWidth = 119;
};
closed = 0;
nodes = (
(482,115,l),
(319,115,l),
(269,59,l),
(177,59,l),
(99,137,l),
(99,728,l)
);
}
);
width = 492;
},
{
associatedMasterId = m01;
layerId = "E7DB96B7-1DA6-4699-9C7F-4E584E61834D";
name = "6 Jan 25 at 11:50";
shapes = (
{
attr = {
strokeWidth = 119;
};
closed = 0;
nodes = (
(482,59,l),
(177,59,l),
(99,137,l),
(99,285,l),
(218,404,l),
(218,728,l)
);
}
);
width = 492;
},
{
associatedMasterId = m01;
layerId = "8BC380CD-EF1F-4F7E-88F4-D57D196D1A08";
name = "6 Jan 25 at 11:47";
shapes = (
{
attr = {
strokeWidth = 119;
};
closed = 0;
nodes = (
(482,59,l),
(177,59,l),
(99,137,l),
(99,255,l),
(218,374,l),
(218,461,l),
(148,528,l),
(148,728,l)
);
}
);
width = 492;
},
{
layerId = m002;
width = 600;
}
);
metricLeft = "=H";
unicode = 76;
},
{
glyphname = M;
lastChange = "2025-01-09 16:38:07 +0000";
layers = (
{
associatedMasterId = m01;
layerId = "3C2FE22B-CA72-4BD0-B7B0-3FF41893761B";
name = "3 Jan 25 at 22:41";
shapes = (
{
attr = {
strokeWidth = 119;
};
closed = 0;
nodes = (
(89,0,l),
(89,600,l),
(167,678,l),
(191,678,l),
(289,580,l),
(289,147,l),
(387,49,l),
(391,49,l),
(489,147,l),
(489,580,l),
(582,678,l),
(605,678,l),
(689,600,l),
(689,0,l)
);
}
);
width = 779;
},
{
associatedMasterId = m01;
layerId = "B3E66A12-2C95-4721-AAC1-01A8CC2F81D5";
name = "6 Jan 25 at 11:56";
shapes = (
{
attr = {
strokeWidth = 119;
};
closed = 0;
nodes = (
(119,0,l),
(119,608,l),
(179,668,l),
(283,668,l),
(439,512,l),
(439,0,l)
);
},
{
attr = {
strokeWidth = 119;
};
closed = 0;
nodes = (
(439,512,l),
(595,668,l),
(699,668,l),
(759,608,l),
(759,0,l)
);
}
);
width = 879;
},
{
associatedMasterId = m01;
layerId = "529011F9-3097-4B94-8310-542A9685F631";
name = "6 Jan 25 at 11:56";
shapes = (
{
attr = {
strokeWidth = 119;
};
closed = 0;
nodes = (
(87,0,l),
(87,576,l),
(179,668,l),
(251,668,l),
(387,532,l),
(387,0,l)
);
},
{
attr = {
strokeWidth = 119;
};
closed = 0;
nodes = (
(387,532,l),
(523,668,l),
(595,668,l),
(687,576,l),
(687,0,l)
);
}
);
width = 779;
},
{
associatedMasterId = m01;
layerId = "418A5619-A856-4ABD-B4AB-B0F43239A16A";
name = "6 Jan 25 at 12:00";
shapes = (
{
attr = {
strokeWidth = 119;
};
closed = 0;
nodes = (
(89,0,l),
(89,600,l),
(167,678,l),
(385,678,l),
(385,657,l),
(287,559,l),
(287,207,l),
(439,59,l),
(487,59,l),
(487,508,l),
(647,668,l),
(689,668,l),
(689,324,l),
(689,0,l)
);
}
);
width = 779;
},
{
layerId = m002;
width = 600;
},
{
associatedMasterId = m01;
layerId = "0C323F8D-9292-4C05-97D2-54B000D649DA";
name = "6 Jan 25 at 12:08";
shapes = (
{
attr = {
strokeWidth = 119;
};
closed = 0;
nodes = (
(227,0,l),
(227,106,l),
(99,234,l),
(99,600,l),
(177,678,l),
(395,678,l),
(395,657,l),
(299,561,l),
(299,313,l),
(451,165,l),
(499,165,l),
(499,510,l),
(657,668,l),
(699,668,l),
(699,324,l),
(699,0,l)
);
}
);
width = 799;
},
{
associatedMasterId = m01;
layerId = "69F3C327-6D65-4D5F-AD8D-33C79610CAA0";
name = "8 Jan 25 at 20:22";
shapes = (
{
attr = {
strokeWidth = 119;
};
closed = 0;
nodes = (
(109,0,l),
(109,668,l),
(211,668,l),
(309,570,l),
(309,147,l),
(407,49,l),
(411,49,l),
(509,147,l),
(509,570,l),
(602,668,l),
(709,668,l),
(709,0,l)
);
}
);
width = 819;
},
{
layerId = m01;
name = Regular;
shapes = (
{
attr = {
strokeWidth = 119;
};
closed = 0;
nodes = (
(119,0,l),
(119,668,l),
(223,668,l),
(419,472,l),
(419,0,l)
);
},
{
attr = {
strokeWidth = 119;
};
closed = 0;
nodes = (
(419,472,l),
(615,668,l),
(719,668,l),
(719,0,l)
);
}
);
width = 839;
}
);
metricLeft = "=H";
metricRight = "=H";
unicode = 77;
},
{
glyphname = N;
lastChange = "2025-01-09 16:37:06 +0000";
layers = (
{
associatedMasterId = m01;
layerId = "E93FD4A2-E803-473D-886F-BD05166F10FC";
name = "3 Jan 25 at 22:37";
shapes = (
{
attr = {
strokeWidth = 119;
};
closed = 0;
nodes = (
(209,0,l),
(209,213,l),
(91,332,l),
(90,668,l),
(183,668,l),
(397,454,l),
(397,161,l),
(499,59,l),
(611,59,l),
(611,525,l),
(489,647,l),
(489,728,l)
);
}
);
width = 701;
},
{
layerId = m002;
width = 600;
},
{
associatedMasterId = m01;
layerId = "191B4C58-37CF-4B02-8F64-C8342EFAF053";
name = "8 Jan 25 at 20:29";
shapes = (
{
attr = {
strokeWidth = 119;
};
closed = 0;
nodes = (
(140,0,l),
(140,618,l)
);
},
{
attr = {
strokeWidth = 119;
};
closed = 0;
nodes = (
(30,668,l),
(222,668,l),
(360,530,l),
(360,197,l),
(498,59,l),
(580,59,l),
(580,728,l)
);
}
);
width = 680;
},
{
layerId = m01;
name = Regular;
shapes = (
{
attr = {
strokeWidth = 119;
};
closed = 0;
nodes = (
(121,0,l),
(120,668,l),
(223,668,l),
(371,520,l),
(371,207,l),
(519,59,l),
(621,59,l),
(621,728,l)
);
}
);
width = 741;
}
);
metricLeft = "=H";
metricRight = "=H";
unicode = 78;
},
{
glyphname = O;
lastChange = "2025-01-08 19:31:21 +0000";
layers = (
{
layerId = m01;
shapes = (
{
attr = {
strokeHeight = 119;
strokeWidth = 119;
};
closed = 1;
nodes = (
(448,59,l),
(612,223,l),
(612,550,l),
(494,668,l),
(268,668,l),
(104,504,l),
(104,177,l),
(222,59,l)
);
}
);
width = 717;
},
{
associatedMasterId = m01;
layerId = "FA37C91B-F4C9-4F25-9ED4-F22B7974FBDB";
name = "6 Jan 25 at 12:17";
shapes = (
{
attr = {
strokeHeight = 119;
strokeWidth = 119;
};
closed = 1;
nodes = (
(433,59,l),
(597,223,l),
(597,550,l),
(479,668,l),
(253,668,l),
(168,583,l),
(168,422,l),
(89,343,l),
(89,177,l),
(207,59,l)
);
}
);
width = 687;
},
{
associatedMasterId = m01;
layerId = "A865707D-1D85-4D01-8087-EC5B3452D24E";
name = "6 Jan 25 at 12:15";
shapes = (
{
attr = {
strokeHeight = 119;
strokeWidth = 119;
};
closed = 1;
nodes = (
(597,177,l),
(597,343,l),
(518,422,l),
(518,583,l),
(433,668,l),
(207,668,l),
(89,550,l),
(89,223,l),
(160,152,l),
(253,152,l),
(346,59,l),
(479,59,l)
);
}
);
width = 687;
},
{
associatedMasterId = m01;
layerId = "FFB34384-366B-4FF5-ABFF-11A54D852600";
name = "6 Jan 25 at 12:22";
shapes = (
{
attr = {
strokeHeight = 119;
strokeWidth = 119;
};
closed = 1;
nodes = (
(253,668,l),
(183,598,l),
(183,469,l),
(89,375,l),
(89,177,l),
(207,59,l),
(513,59,l),
(598,144,l),
(598,231,l),
(518,316,l),
(518,395,l),
(597,474,l),
(597,550,l),
(479,668,l)
);
}
);
width = 687;
},
{
associatedMasterId = m01;
layerId = "98192281-FFAC-4C9A-83DA-7FD2BC812A86";
name = "6 Jan 25 at 12:21";
shapes = (
{
attr = {
strokeHeight = 119;
strokeWidth = 119;
};
closed = 1;
nodes = (
(433,59,l),
(518,144,l),
(518,305,l),
(597,384,l),
(597,550,l),
(479,668,l),
(253,668,l),
(183,598,l),
(183,469,l),
(89,375,l),
(89,177,l),
(207,59,l)
);
}
);
width = 687;
},
{
layerId = m002;
width = 600;
}
);
unicode = 79;
},
{
glyphname = P;
lastChange = "2025-01-08 20:30:38 +0000";
layers = (
{
layerId = m01;
shapes = (
{
attr = {
strokeHeight = 119;
strokeWidth = 119;
};
closed = 0;
nodes = (
(119,4,l),
(119,668,l),
(399,668,l),
(519,548,l),
(519,393,l),
(399,273,l),
(119,274,l)
);
}
);
width = 619;
},
{
layerId = m002;
width = 600;
},
{
associatedMasterId = m01;
layerId = "E311B153-0E0F-4964-9A2B-B2ACB98BD972";
name = "3 Jan 25 at 22:59";
shapes = (
{
attr = {
strokeHeight = 119;
strokeWidth = 119;
};
closed = 0;
nodes = (
(92,4,l),
(92,668,l),
(391,668,l),
(492,584,l),
(492,393,l),
(332,233,l),
(238,233,l),
(188,283,l),
(92,283,l)
);
}
);
width = 600;
},
{
associatedMasterId = m01;
layerId = "C573AAE2-DB31-4E43-B950-CA81C048F777";
name = "3 Jan 25 at 23:09";
shapes = (
{
attr = {
strokeHeight = 119;
strokeWidth = 119;
};
closed = 0;
nodes = (
(92,4,l),
(92,472,l),
(288,668,l),
(391,668,l),
(492,584,l),
(492,393,l),
(332,233,l),
(238,233,l),
(188,283,l),
(92,283,l)
);
}
);
width = 600;
},
{
associatedMasterId = m01;
layerId = "BBBB6EF5-A740-4D8B-8BE6-D838FACAEFF7";
name = "3 Jan 25 at 23:10";
shapes = (
{
attr = {
strokeHeight = 119;
strokeWidth = 119;
};
closed = 0;
nodes = (
(92,4,l),
(92,472,l),
(288,668,l),
(391,668,l),
(492,584,l),
(492,393,l),
(372,273,l),
(92,274,l)
);
}
);
width = 600;
},
{
associatedMasterId = m01;
layerId = "6577A525-AF7C-4473-8A9C-6A83EE32157C";
name = "6 Jan 25 at 12:28";
shapes = (
{
attr = {
strokeHeight = 119;
strokeWidth = 119;
};
closed = 0;
nodes = (
(142,0,l),
(142,112,l),
(92,162,l),
(92,441,l),
(176,525,l),
(176,668,l),
(392,668,l),
(492,568,l),
(492,383,l),
(362,253,l),
(258,253,l),
(208,303,l),
(92,303,l)
);
}
);
width = 600;
}
);
metricLeft = "=H";
unicode = 80;
},
{
glyphname = Q;
lastChange = "2025-01-08 20:32:38 +0000";
layers = (
{
associatedMasterId = m01;
layerId = "E68FF40C-F9B5-4EFE-BDB3-16701F76E2DD";
name = "3 Jan 25 at 23:17";
shapes = (
{
ref = O;
},
{
attr = {
strokeHeight = 119;
strokeWidth = 119;
};
closed = 0;
nodes = (
(519,145,l),
(281,-93,l),
(281,-145,l),
(622,-145,l)
);
}
);
width = 717;
},
{
associatedMasterId = m01;
layerId = "77893902-2811-4745-A04F-B17E046F2A97";
name = "3 Jan 25 at 23:18";
shapes = (
{
ref = O;
},
{
attr = {
strokeHeight = 119;
strokeWidth = 119;
};
closed = 0;
nodes = (
(519,145,l),
(366,-7,l),
(366,6,l),
(432,-60,l),
(677,-60,l)
);
}
);
width = 687;
},
{
associatedMasterId = m01;
layerId = "712C9838-F003-4059-8409-A56BF0E60F92";
name = "3 Jan 25 at 23:19";
shapes = (
{
ref = O;
},
{
attr = {
strokeHeight = 119;
strokeWidth = 119;
};
closed = 0;
nodes = (
(519,145,l),
(404,31,l),
(404,25,l),
(489,-60,l),
(678,-60,l)
);
}
);
width = 687;
},
{
associatedMasterId = m01;
layerId = "48CF9A0B-2614-4E0A-998B-0EF9D8FFF213";
name = "3 Jan 25 at 23:23";
shapes = (
{
ref = O;
},
{
attr = {
strokeHeight = 119;
strokeWidth = 119;
};
closed = 0;
nodes = (
(519,145,l),
(366,-7,l),
(366,-14,l),
(412,-60,l),
(677,-60,l)
);
}
);
width = 687;
},
{
associatedMasterId = m01;
layerId = "489C944B-6C5C-45C0-A814-6980F86D4242";
name = "3 Jan 25 at 23:22";
shapes = (
{
ref = O;
},
{
attr = {
strokeHeight = 119;
strokeWidth = 119;
};
closed = 0;
nodes = (
(463,89,l),
(263,-111,l),
(184,-111,l),
(441,-111,l),
(511,-181,l),
(698,-181,l)
);
}
);
width = 687;
},
{
layerId = m002;
width = 600;
},
{
associatedMasterId = m01;
layerId = "B6CD030F-2FAD-45DD-A4DD-5F91214FAAF4";
name = "3 Jan 25 at 23:31";
shapes = (
{
ref = O;
},
{
attr = {
strokeHeight = 119;
strokeWidth = 119;
};
closed = 0;
nodes = (
(457,-60,l),
(677,-60,l)
);
}
);
width = 687;
},
{
associatedMasterId = m01;
layerId = "193EA62B-0646-433B-A2A6-917255BA27AA";
name = "4 Jan 25 at 09:41";
shapes = (
{
ref = O;
},
{
attr = {
strokeHeight = 119;
strokeWidth = 119;
};
closed = 0;
nodes = (
(519,145,l),
(366,-7,l),
(366,-60,l),
(432,-60,l),
(513,-141,l),
(691,-141,l)
);
}
);
width = 687;
},
{
layerId = m01;
name = Regular;
shapes = (
{
ref = O;
},
{
attr = {
strokeHeight = 119;
strokeWidth = 119;
};
closed = 0;
nodes = (
(534,145,l),
(381,-7,l),
(381,-60,l),
(692,-60,l)
);
}
);
width = 717;
},
{
associatedMasterId = m01;
layerId = "3E9FAE17-C4AF-4CE8-B924-87B2E6A6A148";
name = "6 Jan 25 at 12:30";
shapes = (
{
attr = {
strokeHeight = 119;
strokeWidth = 119;
};
closed = 1;
nodes = (
(253,668,l),
(183,598,l),
(183,469,l),
(89,375,l),
(89,177,l),
(207,59,l),
(433,59,l),
(518,144,l),
(518,305,l),
(597,384,l),
(597,550,l),
(479,668,l)
);
},
{
attr = {
strokeHeight = 119;
strokeWidth = 119;
};
closed = 0;
nodes = (
(463,89,l),
(263,-111,l),
(184,-111,l),
(441,-111,l),
(511,-181,l),
(698,-181,l)
);
}
);
width = 687;
}
);
metricLeft = "=O";
unicode = 81;
},
{
glyphname = R;
lastChange = "2025-01-09 09:25:44 +0000";
layers = (
{
layerId = m01;
shapes = (
{
attr = {
strokeHeight = 119;
strokeWidth = 119;
};
closed = 0;
nodes = (
(119,0,l),
(119,668,l),
(409,668,l),
(509,568,l),
(509,453,l),
(409,353,l),
(174,353,l),
(215,353,l),
(538,20,l)
);
}
);
width = 624;
},
{
layerId = m002;
width = 600;
},
{
associatedMasterId = m01;
layerId = "77166B2A-9DCD-4035-A4A4-8702AB4431BE";
name = "6 Jan 25 at 12:35";
shapes = (
{
attr = {
strokeHeight = 119;
strokeWidth = 119;
};
closed = 0;
nodes = (
(184,0,l),
(184,112,l),
(99,192,l),
(99,668,l),
(379,668,l),
(479,568,l),
(479,443,l),
(379,343,l),
(274,343,l),
(248,318,l),
(248,287,l),
(508,27,l)
);
}
);
width = 580;
},
{
associatedMasterId = m01;
layerId = "4819C02B-EAD1-420B-96E0-A3560FAA1A52";
name = "6 Jan 25 at 12:50";
shapes = (
{
attr = {
strokeHeight = 119;
strokeWidth = 119;
};
closed = 0;
nodes = (
(184,0,l),
(184,112,l),
(99,192,l),
(99,500,l),
(267,668,l),
(379,668,l),
(479,568,l),
(479,443,l),
(379,343,l),
(274,343,l),
(248,318,l),
(248,287,l),
(508,27,l)
);
}
);
width = 580;
},
{
associatedMasterId = m01;
layerId = "054EBE28-422D-44D0-AA5B-8D37A75A092F";
name = "6 Jan 25 at 12:51";
shapes = (
{
attr = {
strokeHeight = 119;
strokeWidth = 119;
};
closed = 0;
nodes = (
(164,0,l),
(164,107,l),
(79,192,l),
(79,530,l),
(217,668,l),
(379,668,l),
(479,568,l),
(479,433,l),
(419,373,l),
(293,373,l),
(248,328,l),
(248,287,l),
(312,223,l),
(390,223,l),
(506,107,l),
(506,0,l)
);
}
);
width = 580;
},
{
associatedMasterId = m01;
layerId = "F864BCA1-548E-4EDA-BC06-E8313FBE3274";
name = "9 Jan 25 at 09:21";
shapes = (
{
attr = {
strokeHeight = 119;
strokeWidth = 119;
};
closed = 0;
nodes = (
(119,0,l),
(119,668,l),
(419,668,l),
(519,568,l),
(519,453,l),
(419,353,l),
(304,353,l),
(278,328,l),
(278,307,l),
(558,27,l)
);
}
);
width = 624;
},
{
associatedMasterId = m01;
layerId = "3C230F00-1C16-4A4F-A9E0-399EC8B9E61D";
name = "9 Jan 25 at 09:25";
shapes = (
{
attr = {
strokeHeight = 119;
strokeWidth = 119;
};
closed = 0;
nodes = (
(119,0,l),
(119,668,l),
(419,668,l),
(519,568,l),
(519,423,l),
(419,323,l),
(174,323,l),
(363,323,l),
(528,148,l),
(528,0,l)
);
}
);
width = 624;
}
);
metricLeft = "=H";
unicode = 82;
},
{
glyphname = S;
lastChange = "2025-01-13 15:26:29 +0000";
layers = (
{
layerId = m01;
name = Regular;
shapes = (
{
attr = {
strokeHeight = 105;
strokeWidth = 112;
};
closed = 0;
nodes = (
(53,59,l),
(394,59,l),
(496,160,l),
(496,273,l),
(394,373,l),
(191,373,l),
(89,476,l),
(89,566,l),
(191,668,l),
(513,668,l)
);
}
);
width = 592;
},
{
associatedMasterId = m01;
layerId = "796A084A-3387-481C-814F-3CE9B462C259";
name = "6 Jan 25 at 12:58";
shapes = (
{
attr = {
strokeHeight = 119;
strokeWidth = 119;
};
closed = 0;
nodes = (
(53,59,l),
(394,59,l),
(496,160,l),
(496,313,l),
(406,403,l),
(324,403,l),
(262,333,l),
(180,333,l),
(89,424,l),
(89,566,l),
(191,668,l),
(513,668,l)
);
}
);
width = 586;
},
{
associatedMasterId = m01;
layerId = "F9332935-7903-4199-96CC-68F5C87EA61A";
name = "6 Jan 25 at 12:59";
shapes = (
{
attr = {
strokeHeight = 119;
strokeWidth = 119;
};
closed = 0;
nodes = (
(43,136,l),
(169,136,l),
(246,59,l),
(424,59,l),
(526,160,l),
(526,313,l),
(436,403,l),
(324,403,l),
(262,333,l),
(180,333,l),
(89,424,l),
(89,566,l),
(191,668,l),
(431,668,l),
(540,559,l)
);
}
);
width = 586;
},
{
associatedMasterId = m01;
layerId = "FF6F236B-32F8-4292-9B77-48AA837CD5A3";
name = "6 Jan 25 at 13:04";
shapes = (
{
attr = {
strokeHeight = 119;
strokeWidth = 119;
};
closed = 0;
nodes = (
(43,136,l),
(169,136,l),
(246,59,l),
(424,59,l),
(526,160,l),
(526,313,l),
(436,403,l),
(324,403,l),
(262,333,l),
(180,333,l),
(89,424,l),
(89,566,l),
(191,668,l),
(431,668,l),
(540,559,l)
);
}
);
width = 586;
},
{
associatedMasterId = m01;
layerId = "15431175-A535-41A8-A55D-078524948A0A";
name = "6 Jan 25 at 13:08";
shapes = (
{
attr = {
strokeHeight = 119;
strokeWidth = 119;
};
closed = 0;
nodes = (
(585,499,l),
(416,668,l),
(226,668,l),
(124,566,l),
(124,459,l),
(175,408,l),
(395,408,l),
(601,202,l),
(601,140,l),
(519,59,l),
(381,59,l),
(304,136,l),
(198,136,l),
(83,18,l)
);
}
);
width = 701;
},
{
associatedMasterId = m01;
layerId = "3F81BF4A-03A2-4FF3-87E0-16EE37A015FB";
name = "6 Jan 25 at 13:01";
shapes = (
{
attr = {
strokeHeight = 119;
strokeWidth = 119;
};
closed = 0;
nodes = (
(623,536,l),
(528,536,l),
(396,668,l),
(226,668,l),
(124,566,l),
(124,459,l),
(175,408,l),
(395,408,l),
(601,202,l),
(601,140,l),
(519,59,l),
(381,59,l),
(304,136,l),
(198,136,l),
(83,18,l)
);
}
);
width = 701;
},
{
layerId = m002;
width = 600;
}
);
unicode = 83;
},
{
glyphname = T;
lastChange = "2025-01-08 20:38:50 +0000";
layers = (
{
layerId = m01;
shapes = (
{
attr = {
strokeWidth = 119;
};
closed = 0;
nodes = (
(294,0,l),
(294,728,l)
);
},
{
attr = {
strokeHeight = 111;
strokeWidth = 111;
};
closed = 0;
nodes = (
(562,672,l),
(25,672,l)
);
}
);
width = 587;
},
{
associatedMasterId = m01;
layerId = "F0024563-70F3-48B9-A2C8-3EF3F78BA994";
name = "3 Jan 25 at 23:32";
shapes = (
{
attr = {
strokeWidth = 119;
};
closed = 0;
nodes = (
(259,0,l),
(259,552,l),
(379,672,l)
);
},
{
attr = {
strokeHeight = 111;
strokeWidth = 111;
};
closed = 0;
nodes = (
(527,672,l),
(10,672,l)
);
}
);
width = 537;
},
{
associatedMasterId = m01;
layerId = "12EADB68-B1D8-45BB-AACD-99408FA3113F";
name = "6 Jan 25 at 13:14";
shapes = (
{
attr = {
strokeWidth = 119;
};
closed = 0;
nodes = (
(235,728,l),
(235,475,l),
(354,356,l),
(354,227,l),
(235,108,l),
(235,0,l)
);
},
{
attr = {
strokeHeight = 111;
strokeWidth = 111;
};
closed = 0;
nodes = (
(527,672,l),
(10,672,l)
);
}
);
width = 537;
},
{
associatedMasterId = m01;
layerId = "9B099FD0-5C11-49FA-89E6-34280498BBBB";
name = "6 Jan 25 at 13:12";
shapes = (
{
attr = {
strokeWidth = 119;
};
closed = 0;
nodes = (
(405,672,l),
(195,462,l),
(195,295,l),
(324,166,l),
(324,0,l)
);
},
{
attr = {
strokeHeight = 111;
strokeWidth = 111;
};
closed = 0;
nodes = (
(527,672,l),
(10,672,l)
);
}
);
width = 537;
},
{
associatedMasterId = m01;
layerId = "6BFED2B0-C41F-4288-85B0-F677D6C45B3C";
name = "6 Jan 25 at 13:17";
shapes = (
{
attr = {
strokeWidth = 119;
};
closed = 0;
nodes = (
(474,672,l),
(264,462,l),
(264,295,l),
(393,166,l),
(393,0,l)
);
},
{
attr = {
strokeHeight = 111;
strokeWidth = 111;
};
closed = 0;
nodes = (
(596,672,l),
(219,672,l),
(79,532,l)
);
}
);
width = 636;
},
{
layerId = m002;
width = 600;
},
{
associatedMasterId = m01;
layerId = "5CC1F32C-8FC8-462E-8071-CDE71F8E5793";
name = "6 Jan 25 at 13:18";
shapes = (
{
attr = {
strokeWidth = 119;
};
closed = 0;
nodes = (
(225,672,l),
(405,492,l),
(405,295,l),
(276,166,l),
(276,0,l)
);
},
{
attr = {
strokeHeight = 111;
strokeWidth = 111;
};
closed = 0;
nodes = (
(527,672,l),
(150,672,l),
(40,562,l),
(40,430,l)
);
}
);
width = 537;
}
);
unicode = 84;
},
{
glyphname = U;
lastChange = "2025-01-08 20:39:43 +0000";
layers = (
{
layerId = m01;
shapes = (
{
attr = {
strokeHeight = 119;
strokeWidth = 119;
};
closed = 0;
nodes = (
(114,728,l),
(114,177,l),
(232,59,l),
(418,59,l),
(582,223,l),
(582,728,l)
);
}
);
width = 695;
},
{
associatedMasterId = m01;
layerId = "1DB5FD28-D72F-4999-9BED-DED8B3592123";
name = "6 Jan 25 at 13:20";
shapes = (
{
attr = {
strokeHeight = 119;
strokeWidth = 119;
};
closed = 0;
nodes = (
(217,728,l),
(217,495,l),
(99,373,l),
(99,177,l),
(217,59,l),
(403,59,l),
(567,223,l),
(567,728,l)
);
}
);
width = 667;
},
{
associatedMasterId = m01;
layerId = "0C2CC122-223E-4E69-9B32-175DC9086F07";
name = "6 Jan 25 at 13:20";
shapes = (
{
attr = {
strokeHeight = 119;
strokeWidth = 119;
};
closed = 0;
nodes = (
(217,728,l),
(217,495,l),
(99,373,l),
(99,177,l),
(217,59,l),
(296,59,l),
(420,183,l),
(493,183,l),
(567,257,l),
(567,728,l)
);
}
);
width = 667;
},
{
associatedMasterId = m01;
layerId = "42924F59-F14B-4A12-88FF-C10B25D6DD9A";
name = "6 Jan 25 at 13:22";
shapes = (
{
attr = {
strokeHeight = 119;
strokeWidth = 119;
};
closed = 0;
nodes = (
(197,728,l),
(197,475,l),
(99,373,l),
(99,177,l),
(217,59,l),
(326,59,l),
(440,173,l),
(513,173,l),
(567,227,l),
(567,569,l),
(567,728,l)
);
}
);
width = 667;
},
{
layerId = m002;
width = 600;
}
);
unicode = 85;
},
{
glyphname = V;
lastChange = "2025-01-08 20:40:46 +0000";
layers = (
{
layerId = m01;
shapes = (
{
attr = {
strokeHeight = 119;
strokeWidth = 119;
};
closed = 0;
nodes = (
(104,730,l),
(104,421,l),
(204,321,l),
(204,170,l),
(314,60,l),
(353,60,l),
(463,170,l),
(463,321,l),
(563,421,l),
(563,730,l)
);
}
);
width = 668;
},
{
layerId = m002;
width = 600;
},
{
associatedMasterId = m01;
layerId = "D7D7159D-0BA2-4180-B731-216EF528D5D3";
name = "6 Jan 25 at 13:22";
shapes = (
{
attr = {
strokeHeight = 119;
strokeWidth = 119;
};
closed = 0;
nodes = (
(79,730,l),
(79,401,l),
(229,271,l),
(229,130,l),
(299,60,l),
(338,60,l),
(448,170,l),
(448,371,l),
(538,461,l),
(538,730,l)
);
}
);
width = 618;
},
{
associatedMasterId = m01;
layerId = "61489900-FEF1-404F-8F3E-F202D75A4016";
name = "8 Jan 25 at 16:01";
shapes = (
{
attr = {
strokeHeight = 119;
strokeWidth = 119;
};
closed = 0;
nodes = (
(79,730,l),
(79,280,l),
(304,55,l),
(313,55,l),
(538,280,l),
(538,730,l)
);
}
);
width = 618;
}
);
unicode = 86;
},
{
glyphname = W;
lastChange = "2025-01-08 20:40:41 +0000";
layers = (
{
layerId = m01;
shapes = (
{
attr = {
strokeHeight = 119;
strokeWidth = 119;
};
closed = 0;
nodes = (
(104,728,l),
(104,421,l),
(204,321,l),
(204,170,l),
(314,60,l),
(353,60,l),
(463,170,l),
(463,321,l),
(563,421,l),
(563,728,l)
);
},
{
attr = {
strokeHeight = 119;
strokeWidth = 119;
};
closed = 0;
nodes = (
(363,728,l),
(363,421,l),
(463,321,l),
(463,170,l),
(573,60,l),
(612,60,l),
(722,170,l),
(722,321,l),
(822,421,l),
(822,728,l)
);
}
);
width = 927;
},
{
associatedMasterId = m01;
layerId = "E201E8BC-CE9E-4316-8185-E3F41955CA16";
name = "6 Jan 25 at 16:08";
shapes = (
{
attr = {
strokeHeight = 119;
strokeWidth = 119;
};
closed = 0;
nodes = (
(99,728,l),
(99,170,l),
(209,60,l),
(248,60,l),
(358,170,l)
);
},
{
attr = {
strokeHeight = 119;
strokeWidth = 119;
};
closed = 0;
nodes = (
(358,728,l),
(358,170,l),
(468,60,l),
(507,60,l),
(617,170,l),
(617,728,l)
);
}
);
width = 717;
},
{
associatedMasterId = m01;
layerId = "BFC726E9-80B1-4764-8D16-401B0FA06EE4";
name = "6 Jan 25 at 15:59";
shapes = (
{
attr = {
strokeHeight = 119;
strokeWidth = 119;
};
closed = 0;
nodes = (
(176,728,l),
(176,625,l),
(259,542,l),
(259,421,l),
(159,321,l),
(159,190,l),
(289,60,l),
(328,60,l),
(438,170,l)
);
},
{
attr = {
strokeHeight = 119;
strokeWidth = 119;
};
closed = 0;
nodes = (
(438,728,l),
(438,170,l),
(548,60,l),
(587,60,l),
(697,170,l),
(697,261,l),
(597,361,l),
(597,455,l),
(670,526,l),
(670,728,l)
);
}
);
width = 877;
},
{
associatedMasterId = m01;
layerId = "84F0123F-0D05-4269-8D11-346EF9EDEE5D";
name = "6 Jan 25 at 15:46";
shapes = (
{
attr = {
strokeHeight = 119;
strokeWidth = 119;
};
closed = 0;
nodes = (
(162,728,l),
(162,585,l),
(79,502,l),
(79,381,l),
(179,281,l),
(179,170,l),
(289,60,l),
(328,60,l),
(438,170,l)
);
},
{
attr = {
strokeHeight = 119;
strokeWidth = 119;
};
closed = 0;
nodes = (
(368,728,l),
(368,391,l),
(438,321,l),
(438,170,l),
(548,60,l),
(587,60,l),
(697,170,l),
(697,261,l),
(597,361,l),
(597,455,l),
(670,526,l),
(670,728,l)
);
}
);
width = 877;
},
{
layerId = m002;
width = 600;
}
);
unicode = 87;
},
{
glyphname = X;
lastChange = "2025-01-08 20:41:37 +0000";
layers = (
{
layerId = m01;
shapes = (
{
attr = {
strokeHeight = 119;
strokeWidth = 119;
};
closed = 0;
nodes = (
(124,728,l),
(124,591,l),
(577,142,l),
(577,0,l)
);
},
{
attr = {
strokeHeight = 119;
strokeWidth = 119;
};
closed = 0;
nodes = (
(562,729,l),
(562,539,l),
(392,369,l),
(289,369,l),
(104,184,l),
(104,0,l)
);
}
);
width = 682;
},
{
associatedMasterId = m01;
layerId = "0F1D9CA7-117F-4393-8C6F-0DAB03398FEA";
name = "4 Jan 25 at 09:51";
shapes = (
{
attr = {
strokeHeight = 119;
strokeWidth = 119;
};
closed = 0;
nodes = (
(79,730,l),
(79,661,l),
(179,561,l),
(179,475,l),
(289,365,l),
(328,365,l),
(438,475,l),
(438,561,l),
(538,661,l),
(538,730,l)
);
},
{
attr = {
strokeHeight = 119;
strokeWidth = 119;
};
closed = 0;
nodes = (
(538,-1,l),
(538,68,l),
(438,168,l),
(438,255,l),
(328,365,l),
(289,365,l),
(179,255,l),
(179,168,l),
(79,68,l),
(79,-1,l)
);
}
);
width = 600;
},
{
associatedMasterId = m01;
layerId = "F73F1961-88EB-4B51-BED8-F6E2A6719795";
name = "6 Jan 25 at 16:15";
shapes = (
{
attr = {
strokeHeight = 119;
strokeWidth = 119;
};
closed = 0;
nodes = (
(79,730,l),
(79,631,l),
(219,491,l),
(219,435,l),
(289,365,l),
(328,365,l),
(478,515,l),
(478,581,l),
(538,641,l),
(538,730,l)
);
},
{
attr = {
strokeHeight = 119;
strokeWidth = 119;
};
closed = 0;
nodes = (
(538,-1,l),
(538,98,l),
(398,238,l),
(398,295,l),
(328,365,l),
(289,365,l),
(139,215,l),
(139,148,l),
(79,88,l),
(79,-1,l)
);
}
);
width = 600;
},
{
associatedMasterId = m01;
layerId = "3E5578EC-F976-4532-9FA3-1DA47977CD13";
name = "6 Jan 25 at 16:14";
shapes = (
{
attr = {
strokeHeight = 119;
strokeWidth = 119;
};
closed = 0;
nodes = (
(79,730,l),
(79,661,l),
(249,491,l),
(249,415,l),
(299,365,l),
(378,365,l),
(478,465,l),
(478,601,l),
(538,661,l),
(538,730,l)
);
},
{
attr = {
strokeHeight = 119;
strokeWidth = 119;
};
closed = 0;
nodes = (
(538,-1,l),
(538,68,l),
(368,238,l),
(368,315,l),
(318,365,l),
(239,365,l),
(139,265,l),
(139,128,l),
(79,68,l),
(79,-1,l)
);
}
);
width = 600;
},
{
associatedMasterId = m01;
layerId = "BFB8134C-6B38-4FE4-BBC5-BC2A852781C2";
name = "4 Jan 25 at 09:53";
shapes = (
{
attr = {
strokeHeight = 119;
strokeWidth = 119;
};
closed = 0;
nodes = (
(99,728,l),
(99,560,l),
(289,370,l),
(328,370,l),
(518,560,l),
(518,728,l)
);
},
{
attr = {
strokeHeight = 119;
strokeWidth = 119;
};
closed = 0;
nodes = (
(522,0,l),
(522,176,l),
(328,370,l),
(289,370,l),
(95,176,l),
(95,0,l)
);
}
);
width = 600;
},
{
associatedMasterId = m01;
layerId = "59052536-E6DE-4E49-A614-493F75457B7E";
name = "4 Jan 25 at 09:54";
shapes = (
{
attr = {
strokeHeight = 119;
strokeWidth = 119;
};
closed = 0;
nodes = (
(99,728,l),
(99,560,l),
(289,370,l),
(328,370,l),
(518,560,l),
(518,728,l)
);
},
{
attr = {
strokeHeight = 119;
strokeWidth = 119;
};
closed = 0;
nodes = (
(522,0,l),
(522,176,l),
(95,176,l),
(95,0,l)
);
}
);
width = 600;
},
{
layerId = m002;
width = 600;
}
);
unicode = 88;
},
{
glyphname = Y;
lastChange = "2025-01-08 20:42:24 +0000";
layers = (
{
layerId = m01;
shapes = (
{
attr = {
strokeHeight = 119;
strokeWidth = 119;
};
closed = 0;
nodes = (
(99,730,l),
(99,521,l),
(309,311,l),
(348,311,l),
(558,521,l),
(558,730,l)
);
},
{
attr = {
strokeHeight = 119;
strokeWidth = 119;
};
closed = 0;
nodes = (
(328,311,l),
(328,0,l)
);
}
);
width = 658;
},
{
associatedMasterId = m01;
layerId = "542FEDFD-184B-472A-98A8-F53832662074";
name = "6 Jan 25 at 16:23";
shapes = (
{
attr = {
strokeHeight = 119;
strokeWidth = 119;
};
closed = 0;
nodes = (
(79,730,l),
(79,621,l),
(179,521,l),
(179,430,l),
(289,320,l),
(328,320,l),
(438,430,l),
(438,521,l),
(538,621,l),
(538,730,l)
);
},
{
attr = {
strokeHeight = 119;
strokeWidth = 119;
};
closed = 0;
nodes = (
(308,320,l),
(308,0,l)
);
}
);
width = 600;
},
{
associatedMasterId = m01;
layerId = "68BEAEED-0184-4E26-BF21-663BAC02D364";
name = "6 Jan 25 at 16:11";
shapes = (
{
attr = {
strokeHeight = 119;
strokeWidth = 119;
};
closed = 0;
nodes = (
(79,730,l),
(79,621,l),
(179,521,l),
(179,430,l),
(289,320,l),
(328,320,l),
(438,430,l),
(438,521,l),
(538,621,l),
(538,730,l)
);
},
{
attr = {
strokeHeight = 119;
strokeWidth = 119;
};
closed = 0;
nodes = (
(328,320,l),
(245,237,l),
(245,149,l),
(309,85,l),
(309,0,l)
);
}
);
width = 600;
},
{
associatedMasterId = m01;
layerId = "1ED00D8C-6905-4CE5-BBFE-90A046A0B0F3";
name = "6 Jan 25 at 16:21";
shapes = (
{
attr = {
strokeHeight = 119;
strokeWidth = 119;
};
closed = 0;
nodes = (
(79,730,l),
(79,621,l),
(179,521,l),
(179,430,l),
(289,320,l),
(328,320,l),
(438,430,l),
(438,521,l),
(538,621,l),
(538,730,l)
);
},
{
attr = {
strokeHeight = 119;
strokeWidth = 119;
};
closed = 0;
nodes = (
(289,320,l),
(372,237,l),
(372,149,l),
(308,85,l),
(308,0,l)
);
}
);
width = 600;
},
{
layerId = m002;
width = 600;
}
);
unicode = 89;
},
{
glyphname = Z;
lastChange = "2025-01-08 20:43:15 +0000";
layers = (
{
layerId = m01;
name = Regular;
shapes = (
{
attr = {
strokeHeight = 119;
strokeWidth = 119;
};
closed = 0;
nodes = (
(70,668,l),
(554,668,l),
(554,595,l),
(104,145,l),
(104,59,l),
(630,59,l)
);
}
);
width = 665;
},
{
associatedMasterId = m01;
layerId = "256A00C6-0112-4C03-906C-7486835316F8";
name = "4 Jan 25 at 10:13";
shapes = (
{
attr = {
strokeHeight = 119;
strokeWidth = 119;
};
closed = 0;
nodes = (
(69,741,l),
(142,668,l),
(538,668,l),
(538,599,l),
(88,149,l),
(88,59,l),
(521,59,l),
(607,145,l)
);
}
);
width = 600;
},
{
associatedMasterId = m01;
layerId = "C572C05D-CCDF-4A55-805F-13E08D227B70";
name = "6 Jan 25 at 16:30";
shapes = (
{
attr = {
strokeHeight = 119;
strokeWidth = 119;
};
closed = 0;
nodes = (
(69,741,l),
(142,668,l),
(538,668,l),
(538,642,l),
(313,417,l),
(313,321,l),
(88,96,l),
(88,59,l),
(501,59,l),
(587,145,l)
);
}
);
width = 600;
},
{
associatedMasterId = m01;
layerId = "CC3AD35E-C20C-445A-8F7D-6425DB1E7F81";
name = "4 Jan 25 at 10:14";
shapes = (
{
attr = {
strokeHeight = 119;
strokeWidth = 119;
};
closed = 0;
nodes = (
(52,668,l),
(531,668,l),
(531,642,l),
(306,417,l),
(306,321,l),
(81,96,l),
(81,59,l),
(610,59,l)
);
}
);
width = 630;
},
{
associatedMasterId = m01;
layerId = "14F7447F-A9AF-4A72-BDC7-E4D1454C0F1C";
name = "6 Jan 25 at 16:27";
shapes = (
{
attr = {
strokeHeight = 119;
strokeWidth = 119;
};
closed = 0;
nodes = (
(50,548,l),
(170,668,l),
(531,668,l),
(531,622,l),
(389,480,l),
(258,480,l),
(176,397,l),
(176,301,l),
(81,206,l),
(81,59,l),
(193,59,l),
(287,153,l),
(429,153,l),
(523,59,l),
(610,59,l)
);
}
);
width = 630;
},
{
associatedMasterId = m01;
layerId = "61E2920E-BED0-4050-A063-AFC05E090471";
name = "6 Jan 25 at 16:37";
shapes = (
{
attr = {
strokeHeight = 119;
strokeWidth = 119;
};
closed = 0;
nodes = (
(60,778,l),
(170,668,l),
(531,668,l),
(531,594,l),
(81,144,l),
(81,59,l),
(233,59,l),
(327,153,l),
(429,153,l),
(523,59,l),
(610,59,l)
);
}
);
width = 630;
},
{
associatedMasterId = m01;
layerId = "A63395AC-CD13-4DBB-AD65-BE95AA609811";
name = "6 Jan 25 at 16:31";
shapes = (
{
attr = {
strokeHeight = 119;
strokeWidth = 119;
};
closed = 0;
nodes = (
(60,778,l),
(170,668,l),
(531,668,l),
(531,572,l),
(439,480,l),
(308,480,l),
(196,367,l),
(196,301,l),
(81,186,l),
(81,59,l),
(203,59,l),
(297,153,l),
(429,153,l),
(523,59,l),
(610,59,l)
);
}
);
width = 630;
},
{
associatedMasterId = m01;
layerId = "80201784-D57A-4D16-A97A-4654DC4E9652";
name = "6 Jan 25 at 16:37";
shapes = (
{
attr = {
strokeHeight = 119;
strokeWidth = 119;
};
closed = 0;
nodes = (
(90,758,l),
(180,668,l),
(531,668,l),
(531,564,l),
(449,482,l),
(300,482,l),
(81,263,l),
(81,59,l),
(203,59,l),
(297,153,l),
(429,153,l),
(523,59,l),
(610,59,l)
);
}
);
width = 630;
},
{
associatedMasterId = m01;
layerId = "6901271B-D115-4C6C-AF61-F1E8D4D66B86";
name = "6 Jan 25 at 16:24";
shapes = (
{
attr = {
strokeHeight = 119;
strokeWidth = 119;
};
closed = 0;
nodes = (
(60,668,l),
(147,668,l),
(227,588,l),
(324,588,l),
(404,668,l),
(531,668,l),
(531,514,l),
(312,295,l),
(163,295,l),
(81,213,l),
(81,59,l),
(523,59,l),
(628,164,l)
);
}
);
width = 630;
},
{
layerId = m002;
width = 600;
}
);
unicode = 90;
},
{
glyphname = a;
lastChange = "2025-01-12 21:35:10 +0000";
layers = (
{
layerId = m01;
name = Regular;
shapes = (
{
closed = 1;
nodes = (
(273,0,ls),
(275,0,o),
(278,1,o),
(280,3,cs),
(352,75,l),
(352,0,l),
(458,0,l),
(458,405,ls),
(458,407,o),
(457,410,o),
(455,412,cs),
(370,497,ls),
(368,499,o),
(365,500,o),
(363,500,cs),
(62,500,l),
(62,401,l),
(313,401,ls),
(315,401,o),
(318,400,o),
(320,398,cs),
(349,369,ls),
(351,367,o),
(352,364,o),
(352,362,cs),
(352,314,l),
(123,314,ls),
(121,314,o),
(118,313,o),
(116,311,cs),
(33,229,ls),
(31,227,o),
(30,224,o),
(30,222,cs),
(30,92,ls),
(30,90,o),
(31,87,o),
(33,85,cs),
(115,3,ls),
(117,1,o),
(120,0,o),
(122,0,cs)
);
},
{
closed = 1;
nodes = (
(139,127,ls),
(137,129,o),
(136,132,o),
(136,134,cs),
(136,179,ls),
(136,181,o),
(137,184,o),
(139,186,cs),
(165,212,ls),
(167,214,o),
(170,215,o),
(172,215,cs),
(352,215,l),
(352,214,l),
(240,102,ls),
(238,100,o),
(235,99,o),
(233,99,cs),
(171,99,ls),
(169,99,o),
(166,100,o),
(164,102,cs)
);
}
);
width = 504;
},
{
associatedMasterId = m01;
layerId = "D0AA2DBB-30C4-4E29-B111-98583C8A326B";
name = "1 Jan 25 at 19:03";
shapes = (
{
attr = {
strokeHeight = 100;
strokeWidth = 100;
};
closed = 1;
nodes = (
(316,51,l),
(415,150,l),
(415,268,l),
(150,268,l),
(90,208,l),
(90,111,l),
(150,51,l)
);
},
{
attr = {
strokeHeight = 100;
strokeWidth = 100;
};
closed = 0;
nodes = (
(415,0,l),
(415,390,l),
(355,450,l),
(76,450,l)
);
}
);
width = 505;
},
{
associatedMasterId = m01;
layerId = "7B65F081-E0DA-4E61-B622-8E28CACC93F0";
name = "1 Jan 25 at 19:51";
shapes = (
{
attr = {
strokeHeight = 100;
strokeWidth = 100;
};
closed = 1;
nodes = (
(382,51,l),
(511,180,l),
(511,264,l),
(236,264,l),
(176,204,l),
(176,111,l),
(236,51,l)
);
},
{
attr = {
strokeHeight = 100;
strokeWidth = 100;
};
closed = 0;
nodes = (
(511,0,l),
(511,388,l),
(449,450,l),
(172,450,l)
);
}
);
width = 600;
},
{
associatedMasterId = m01;
layerId = "4AB2F21F-C364-42DC-953C-A5FA724D2027";
name = "1 Jan 25 at 19:47";
shapes = (
{
closed = 1;
nodes = (
(140,131.711,l),
(140,187,l),
(171,218,l),
(365,218,l),
(394,156,l),
(330,156,l),
(275,101,l),
(170.711,101,l)
);
},
{
closed = 1;
nodes = (
(317,1,l),
(372,56,l),
(465,56,l),
(465,318,l),
(129,318,l),
(40,229,l),
(40,90.289,l),
(129.289,1,l)
);
},
{
closed = 1;
nodes = (
(334.289,400,l),
(365,369.289,l),
(365,76,l),
(450,-9,l),
(465,-9,l),
(465,410.711,l),
(375.711,500,l),
(61,500,l),
(61,485,l),
(146,400,l)
);
}
);
width = 505;
},
{
associatedMasterId = m01;
layerId = "B761F926-BE06-4064-95EE-05F443563152";
name = "1 Jan 25 at 19:49";
shapes = (
{
closed = 1;
nodes = (
(140,131.711,l),
(140,187,l),
(171,218,l),
(365,218,l),
(365,191,l),
(275,101,l),
(170.711,101,l)
);
},
{
closed = 1;
nodes = (
(317,1,l),
(465,149,l),
(465,318,l),
(129,318,l),
(40,229,l),
(40,90.289,l),
(129.289,1,l)
);
},
{
closed = 1;
nodes = (
(334.289,400,l),
(365,369.289,l),
(365,76,l),
(450,-9,l),
(465,-9,l),
(465,410.711,l),
(375.711,500,l),
(61,500,l),
(61,485,l),
(146,400,l)
);
}
);
width = 505;
},
{
associatedMasterId = m01;
layerId = "CD6D72AF-1684-4888-811A-BE653D932A24";
name = "1 Jan 25 at 20:00";
shapes = (
{
attr = {
strokeHeight = 100;
strokeWidth = 100;
};
closed = 1;
nodes = (
(382,51,l),
(435,104,l),
(511,104,l),
(511,264,l),
(236,264,l),
(176,204,l),
(176,111,l),
(236,51,l)
);
},
{
attr = {
strokeHeight = 100;
strokeWidth = 100;
};
closed = 0;
nodes = (
(511,0,l),
(511,388,l),
(449,450,l),
(172,450,l)
);
}
);
width = 600;
},
{
associatedMasterId = m01;
layerId = "77E47114-F779-45C7-A181-3B7A8C0E0E29";
name = "1 Jan 25 at 20:05";
shapes = (
{
closed = 0;
nodes = (
(475,0,l),
(475,405,ls),
(475,407,o),
(474,409,o),
(472,411,cs),
(386,497,ls),
(384,499,o),
(382,500,o),
(380,500,cs),
(86,500,l)
);
},
{
closed = 0;
nodes = (
(475,314,l),
(133,314,ls),
(131,314,o),
(129,313,o),
(127,311,cs),
(43,227,ls),
(41,225,o),
(40,223,o),
(40,221,cs),
(40,94,ls),
(40,92,o),
(41,90,o),
(43,88,cs),
(127,4,ls),
(129,2,o),
(131,1,o),
(133,1,cs),
(300,1,ls),
(302,1,o),
(304,2,o),
(306,4,cs),
(475,172,l)
);
},
{
closed = 0;
nodes = (
(375,214,l),
(265,104,ls),
(263,102,o),
(261,101,o),
(259,101,cs),
(174,101,ls),
(172,101,o),
(170,102,o),
(168,104,cs),
(143,129,ls),
(141,131,o),
(140,133,o),
(140,135,cs),
(140,180,ls),
(140,182,o),
(141,184,o),
(143,186,cs),
(168,211,ls),
(170,213,o),
(172,214,o),
(174,214,cs),
(375,214,l)
);
},
{
closed = 0;
nodes = (
(425,264,l),
(154,264,ls),
(152,264,o),
(149,263,o),
(147,261,cs),
(93,207,ls),
(91,205,o),
(90,202,o),
(90,200,cs),
(90,115,ls),
(90,113,o),
(91,110,o),
(93,108,cs),
(147,54,ls),
(149,52,o),
(152,51,o),
(154,51,cs),
(279,51,ls),
(281,51,o),
(284,52,o),
(286,54,cs),
(425,193,l)
);
},
{
closed = 0;
nodes = (
(450,289,l),
(144,289,ls),
(142,289,o),
(139,288,o),
(137,286,cs),
(68,217,ls),
(66,215,o),
(65,212,o),
(65,210,cs),
(65,105,ls),
(65,103,o),
(66,100,o),
(68,98,cs),
(137,29,ls),
(139,27,o),
(142,26,o),
(144,26,cs),
(289,26,ls),
(291,26,o),
(294,27,o),
(296,29,cs),
(450,183,l)
);
},
{
closed = 0;
nodes = (
(400,204,l),
(276,79,ls),
(274,77,o),
(271,76,o),
(269,76,cs),
(164,76,ls),
(162,76,o),
(159,77,o),
(157,79,cs),
(118,118,ls),
(116,120,o),
(115,123,o),
(115,125,cs),
(115,190,ls),
(115,192,o),
(116,195,o),
(118,197,cs),
(157,236,ls),
(159,238,o),
(162,239,o),
(164,239,cs),
(400,239,l)
);
},
{
closed = 0;
nodes = (
(463,302,l),
(139,302,ls),
(137,302,o),
(134,301,o),
(132,299,cs),
(56,222,ls),
(54,220,o),
(53,217,o),
(53,215,cs),
(53,100,ls),
(53,98,o),
(54,95,o),
(56,93,cs),
(132,17,ls),
(134,15,o),
(137,14,o),
(139,14,cs),
(294,14,ls),
(296,14,o),
(299,15,o),
(301,17,cs),
(463,178,l)
);
},
{
closed = 0;
nodes = (
(438,277,l),
(149,277,ls),
(147,277,o),
(144,276,o),
(142,274,cs),
(81,212,ls),
(79,210,o),
(78,207,o),
(78,205,cs),
(78,110,ls),
(78,108,o),
(79,105,o),
(81,103,cs),
(142,42,ls),
(144,40,o),
(147,39,o),
(149,39,cs),
(284,39,ls),
(286,39,o),
(289,40,o),
(291,42,cs),
(438,188,l)
);
},
{
closed = 0;
nodes = (
(413,252,l),
(159,252,ls),
(157,252,o),
(154,251,o),
(152,249,cs),
(106,202,ls),
(104,200,o),
(103,197,o),
(103,195,cs),
(103,120,ls),
(103,118,o),
(104,115,o),
(106,113,cs),
(152,67,ls),
(154,65,o),
(157,64,o),
(159,64,cs),
(274,64,ls),
(276,64,o),
(279,65,o),
(281,67,cs),
(413,199,l)
);
},
{
closed = 0;
nodes = (
(388,209,l),
(271,92,ls),
(269,90,o),
(266,89,o),
(264,89,cs),
(169,89,ls),
(167,89,o),
(164,90,o),
(162,92,cs),
(131,123,ls),
(129,125,o),
(128,128,o),
(128,130,cs),
(128,185,ls),
(128,187,o),
(129,190,o),
(131,192,cs),
(162,224,ls),
(164,226,o),
(167,227,o),
(169,227,cs),
(388,227,l)
);
},
{
closed = 0;
nodes = (
(86,400,l),
(339,400,ls),
(341,400,o),
(343,399,o),
(345,397,cs),
(372,370,ls),
(374,368,o),
(375,366,o),
(375,364,cs),
(375,0,l)
);
},
{
closed = 0;
nodes = (
(425,0,l),
(425,384,ls),
(425,386,o),
(424,389,o),
(422,391,cs),
(366,447,ls),
(364,449,o),
(361,450,o),
(359,450,cs),
(86,450,l)
);
},
{
closed = 0;
nodes = (
(450,0,l),
(450,394,ls),
(450,396,o),
(449,399,o),
(447,401,cs),
(376,472,ls),
(374,474,o),
(371,475,o),
(369,475,cs),
(86,475,l)
);
},
{
closed = 0;
nodes = (
(463,0,l),
(463,399,ls),
(463,401,o),
(462,404,o),
(460,406,cs),
(381,485,ls),
(379,487,o),
(376,488,o),
(374,488,cs),
(86,488,l)
);
},
{
closed = 0;
nodes = (
(438,0,l),
(438,389,ls),
(438,391,o),
(437,394,o),
(435,396,cs),
(371,460,ls),
(369,462,o),
(366,463,o),
(364,463,cs),
(86,463,l)
);
},
{
closed = 0;
nodes = (
(86,425,l),
(349,425,ls),
(351,425,o),
(354,424,o),
(356,422,cs),
(397,381,ls),
(399,379,o),
(400,376,o),
(400,374,cs),
(400,0,l)
);
},
{
closed = 0;
nodes = (
(86,413,l),
(344,413,ls),
(346,413,o),
(349,412,o),
(351,410,cs),
(385,376,ls),
(387,374,o),
(388,371,o),
(388,369,cs),
(388,0,l)
);
},
{
closed = 0;
nodes = (
(413,0,l),
(413,379,ls),
(413,381,o),
(412,384,o),
(410,386,cs),
(361,435,ls),
(359,437,o),
(356,438,o),
(354,438,cs),
(86,438,l)
);
}
);
width = 515;
},
{
associatedMasterId = m01;
layerId = "B6BA1E2D-5E0F-4373-823D-690E095D9C43";
name = "2 Jan 25 at 11:55";
shapes = (
{
attr = {
strokeHeight = 104;
strokeWidth = 104;
};
closed = 1;
nodes = (
(327,52,l),
(425,150,l),
(425,166,l),
(327,264,l),
(150,264,l),
(90,204,l),
(90,112,l),
(150,52,l)
);
},
{
attr = {
strokeHeight = 104;
strokeWidth = 104;
};
closed = 0;
nodes = (
(425,0,l),
(425,386,l),
(363,448,l),
(86,448,l)
);
}
);
width = 515;
},
{
associatedMasterId = m01;
layerId = "2955A247-9FBA-454B-B2CD-0E700C15DA20";
name = "2 Jan 25 at 11:56";
shapes = (
{
closed = 0;
nodes = (
(480,0,l),
(480,160,l)
);
},
{
closed = 0;
nodes = (
(363,303,l),
(140,303,ls),
(138,303,o),
(135,302,o),
(133,300,cs),
(56,222,ls),
(54,220,o),
(53,217,o),
(53,215,cs),
(53,100,ls),
(53,98,o),
(54,95,o),
(56,93,cs),
(133,16,ls),
(135,14,o),
(138,13,o),
(140,13,cs),
(296,13,ls),
(298,13,o),
(301,14,o),
(303,16,cs),
(464,174,ls),
(466,176,o),
(467,179,o),
(467,181,cs),
(467,399,ls),
(467,401,o),
(466,404,o),
(464,406,cs),
(385,485,ls),
(383,487,o),
(380,488,o),
(378,488,cs),
(89,488,l)
);
},
{
closed = 0;
nodes = (
(89,400,l),
(340,400,ls),
(342,400,o),
(344,399,o),
(346,397,cs),
(373,370,ls),
(375,368,o),
(376,366,o),
(376,364,cs),
(376,216,ls),
(376,214,o),
(375,211,o),
(373,209,cs),
(267,107,ls),
(265,105,o),
(263,104,o),
(261,104,cs),
(175,104,ls),
(173,104,o),
(171,105,o),
(169,107,cs),
(147,129,ls),
(145,131,o),
(144,133,o),
(144,135,cs),
(144,181,ls),
(144,183,o),
(145,185,o),
(147,187,cs),
(169,209,ls),
(171,211,o),
(173,212,o),
(175,212,cs),
(363,212,l)
);
},
{
closed = 0;
nodes = (
(428,0,l),
(428,108,l)
);
},
{
closed = 0;
nodes = (
(454,0,l),
(454,134,l)
);
},
{
closed = 0;
nodes = (
(467,0,l),
(467,147,l)
);
},
{
closed = 0;
nodes = (
(441,0,l),
(441,121,l)
);
},
{
closed = 0;
nodes = (
(89,425,l),
(351,425,ls),
(353,425,o),
(356,424,o),
(358,422,cs),
(399,381,ls),
(401,379,o),
(402,376,o),
(402,374,cs),
(402,206,ls),
(402,204,o),
(401,201,o),
(399,199,cs),
(278,81,ls),
(276,79,o),
(273,78,o),
(271,78,cs),
(165,78,ls),
(163,78,o),
(160,79,o),
(158,81,cs),
(121,118,ls),
(119,120,o),
(118,123,o),
(118,125,cs),
(118,190,ls),
(118,192,o),
(119,195,o),
(121,197,cs),
(158,235,ls),
(160,237,o),
(163,238,o),
(165,238,cs),
(363,238,l)
);
},
{
closed = 0;
nodes = (
(89,413,l),
(345,413,ls),
(347,413,o),
(350,412,o),
(352,410,cs),
(386,376,ls),
(388,374,o),
(389,371,o),
(389,369,cs),
(389,211,ls),
(389,209,o),
(388,206,o),
(386,204,cs),
(273,94,ls),
(271,92,o),
(268,91,o),
(266,91,cs),
(170,91,ls),
(168,91,o),
(165,92,o),
(163,94,cs),
(134,123,ls),
(132,125,o),
(131,128,o),
(131,130,cs),
(131,185,ls),
(131,187,o),
(132,190,o),
(134,192,cs),
(163,222,ls),
(165,224,o),
(168,225,o),
(170,225,cs),
(363,225,l)
);
},
{
closed = 0;
nodes = (
(415,0,l),
(415,95,l)
);
},
{
closed = 0;
nodes = (
(376,56,l),
(376,0,l)
);
},
{
closed = 0;
nodes = (
(389,69,l),
(389,0,l)
);
},
{
closed = 0;
nodes = (
(402,82,l),
(402,0,l)
);
},
{
closed = 0;
nodes = (
(363,316,l),
(134,316,ls),
(132,316,o),
(130,315,o),
(128,313,cs),
(43,227,ls),
(41,225,o),
(40,223,o),
(40,221,cs),
(40,94,ls),
(40,92,o),
(41,90,o),
(43,88,cs),
(128,3,ls),
(130,1,o),
(132,0,o),
(134,0,cs),
(302,0,ls),
(304,0,o),
(306,1,o),
(308,3,cs),
(477,169,ls),
(479,171,o),
(480,174,o),
(480,176,cs),
(480,405,ls),
(480,407,o),
(479,409,o),
(477,411,cs),
(391,497,ls),
(389,499,o),
(387,500,o),
(385,500,cs),
(89,500,l)
);
},
{
closed = 0;
nodes = (
(363,290,l),
(145,290,ls),
(143,290,o),
(140,289,o),
(138,287,cs),
(69,217,ls),
(67,215,o),
(66,212,o),
(66,210,cs),
(66,105,ls),
(66,103,o),
(67,100,o),
(69,98,cs),
(138,29,ls),
(140,27,o),
(143,26,o),
(145,26,cs),
(291,26,ls),
(293,26,o),
(296,27,o),
(298,29,cs),
(451,179,ls),
(453,181,o),
(454,184,o),
(454,186,cs),
(454,394,ls),
(454,396,o),
(453,399,o),
(451,401,cs),
(380,472,ls),
(378,474,o),
(375,475,o),
(373,475,cs),
(89,475,l)
);
},
{
closed = 0;
nodes = (
(363,277,l),
(150,277,ls),
(148,277,o),
(145,276,o),
(143,274,cs),
(82,212,ls),
(80,210,o),
(79,207,o),
(79,205,cs),
(79,110,ls),
(79,108,o),
(80,105,o),
(82,103,cs),
(143,42,ls),
(145,40,o),
(148,39,o),
(150,39,cs),
(286,39,ls),
(288,39,o),
(291,40,o),
(293,42,cs),
(438,184,ls),
(440,186,o),
(441,189,o),
(441,191,cs),
(441,389,ls),
(441,391,o),
(440,394,o),
(438,396,cs),
(374,460,ls),
(372,462,o),
(369,463,o),
(367,463,cs),
(89,463,l)
);
},
{
closed = 0;
nodes = (
(363,251,l),
(160,251,ls),
(158,251,o),
(155,250,o),
(153,248,cs),
(108,202,ls),
(106,200,o),
(105,197,o),
(105,195,cs),
(105,120,ls),
(105,118,o),
(106,115,o),
(108,113,cs),
(153,68,ls),
(155,66,o),
(158,65,o),
(160,65,cs),
(276,65,ls),
(278,65,o),
(281,66,o),
(283,68,cs),
(412,194,ls),
(414,196,o),
(415,199,o),
(415,201,cs),
(415,379,ls),
(415,381,o),
(414,384,o),
(412,386,cs),
(363,435,ls),
(361,437,o),
(358,438,o),
(356,438,cs),
(89,438,l)
);
},
{
closed = 0;
nodes = (
(363,264,l),
(155,264,ls),
(153,264,o),
(150,263,o),
(148,261,cs),
(95,207,ls),
(93,205,o),
(92,202,o),
(92,200,cs),
(92,115,ls),
(92,113,o),
(93,110,o),
(95,108,cs),
(148,55,ls),
(150,53,o),
(153,52,o),
(155,52,cs),
(281,52,ls),
(283,52,o),
(286,53,o),
(288,55,cs),
(425,189,ls),
(427,191,o),
(428,194,o),
(428,196,cs),
(428,384,ls),
(428,386,o),
(427,389,o),
(425,391,cs),
(369,447,ls),
(367,449,o),
(364,450,o),
(362,450,cs),
(89,450,l)
);
}
);
width = 520;
},
{
associatedMasterId = m01;
layerId = "6F801949-121B-4347-9937-ED00C227DE8A";
name = "2 Jan 25 at 12:47";
shapes = (
{
closed = 0;
nodes = (
(335,182,l),
(237,84,l),
(180,84,l),
(142,122,l),
(142,182,l),
(180,220,l),
(315,220,l),
(373,155,l),
(373,78,l)
);
},
{
closed = 0;
nodes = (
(86,416,l),
(333,416,l),
(373,376,l),
(373,304,l)
);
},
{
closed = 0;
nodes = (
(360,135,l),
(261,36,l),
(154,36,l),
(90,100,l),
(90,204,l),
(154,268,l),
(339,268,l),
(425,179,l),
(425,26,l)
);
},
{
closed = 0;
nodes = (
(352,163,l),
(249,60,l),
(167,60,l),
(116,111,l),
(116,193,l),
(167,244,l),
(327,244,l),
(399,167,l),
(399,52,l)
);
},
{
closed = 0;
nodes = (
(360,117,l),
(267,24,l),
(148,24,l),
(77,95,l),
(77,210,l),
(148,280,l),
(345,280,l),
(438,185,l),
(438,13,l)
);
},
{
closed = 0;
nodes = (
(343,172,l),
(243,72,l),
(174,72,l),
(129,117,l),
(129,188,l),
(174,232,l),
(321,232,l),
(386,161,l),
(386,65,l)
);
},
{
closed = 0;
nodes = (
(425,252,l),
(425,398,l),
(359,464,l),
(86,464,l)
);
},
{
closed = 0;
nodes = (
(86,440,l),
(346,440,l),
(399,387,l),
(399,278,l)
);
},
{
closed = 0;
nodes = (
(451,226,l),
(451,409,l),
(372,488,l),
(86,488,l)
);
},
{
closed = 0;
nodes = (
(86,428,l),
(340,428,l),
(386,382,l),
(386,291,l)
);
},
{
closed = 0;
nodes = (
(412,265,l),
(412,393,l),
(353,452,l),
(86,452,l)
);
},
{
closed = 0;
nodes = (
(438,239,l),
(438,404,l),
(366,476,l),
(86,476,l)
);
},
{
closed = 0;
nodes = (
(464,213,l),
(464,415,l),
(379,500,l),
(86,500,l)
);
},
{
closed = 0;
nodes = (
(451,0,l),
(451,191,l),
(351,292,l),
(141,292,l),
(64,215,l),
(64,89,l),
(141,12,l),
(273,12,l),
(360,99,l)
);
},
{
closed = 0;
nodes = (
(412,39,l),
(412,173,l),
(333,256,l),
(161,256,l),
(103,199,l),
(103,106,l),
(161,48,l),
(255,48,l),
(360,153,l)
);
},
{
closed = 0;
nodes = (
(464,0,l),
(464,197,l),
(357,304,l),
(135,304,l),
(51,221,l),
(51,84,l),
(135,0,l),
(279,0,l),
(360,81,l)
);
}
);
width = 515;
},
{
associatedMasterId = m01;
layerId = "BE45908C-11D7-41BC-9746-9F9B4408A4A4";
name = "2 Jan 25 at 12:49";
shapes = (
{
attr = {
strokeHeight = 104;
strokeWidth = 104;
};
closed = 1;
nodes = (
(287,52,l),
(425,190,l),
(425,264,l),
(160,264,l),
(100,204,l),
(100,112,l),
(160,52,l)
);
},
{
attr = {
strokeHeight = 104;
strokeWidth = 104;
};
closed = 0;
nodes = (
(425,0,l),
(425,386,l),
(363,448,l),
(96,448,l)
);
}
);
width = 515;
},
{
associatedMasterId = m01;
layerId = "4D91AB8A-1C92-40DE-9DEB-8E25A1375618";
name = "2 Jan 25 at 13:24";
shapes = (
{
closed = 0;
nodes = (
(86,416,l),
(327,416,ls),
(332,416,o),
(336,414,o),
(339,411,cs),
(368,382,ls),
(371,379,o),
(373,375,o),
(373,370,cs),
(373,0,l)
);
},
{
closed = 0;
nodes = (
(373,220,l),
(241,88,ls),
(238,85,o),
(234,83,o),
(229,83,cs),
(186,83,ls),
(181,83,o),
(177,85,o),
(174,88,cs),
(147,115,ls),
(144,118,o),
(142,122,o),
(142,127,cs),
(142,176,ls),
(142,181,o),
(144,185,o),
(147,188,cs),
(174,215,ls),
(177,218,o),
(181,220,o),
(186,220,cs),
(373,220,l)
);
},
{
closed = 0;
nodes = (
(425,268,l),
(161,268,ls),
(156,268,o),
(152,266,o),
(149,263,cs),
(95,210,ls),
(92,207,o),
(90,203,o),
(90,198,cs),
(90,106,ls),
(90,101,o),
(92,97,o),
(95,94,cs),
(149,40,ls),
(152,37,o),
(156,35,o),
(161,35,cs),
(255,35,ls),
(260,35,o),
(264,37,o),
(267,40,cs),
(425,199,l)
);
},
{
closed = 0;
nodes = (
(86,464,l),
(353,464,ls),
(358,464,o),
(362,462,o),
(365,459,cs),
(420,404,ls),
(423,401,o),
(425,397,o),
(425,392,cs),
(425,0,l)
);
},
{
closed = 0;
nodes = (
(86,488,l),
(366,488,ls),
(371,488,o),
(375,486,o),
(378,483,cs),
(446,415,ls),
(449,412,o),
(451,408,o),
(451,403,cs),
(451,0,l)
);
},
{
closed = 0;
nodes = (
(86,440,l),
(340,440,ls),
(345,440,o),
(349,438,o),
(352,435,cs),
(394,393,ls),
(397,390,o),
(399,386,o),
(399,381,cs),
(399,0,l)
);
},
{
closed = 0;
nodes = (
(86,428,l),
(334,428,ls),
(339,428,o),
(343,426,o),
(346,423,cs),
(381,388,ls),
(384,385,o),
(386,381,o),
(386,376,cs),
(386,0,l)
);
},
{
closed = 0;
nodes = (
(86,452,l),
(347,452,ls),
(352,452,o),
(356,450,o),
(359,447,cs),
(407,399,ls),
(410,396,o),
(412,392,o),
(412,387,cs),
(412,0,l)
);
},
{
closed = 0;
nodes = (
(86,476,l),
(360,476,ls),
(365,476,o),
(369,474,o),
(372,471,cs),
(433,410,ls),
(436,407,o),
(438,403,o),
(438,398,cs),
(438,0,l)
);
},
{
closed = 0;
nodes = (
(86,500,l),
(372,500,ls),
(377,500,o),
(381,498,o),
(384,495,cs),
(459,420,ls),
(462,417,o),
(464,413,o),
(464,408,cs),
(464,0,l)
);
},
{
closed = 0;
nodes = (
(451,292,l),
(148,292,ls),
(143,292,o),
(139,290,o),
(136,287,cs),
(69,221,ls),
(66,218,o),
(64,214,o),
(64,209,cs),
(64,95,ls),
(64,90,o),
(66,86,o),
(69,83,cs),
(136,16,ls),
(139,13,o),
(143,11,o),
(148,11,cs),
(268,11,ls),
(273,11,o),
(277,13,o),
(280,16,cs),
(451,188,l)
);
},
{
closed = 0;
nodes = (
(464,304,l),
(142,304,ls),
(137,304,o),
(133,302,o),
(130,299,cs),
(56,226,ls),
(53,223,o),
(51,219,o),
(51,214,cs),
(51,90,ls),
(51,85,o),
(53,81,o),
(56,78,cs),
(130,4,ls),
(133,1,o),
(137,-1,o),
(142,-1,cs),
(274,-1,ls),
(279,-1,o),
(283,1,o),
(286,4,cs),
(464,183,l)
);
},
{
closed = 0;
nodes = (
(438,280,l),
(155,280,ls),
(150,280,o),
(146,278,o),
(143,275,cs),
(82,216,ls),
(79,213,o),
(77,209,o),
(77,204,cs),
(77,101,ls),
(77,96,o),
(79,92,o),
(82,89,cs),
(143,28,ls),
(146,25,o),
(150,23,o),
(155,23,cs),
(262,23,ls),
(267,23,o),
(271,25,o),
(274,28,cs),
(438,194,l)
);
},
{
closed = 0;
nodes = (
(399,210,l),
(254,64,ls),
(251,61,o),
(247,59,o),
(242,59,cs),
(174,59,ls),
(169,59,o),
(165,61,o),
(162,64,cs),
(121,105,ls),
(118,108,o),
(116,112,o),
(116,117,cs),
(116,187,ls),
(116,192,o),
(118,196,o),
(121,199,cs),
(162,239,ls),
(165,242,o),
(169,244,o),
(174,244,cs),
(399,244,l)
);
},
{
closed = 0;
nodes = (
(412,256,l),
(168,256,ls),
(163,256,o),
(159,254,o),
(156,251,cs),
(108,205,ls),
(105,202,o),
(103,198,o),
(103,193,cs),
(103,112,ls),
(103,107,o),
(105,103,o),
(108,100,cs),
(156,52,ls),
(159,49,o),
(163,47,o),
(168,47,cs),
(249,47,ls),
(254,47,o),
(258,49,o),
(261,52,cs),
(412,205,l)
);
},
{
closed = 0;
nodes = (
(386,215,l),
(248,76,ls),
(245,73,o),
(241,71,o),
(236,71,cs),
(180,71,ls),
(175,71,o),
(171,73,o),
(168,76,cs),
(134,110,ls),
(131,113,o),
(129,117,o),
(129,122,cs),
(129,182,ls),
(129,187,o),
(131,191,o),
(134,194,cs),
(168,227,ls),
(171,230,o),
(175,232,o),
(180,232,cs),
(386,232,l)
);
}
);
width = 515;
},
{
associatedMasterId = m01;
layerId = "BD896F2C-B1E7-4AE4-A8DF-3552C8547E2F";
name = "2 Jan 25 at 13:40";
shapes = (
{
closed = 1;
nodes = (
(275,0,ls),
(280,0,o),
(284,2,o),
(287,5,cs),
(464,183,l),
(464,408,ls),
(464,413,o),
(462,417,o),
(459,420,cs),
(384,495,ls),
(381,498,o),
(377,500,o),
(372,500,cs),
(86,500,l),
(86,416,l),
(327,416,ls),
(332,416,o),
(336,414,o),
(339,411,cs),
(368,382,ls),
(371,379,o),
(373,375,o),
(373,370,cs),
(373,220,l),
(242,89,ls),
(239,86,o),
(235,84,o),
(230,84,cs),
(186,84,ls),
(181,84,o),
(177,86,o),
(174,89,cs),
(147,116,ls),
(144,119,o),
(142,123,o),
(142,128,cs),
(142,176,ls),
(142,181,o),
(144,185,o),
(147,188,cs),
(174,215,ls),
(177,218,o),
(181,220,o),
(186,220,cs),
(382,220,l),
(382,304,l),
(142,304,ls),
(137,304,o),
(133,302,o),
(130,299,cs),
(56,226,ls),
(53,223,o),
(51,219,o),
(51,214,cs),
(51,91,ls),
(51,86,o),
(53,82,o),
(56,79,cs),
(130,5,ls),
(133,2,o),
(137,0,o),
(142,0,cs)
);
},
{
closed = 1;
nodes = (
(464,0,l),
(464,208,l),
(373,117,l),
(373,0,l)
);
}
);
width = 515;
},
{
associatedMasterId = m01;
layerId = "2412FB18-571B-4686-9F76-3F4B2E7F8AE6";
name = "2 Jan 25 at 15:08";
shapes = (
{
closed = 0;
nodes = (
(76,416,l),
(327,416,ls),
(332,416,o),
(336,414,o),
(339,411,cs),
(368,382,ls),
(371,379,o),
(373,375,o),
(373,370,cs),
(373,220,l),
(242,89,ls),
(239,86,o),
(235,84,o),
(230,84,cs),
(186,84,ls),
(181,84,o),
(177,86,o),
(174,89,cs),
(147,116,ls),
(144,119,o),
(142,123,o),
(142,128,cs),
(142,176,ls),
(142,181,o),
(144,185,o),
(147,188,cs),
(174,215,ls),
(177,218,o),
(181,220,o),
(186,220,cs),
(362,220,l)
);
},
{
closed = 0;
nodes = (
(76,464,l),
(353,464,ls),
(358,464,o),
(362,462,o),
(365,459,cs),
(420,404,ls),
(423,401,o),
(425,397,o),
(425,392,cs),
(425,199,l),
(268,41,ls),
(265,38,o),
(261,36,o),
(256,36,cs),
(161,36,ls),
(156,36,o),
(152,38,o),
(149,41,cs),
(95,95,ls),
(92,98,o),
(90,102,o),
(90,107,cs),
(90,198,ls),
(90,203,o),
(92,207,o),
(95,210,cs),
(149,263,ls),
(152,266,o),
(156,268,o),
(161,268,cs),
(362,268,l)
);
},
{
closed = 0;
nodes = (
(76,488,l),
(366,488,ls),
(371,488,o),
(375,486,o),
(378,483,cs),
(446,415,ls),
(449,412,o),
(451,408,o),
(451,403,cs),
(451,188,l),
(281,17,ls),
(278,14,o),
(274,12,o),
(269,12,cs),
(148,12,ls),
(143,12,o),
(139,14,o),
(136,17,cs),
(69,84,ls),
(66,87,o),
(64,91,o),
(64,96,cs),
(64,209,ls),
(64,214,o),
(66,218,o),
(69,221,cs),
(136,287,ls),
(139,290,o),
(143,292,o),
(148,292,cs),
(362,292,l)
);
},
{
closed = 0;
nodes = (
(76,440,l),
(340,440,ls),
(345,440,o),
(349,438,o),
(352,435,cs),
(394,393,ls),
(397,390,o),
(399,386,o),
(399,381,cs),
(399,210,l),
(255,65,ls),
(252,62,o),
(248,60,o),
(243,60,cs),
(174,60,ls),
(169,60,o),
(165,62,o),
(162,65,cs),
(121,106,ls),
(118,109,o),
(116,113,o),
(116,118,cs),
(116,187,ls),
(116,192,o),
(118,196,o),
(121,199,cs),
(162,239,ls),
(165,242,o),
(169,244,o),
(174,244,cs),
(362,244,l)
);
},
{
closed = 0;
nodes = (
(76,428,l),
(334,428,ls),
(339,428,o),
(343,426,o),
(346,423,cs),
(381,388,ls),
(384,385,o),
(386,381,o),
(386,376,cs),
(386,215,l),
(249,77,ls),
(246,74,o),
(242,72,o),
(237,72,cs),
(180,72,ls),
(175,72,o),
(171,74,o),
(168,77,cs),
(134,111,ls),
(131,114,o),
(129,118,o),
(129,123,cs),
(129,182,ls),
(129,187,o),
(131,191,o),
(134,194,cs),
(168,227,ls),
(171,230,o),
(175,232,o),
(180,232,cs),
(362,232,l)
);
},
{
closed = 0;
nodes = (
(76,452,l),
(347,452,ls),
(352,452,o),
(356,450,o),
(359,447,cs),
(407,399,ls),
(410,396,o),
(412,392,o),
(412,387,cs),
(412,205,l),
(262,53,ls),
(259,50,o),
(255,48,o),
(250,48,cs),
(168,48,ls),
(163,48,o),
(159,50,o),
(156,53,cs),
(108,101,ls),
(105,104,o),
(103,108,o),
(103,113,cs),
(103,193,ls),
(103,198,o),
(105,202,o),
(108,205,cs),
(156,251,ls),
(159,254,o),
(163,256,o),
(168,256,cs),
(362,256,l)
);
},
{
closed = 0;
nodes = (
(76,476,l),
(360,476,ls),
(365,476,o),
(369,474,o),
(372,471,cs),
(433,410,ls),
(436,407,o),
(438,403,o),
(438,398,cs),
(438,194,l),
(275,29,ls),
(272,26,o),
(268,24,o),
(263,24,cs),
(155,24,ls),
(150,24,o),
(146,26,o),
(143,29,cs),
(82,90,ls),
(79,93,o),
(77,97,o),
(77,102,cs),
(77,204,ls),
(77,209,o),
(79,213,o),
(82,216,cs),
(143,275,ls),
(146,278,o),
(150,280,o),
(155,280,cs),
(362,280,l)
);
},
{
closed = 0;
nodes = (
(76,500,l),
(372,500,ls),
(377,500,o),
(381,498,o),
(384,495,cs),
(459,420,ls),
(462,417,o),
(464,413,o),
(464,408,cs),
(464,183,l),
(287,5,ls),
(284,2,o),
(280,0,o),
(275,0,cs),
(142,0,ls),
(137,0,o),
(133,2,o),
(130,5,cs),
(56,79,ls),
(53,82,o),
(51,86,o),
(51,91,cs),
(51,214,ls),
(51,219,o),
(53,223,o),
(56,226,cs),
(130,299,ls),
(133,302,o),
(137,304,o),
(142,304,cs),
(362,304,l)
);
},
{
closed = 0;
nodes = (
(386,90,l),
(386,0,l)
);
},
{
closed = 0;
nodes = (
(373,77,l),
(373,0,l)
);
},
{
closed = 0;
nodes = (
(412,116,l),
(412,0,l)
);
},
{
closed = 0;
nodes = (
(399,103,l),
(399,0,l)
);
},
{
closed = 0;
nodes = (
(438,142,l),
(438,0,l)
);
},
{
closed = 0;
nodes = (
(425,129,l),
(425,0,l)
);
},
{
closed = 0;
nodes = (
(464,168,l),
(464,0,l)
);
},
{
closed = 0;
nodes = (
(451,155,l),
(451,0,l)
);
}
);
width = 515;
},
{
associatedMasterId = m01;
layerId = "E54C6D17-FE65-4C07-9320-B3BF67466CF7";
name = "3 Jan 25 at 11:50";
shapes = (
{
attr = {
strokeHeight = 15;
strokeWidth = 15;
};
closed = 0;
nodes = (
(76,408,l),
(327,408,ls),
(332,408,o),
(336,406,o),
(339,403,cs),
(368,374,ls),
(371,371,o),
(373,367,o),
(373,362,cs),
(373,211,l),
(258,96,ls),
(255,93,o),
(251,91,o),
(246,91,cs),
(186,91,ls),
(181,91,o),
(177,93,o),
(174,96,cs),
(147,123,ls),
(144,126,o),
(142,130,o),
(142,135,cs),
(142,178,ls),
(142,183,o),
(144,187,o),
(147,190,cs),
(174,217,ls),
(177,220,o),
(181,222,o),
(186,222,cs),
(381,222,l)
);
},
{
attr = {
strokeHeight = 15;
strokeWidth = 15;
};
closed = 0;
nodes = (
(76,456,l),
(353,456,ls),
(358,456,o),
(362,454,o),
(365,451,cs),
(420,396,ls),
(423,393,o),
(425,389,o),
(425,384,cs),
(425,190,l),
(284,48,ls),
(281,45,o),
(277,43,o),
(272,43,cs),
(161,43,ls),
(156,43,o),
(152,45,o),
(149,48,cs),
(95,102,ls),
(92,105,o),
(90,109,o),
(90,114,cs),
(90,200,ls),
(90,205,o),
(92,209,o),
(95,212,cs),
(149,265,ls),
(152,268,o),
(156,270,o),
(161,270,cs),
(381,270,l)
);
},
{
attr = {
strokeHeight = 15;
strokeWidth = 15;
};
closed = 0;
nodes = (
(76,480,l),
(366,480,ls),
(371,480,o),
(375,478,o),
(378,475,cs),
(446,407,ls),
(449,404,o),
(451,400,o),
(451,395,cs),
(451,179,l),
(297,24,ls),
(294,21,o),
(290,19,o),
(285,19,cs),
(148,19,ls),
(143,19,o),
(139,21,o),
(136,24,cs),
(69,91,ls),
(66,94,o),
(64,98,o),
(64,103,cs),
(64,211,ls),
(64,216,o),
(66,220,o),
(69,223,cs),
(136,289,ls),
(139,292,o),
(143,294,o),
(148,294,cs),
(381,294,l)
);
},
{
attr = {
strokeHeight = 15;
strokeWidth = 15;
};
closed = 0;
nodes = (
(76,432,l),
(340,432,ls),
(345,432,o),
(349,430,o),
(352,427,cs),
(394,385,ls),
(397,382,o),
(399,378,o),
(399,373,cs),
(399,201,l),
(271,72,ls),
(268,69,o),
(264,67,o),
(259,67,cs),
(174,67,ls),
(169,67,o),
(165,69,o),
(162,72,cs),
(121,113,ls),
(118,116,o),
(116,120,o),
(116,125,cs),
(116,189,ls),
(116,194,o),
(118,198,o),
(121,201,cs),
(162,241,ls),
(165,244,o),
(169,246,o),
(174,246,cs),
(381,246,l)
);
},
{
attr = {
strokeHeight = 15;
strokeWidth = 15;
};
closed = 0;
nodes = (
(76,420,l),
(334,420,ls),
(339,420,o),
(343,418,o),
(346,415,cs),
(381,380,ls),
(384,377,o),
(386,373,o),
(386,368,cs),
(386,206,l),
(265,84,ls),
(262,81,o),
(258,79,o),
(253,79,cs),
(180,79,ls),
(175,79,o),
(171,81,o),
(168,84,cs),
(134,118,ls),
(131,121,o),
(129,125,o),
(129,130,cs),
(129,184,ls),
(129,189,o),
(131,193,o),
(134,196,cs),
(168,229,ls),
(171,232,o),
(175,234,o),
(180,234,cs),
(381,234,l)
);
},
{
attr = {
strokeHeight = 15;
strokeWidth = 15;
};
closed = 0;
nodes = (
(76,444,l),
(347,444,ls),
(352,444,o),
(356,442,o),
(359,439,cs),
(407,391,ls),
(410,388,o),
(412,384,o),
(412,379,cs),
(412,196,l),
(278,60,ls),
(275,57,o),
(271,55,o),
(266,55,cs),
(168,55,ls),
(163,55,o),
(159,57,o),
(156,60,cs),
(108,108,ls),
(105,111,o),
(103,115,o),
(103,120,cs),
(103,195,ls),
(103,200,o),
(105,204,o),
(108,207,cs),
(156,253,ls),
(159,256,o),
(163,258,o),
(168,258,cs),
(381,258,l)
);
},
{
attr = {
strokeHeight = 15;
strokeWidth = 15;
};
closed = 0;
nodes = (
(76,468,l),
(360,468,ls),
(365,468,o),
(369,466,o),
(372,463,cs),
(433,402,ls),
(436,399,o),
(438,395,o),
(438,390,cs),
(438,185,l),
(291,36,ls),
(288,33,o),
(284,31,o),
(279,31,cs),
(155,31,ls),
(150,31,o),
(146,33,o),
(143,36,cs),
(82,97,ls),
(79,100,o),
(77,104,o),
(77,109,cs),
(77,206,ls),
(77,211,o),
(79,215,o),
(82,218,cs),
(143,277,ls),
(146,280,o),
(150,282,o),
(155,282,cs),
(381,282,l)
);
},
{
attr = {
strokeHeight = 15;
strokeWidth = 15;
};
closed = 0;
nodes = (
(76,492,l),
(372,492,ls),
(377,492,o),
(381,490,o),
(384,487,cs),
(459,412,ls),
(462,409,o),
(464,405,o),
(464,400,cs),
(464,174,l),
(303,12,ls),
(300,9,o),
(296,7,o),
(291,7,cs),
(142,7,ls),
(137,7,o),
(133,9,o),
(130,12,cs),
(56,86,ls),
(53,89,o),
(51,93,o),
(51,98,cs),
(51,216,ls),
(51,221,o),
(53,225,o),
(56,228,cs),
(130,301,ls),
(133,304,o),
(137,306,o),
(142,306,cs),
(381,306,l)
);
},
{
attr = {
strokeHeight = 15;
strokeWidth = 15;
};
closed = 0;
nodes = (
(386,110,l),
(386,0,l)
);
},
{
attr = {
strokeHeight = 15;
strokeWidth = 15;
};
closed = 0;
nodes = (
(373,97,l),
(373,0,l)
);
},
{
attr = {
strokeHeight = 15;
strokeWidth = 15;
};
closed = 0;
nodes = (
(412,136,l),
(412,0,l)
);
},
{
attr = {
strokeHeight = 15;
strokeWidth = 15;
};
closed = 0;
nodes = (
(399,123,l),
(399,0,l)
);
},
{
attr = {
strokeHeight = 15;
strokeWidth = 15;
};
closed = 0;
nodes = (
(438,162,l),
(438,0,l)
);
},
{
attr = {
strokeHeight = 15;
strokeWidth = 15;
};
closed = 0;
nodes = (
(425,149,l),
(425,0,l)
);
},
{
attr = {
strokeHeight = 15;
strokeWidth = 15;
};
closed = 0;
nodes = (
(464,188,l),
(464,0,l)
);
},
{
attr = {
strokeHeight = 15;
strokeWidth = 15;
};
closed = 0;
nodes = (
(451,175,l),
(451,0,l)
);
}
);
width = 515;
},
{
associatedMasterId = m01;
layerId = "8574FEBD-CF88-4216-8A53-0E7E8CF330BB";
name = "3 Jan 25 at 11:46";
shapes = (
{
closed = 1;
nodes = (
(374,0,l),
(374,70,l),
(372,70,l),
(372,0,l)
);
},
{
closed = 1;
nodes = (
(387,0,l),
(387,83,l),
(385,83,l),
(385,0,l)
);
},
{
closed = 1;
nodes = (
(400,0,l),
(400,96,l),
(398,96,l),
(398,0,l)
);
},
{
closed = 1;
nodes = (
(413,0,l),
(413,109,l),
(411,109,l),
(411,0,l)
);
},
{
closed = 1;
nodes = (
(426,0,l),
(426,122,l),
(424,122,l),
(424,0,l)
);
},
{
closed = 1;
nodes = (
(439,0,l),
(439,135,l),
(437,135,l),
(437,0,l)
);
},
{
closed = 1;
nodes = (
(452,0,l),
(452,148,l),
(450,148,l),
(450,0,l)
);
},
{
closed = 1;
nodes = (
(465,0,l),
(465,161,l),
(463,161,l),
(463,0,l)
);
},
{
closed = 1;
nodes = (
(282,-1,ls),
(287,-1,o),
(292,1,o),
(295,4,cs),
(460,170,ls),
(463,173,o),
(465,178,o),
(465,183,cs),
(465,408,ls),
(465,413,o),
(463,418,o),
(460,421,cs),
(385,496,ls),
(382,499,o),
(377,501,o),
(372,501,cs),
(76,501,l),
(76,499,l),
(372,499,ls),
(377,499,o),
(381,497,o),
(384,494,cs),
(458,420,ls),
(461,417,o),
(463,413,o),
(463,408,cs),
(463,183,ls),
(463,178,o),
(461,174,o),
(458,171,cs),
(294,6,ls),
(291,3,o),
(287,1,o),
(282,1,cs),
(142,1,ls),
(137,1,o),
(133,3,o),
(130,6,cs),
(57,79,ls),
(54,82,o),
(52,86,o),
(52,91,cs),
(52,214,ls),
(52,219,o),
(54,223,o),
(57,226,cs),
(130,298,ls),
(133,301,o),
(137,303,o),
(142,303,cs),
(362,303,l),
(362,305,l),
(142,305,ls),
(137,305,o),
(132,303,o),
(129,300,cs),
(55,227,ls),
(52,224,o),
(50,219,o),
(50,214,cs),
(50,91,ls),
(50,86,o),
(52,81,o),
(55,78,cs),
(129,4,ls),
(132,1,o),
(137,-1,o),
(142,-1,cs)
);
},
{
closed = 1;
nodes = (
(276,11,ls),
(281,11,o),
(286,13,o),
(289,16,cs),
(447,175,ls),
(450,178,o),
(452,183,o),
(452,188,cs),
(452,403,ls),
(452,408,o),
(450,413,o),
(447,416,cs),
(379,484,ls),
(376,487,o),
(371,489,o),
(366,489,cs),
(76,489,l),
(76,487,l),
(366,487,ls),
(371,487,o),
(375,485,o),
(378,482,cs),
(445,415,ls),
(448,412,o),
(450,408,o),
(450,403,cs),
(450,188,ls),
(450,183,o),
(448,179,o),
(445,176,cs),
(288,18,ls),
(285,15,o),
(281,13,o),
(276,13,cs),
(148,13,ls),
(143,13,o),
(139,15,o),
(136,18,cs),
(70,84,ls),
(67,87,o),
(65,91,o),
(65,96,cs),
(65,209,ls),
(65,214,o),
(67,218,o),
(70,221,cs),
(136,286,ls),
(139,289,o),
(143,291,o),
(148,291,cs),
(362,291,l),
(362,293,l),
(148,293,ls),
(143,293,o),
(138,291,o),
(135,288,cs),
(68,222,ls),
(65,219,o),
(63,214,o),
(63,209,cs),
(63,96,ls),
(63,91,o),
(65,86,o),
(68,83,cs),
(135,16,ls),
(138,13,o),
(143,11,o),
(148,11,cs)
);
},
{
closed = 1;
nodes = (
(270,23,ls),
(275,23,o),
(280,25,o),
(283,28,cs),
(434,181,ls),
(437,184,o),
(439,189,o),
(439,194,cs),
(439,398,ls),
(439,403,o),
(437,408,o),
(434,411,cs),
(373,472,ls),
(370,475,o),
(365,477,o),
(360,477,cs),
(76,477,l),
(76,475,l),
(360,475,ls),
(365,475,o),
(369,473,o),
(372,470,cs),
(432,410,ls),
(435,407,o),
(437,403,o),
(437,398,cs),
(437,194,ls),
(437,189,o),
(435,185,o),
(432,182,cs),
(282,30,ls),
(279,27,o),
(275,25,o),
(270,25,cs),
(155,25,ls),
(150,25,o),
(146,27,o),
(143,30,cs),
(83,90,ls),
(80,93,o),
(78,97,o),
(78,102,cs),
(78,204,ls),
(78,209,o),
(80,213,o),
(83,216,cs),
(143,274,ls),
(146,277,o),
(150,279,o),
(155,279,cs),
(362,279,l),
(362,281,l),
(155,281,ls),
(150,281,o),
(145,279,o),
(142,276,cs),
(81,217,ls),
(78,214,o),
(76,209,o),
(76,204,cs),
(76,102,ls),
(76,97,o),
(78,92,o),
(81,89,cs),
(142,28,ls),
(145,25,o),
(150,23,o),
(155,23,cs)
);
},
{
closed = 1;
nodes = (
(263,35,ls),
(268,35,o),
(273,37,o),
(276,40,cs),
(421,186,ls),
(424,189,o),
(426,194,o),
(426,199,cs),
(426,392,ls),
(426,397,o),
(424,402,o),
(421,405,cs),
(366,460,ls),
(363,463,o),
(358,465,o),
(353,465,cs),
(76,465,l),
(76,463,l),
(353,463,ls),
(358,463,o),
(362,461,o),
(365,458,cs),
(419,404,ls),
(422,401,o),
(424,397,o),
(424,392,cs),
(424,199,ls),
(424,194,o),
(422,190,o),
(419,187,cs),
(275,42,ls),
(272,39,o),
(268,37,o),
(263,37,cs),
(161,37,ls),
(156,37,o),
(152,39,o),
(149,42,cs),
(96,95,ls),
(93,98,o),
(91,102,o),
(91,107,cs),
(91,198,ls),
(91,203,o),
(93,207,o),
(96,210,cs),
(149,262,ls),
(152,265,o),
(156,267,o),
(161,267,cs),
(362,267,l),
(362,269,l),
(161,269,ls),
(156,269,o),
(151,267,o),
(148,264,cs),
(94,211,ls),
(91,208,o),
(89,203,o),
(89,198,cs),
(89,107,ls),
(89,102,o),
(91,97,o),
(94,94,cs),
(148,40,ls),
(151,37,o),
(156,35,o),
(161,35,cs)
);
},
{
closed = 1;
nodes = (
(257,47,ls),
(262,47,o),
(267,49,o),
(270,52,cs),
(408,192,ls),
(411,195,o),
(413,200,o),
(413,205,cs),
(413,387,ls),
(413,392,o),
(411,397,o),
(408,400,cs),
(360,448,ls),
(357,451,o),
(352,453,o),
(347,453,cs),
(76,453,l),
(76,451,l),
(347,451,ls),
(352,451,o),
(356,449,o),
(359,446,cs),
(406,399,ls),
(409,396,o),
(411,392,o),
(411,387,cs),
(411,205,ls),
(411,200,o),
(409,196,o),
(406,193,cs),
(269,54,ls),
(266,51,o),
(262,49,o),
(257,49,cs),
(168,49,ls),
(163,49,o),
(159,51,o),
(156,54,cs),
(109,101,ls),
(106,104,o),
(104,108,o),
(104,113,cs),
(104,193,ls),
(104,198,o),
(106,202,o),
(109,205,cs),
(156,250,ls),
(159,253,o),
(163,255,o),
(168,255,cs),
(362,255,l),
(362,257,l),
(168,257,ls),
(163,257,o),
(158,255,o),
(155,252,cs),
(107,206,ls),
(104,203,o),
(102,198,o),
(102,193,cs),
(102,113,ls),
(102,108,o),
(104,103,o),
(107,100,cs),
(155,52,ls),
(158,49,o),
(163,47,o),
(168,47,cs)
);
},
{
closed = 1;
nodes = (
(250,59,ls),
(255,59,o),
(260,61,o),
(263,64,cs),
(395,197,ls),
(398,200,o),
(400,205,o),
(400,210,cs),
(400,381,ls),
(400,386,o),
(398,391,o),
(395,394,cs),
(353,436,ls),
(350,439,o),
(345,441,o),
(340,441,cs),
(76,441,l),
(76,439,l),
(340,439,ls),
(345,439,o),
(349,437,o),
(352,434,cs),
(393,393,ls),
(396,390,o),
(398,386,o),
(398,381,cs),
(398,210,ls),
(398,205,o),
(396,201,o),
(393,198,cs),
(262,66,ls),
(259,63,o),
(255,61,o),
(250,61,cs),
(174,61,ls),
(169,61,o),
(165,63,o),
(162,66,cs),
(122,106,ls),
(119,109,o),
(117,113,o),
(117,118,cs),
(117,187,ls),
(117,192,o),
(119,196,o),
(122,199,cs),
(162,238,ls),
(165,241,o),
(169,243,o),
(174,243,cs),
(362,243,l),
(362,245,l),
(174,245,ls),
(169,245,o),
(164,243,o),
(161,240,cs),
(120,200,ls),
(117,197,o),
(115,192,o),
(115,187,cs),
(115,118,ls),
(115,113,o),
(117,108,o),
(120,105,cs),
(161,64,ls),
(164,61,o),
(169,59,o),
(174,59,cs)
);
},
{
closed = 1;
nodes = (
(244,71,ls),
(249,71,o),
(254,73,o),
(257,76,cs),
(382,202,ls),
(385,205,o),
(387,210,o),
(387,215,cs),
(387,376,ls),
(387,381,o),
(385,386,o),
(382,389,cs),
(347,424,ls),
(344,427,o),
(339,429,o),
(334,429,cs),
(76,429,l),
(76,427,l),
(334,427,ls),
(339,427,o),
(343,425,o),
(346,422,cs),
(380,388,ls),
(383,385,o),
(385,381,o),
(385,376,cs),
(385,215,ls),
(385,210,o),
(383,206,o),
(380,203,cs),
(256,78,ls),
(253,75,o),
(249,73,o),
(244,73,cs),
(180,73,ls),
(175,73,o),
(171,75,o),
(168,78,cs),
(135,111,ls),
(132,114,o),
(130,118,o),
(130,123,cs),
(130,182,ls),
(130,187,o),
(132,191,o),
(135,194,cs),
(168,226,ls),
(171,229,o),
(175,231,o),
(180,231,cs),
(362,231,l),
(362,233,l),
(180,233,ls),
(175,233,o),
(170,231,o),
(167,228,cs),
(133,195,ls),
(130,192,o),
(128,187,o),
(128,182,cs),
(128,123,ls),
(128,118,o),
(130,113,o),
(133,110,cs),
(167,76,ls),
(170,73,o),
(175,71,o),
(180,71,cs)
);
},
{
closed = 1;
nodes = (
(237,83,ls),
(242,83,o),
(247,85,o),
(250,88,cs),
(369,207,ls),
(372,210,o),
(374,215,o),
(374,220,cs),
(374,370,ls),
(374,375,o),
(372,380,o),
(369,383,cs),
(340,412,ls),
(337,415,o),
(332,417,o),
(327,417,cs),
(76,417,l),
(76,415,l),
(327,415,ls),
(332,415,o),
(336,413,o),
(339,410,cs),
(367,382,ls),
(370,379,o),
(372,375,o),
(372,370,cs),
(372,220,ls),
(372,215,o),
(370,211,o),
(367,208,cs),
(249,90,ls),
(246,87,o),
(242,85,o),
(237,85,cs),
(186,85,ls),
(181,85,o),
(177,87,o),
(174,90,cs),
(148,116,ls),
(145,119,o),
(143,123,o),
(143,128,cs),
(143,176,ls),
(143,181,o),
(145,185,o),
(148,188,cs),
(174,214,ls),
(177,217,o),
(181,219,o),
(186,219,cs),
(362,219,l),
(362,221,l),
(186,221,ls),
(181,221,o),
(176,219,o),
(173,216,cs),
(146,189,ls),
(143,186,o),
(141,181,o),
(141,176,cs),
(141,128,ls),
(141,123,o),
(143,118,o),
(146,115,cs),
(173,88,ls),
(176,85,o),
(181,83,o),
(186,83,cs)
);
}
);
width = 515;
},
{
associatedMasterId = m01;
layerId = "93808696-3041-4F4B-9C0B-B6015204655B";
name = "2 Jan 25 at 15:11";
shapes = (
{
closed = 1;
nodes = (
(326,0,ls),
(331,0,o),
(335,2,o),
(338,5,cs),
(464,131,l),
(464,408,ls),
(464,413,o),
(462,417,o),
(459,420,cs),
(384,495,ls),
(381,498,o),
(377,500,o),
(372,500,cs),
(76,500,l),
(76,476,l),
(136,416,l),
(327,416,ls),
(332,416,o),
(336,414,o),
(339,411,cs),
(368,382,ls),
(371,379,o),
(373,375,o),
(373,370,cs),
(373,168,l),
(293,89,ls),
(290,86,o),
(286,84,o),
(281,84,cs),
(186,84,ls),
(181,84,o),
(177,86,o),
(174,89,cs),
(147,116,ls),
(144,119,o),
(142,123,o),
(142,128,cs),
(142,176,ls),
(142,181,o),
(144,185,o),
(147,188,cs),
(174,215,ls),
(177,218,o),
(181,220,o),
(186,220,cs),
(382,220,l),
(382,304,l),
(142,304,ls),
(137,304,o),
(133,302,o),
(130,299,cs),
(56,226,ls),
(53,223,o),
(51,219,o),
(51,214,cs),
(51,91,ls),
(51,86,o),
(53,82,o),
(56,79,cs),
(130,5,ls),
(133,2,o),
(137,0,o),
(142,0,cs)
);
},
{
closed = 1;
nodes = (
(438,0,l),
(464,0,l),
(464,208,l),
(373,117,l),
(373,65,l)
);
}
);
width = 515;
},
{
associatedMasterId = m01;
layerId = "6A7E1E43-7371-4750-8327-966BB55DC873";
name = "2 Jan 25 at 15:20";
shapes = (
{
closed = 0;
nodes = (
(126,416,l),
(327,416,ls),
(332,416,o),
(336,414,o),
(339,411,cs),
(368,382,ls),
(371,379,o),
(373,375,o),
(373,370,cs),
(373,173,ls),
(373,168,o),
(371,164,o),
(368,161,cs),
(296,89,ls),
(293,86,o),
(289,84,o),
(284,84,cs),
(186,84,ls),
(181,84,o),
(177,86,o),
(174,89,cs),
(147,116,ls),
(144,119,o),
(142,123,o),
(142,128,cs),
(142,176,ls),
(142,181,o),
(144,185,o),
(147,188,cs),
(174,215,ls),
(177,218,o),
(181,220,o),
(186,220,cs),
(362,220,l)
);
},
{
closed = 0;
nodes = (
(362,268,l),
(161,268,ls),
(156,268,o),
(152,266,o),
(149,263,cs),
(95,210,ls),
(92,207,o),
(90,203,o),
(90,198,cs),
(90,107,ls),
(90,102,o),
(92,98,o),
(95,95,cs),
(149,41,ls),
(152,38,o),
(156,36,o),
(161,36,cs),
(308,36,ls),
(313,36,o),
(317,38,o),
(320,41,cs),
(420,141,ls),
(423,144,o),
(425,148,o),
(425,153,cs),
(425,392,ls),
(425,397,o),
(423,401,o),
(420,404,cs),
(365,459,ls),
(362,462,o),
(358,464,o),
(353,464,cs),
(78,464,l)
);
},
{
closed = 0;
nodes = (
(66,488,l),
(366,488,ls),
(371,488,o),
(375,486,o),
(378,483,cs),
(446,415,ls),
(449,412,o),
(451,408,o),
(451,403,cs),
(451,143,ls),
(451,138,o),
(449,134,o),
(446,131,cs),
(332,17,ls),
(329,14,o),
(325,12,o),
(320,12,cs),
(148,12,ls),
(143,12,o),
(139,14,o),
(136,17,cs),
(69,84,ls),
(66,87,o),
(64,91,o),
(64,96,cs),
(64,209,ls),
(64,214,o),
(66,218,o),
(69,221,cs),
(136,287,ls),
(139,290,o),
(143,292,o),
(148,292,cs),
(362,292,l)
);
},
{
closed = 0;
nodes = (
(102,440,l),
(340,440,ls),
(345,440,o),
(349,438,o),
(352,435,cs),
(394,393,ls),
(397,390,o),
(399,386,o),
(399,381,cs),
(399,163,ls),
(399,158,o),
(397,154,o),
(394,151,cs),
(308,65,ls),
(305,62,o),
(301,60,o),
(296,60,cs),
(174,60,ls),
(169,60,o),
(165,62,o),
(162,65,cs),
(121,106,ls),
(118,109,o),
(116,113,o),
(116,118,cs),
(116,187,ls),
(116,192,o),
(118,196,o),
(121,199,cs),
(162,239,ls),
(165,242,o),
(169,244,o),
(174,244,cs),
(362,244,l)
);
},
{
closed = 0;
nodes = (
(114,428,l),
(334,428,ls),
(339,428,o),
(343,426,o),
(346,423,cs),
(381,388,ls),
(384,385,o),
(386,381,o),
(386,376,cs),
(386,168,ls),
(386,163,o),
(384,159,o),
(381,156,cs),
(302,77,ls),
(299,74,o),
(295,72,o),
(290,72,cs),
(180,72,ls),
(175,72,o),
(171,74,o),
(168,77,cs),
(134,111,ls),
(131,114,o),
(129,118,o),
(129,123,cs),
(129,182,ls),
(129,187,o),
(131,191,o),
(134,194,cs),
(168,227,ls),
(171,230,o),
(175,232,o),
(180,232,cs),
(362,232,l)
);
},
{
closed = 0;
nodes = (
(90,452,l),
(347,452,ls),
(352,452,o),
(356,450,o),
(359,447,cs),
(407,399,ls),
(410,396,o),
(412,392,o),
(412,387,cs),
(412,158,ls),
(412,153,o),
(410,149,o),
(407,146,cs),
(314,53,ls),
(311,50,o),
(307,48,o),
(302,48,cs),
(168,48,ls),
(163,48,o),
(159,50,o),
(156,53,cs),
(108,101,ls),
(105,104,o),
(103,108,o),
(103,113,cs),
(103,193,ls),
(103,198,o),
(105,202,o),
(108,205,cs),
(156,251,ls),
(159,254,o),
(163,256,o),
(168,256,cs),
(362,256,l)
);
},
{
closed = 0;
nodes = (
(66,476,l),
(360,476,ls),
(365,476,o),
(369,474,o),
(372,471,cs),
(433,410,ls),
(436,407,o),
(438,403,o),
(438,398,cs),
(438,148,ls),
(438,143,o),
(436,139,o),
(433,136,cs),
(326,29,ls),
(323,26,o),
(319,24,o),
(314,24,cs),
(155,24,ls),
(150,24,o),
(146,26,o),
(143,29,cs),
(82,90,ls),
(79,93,o),
(77,97,o),
(77,102,cs),
(77,204,ls),
(77,209,o),
(79,213,o),
(82,216,cs),
(143,275,ls),
(146,278,o),
(150,280,o),
(155,280,cs),
(362,280,l)
);
},
{
closed = 0;
nodes = (
(66,500,l),
(372,500,ls),
(377,500,o),
(381,498,o),
(384,495,cs),
(459,420,ls),
(462,417,o),
(464,413,o),
(464,408,cs),
(464,138,ls),
(464,133,o),
(462,129,o),
(459,126,cs),
(338,5,ls),
(335,2,o),
(331,0,o),
(326,0,cs),
(142,0,ls),
(137,0,o),
(133,2,o),
(130,5,cs),
(56,79,ls),
(53,82,o),
(51,86,o),
(51,91,cs),
(51,214,ls),
(51,219,o),
(53,223,o),
(56,226,cs),
(130,299,ls),
(133,302,o),
(137,304,o),
(142,304,cs),
(362,304,l)
);
},
{
closed = 0;
nodes = (
(412,65,l),
(412,26,l)
);
},
{
closed = 0;
nodes = (
(399,52,l),
(399,39,l)
);
},
{
closed = 0;
nodes = (
(438,91,l),
(438,0,l)
);
},
{
closed = 0;
nodes = (
(425,78,l),
(425,13,l)
);
},
{
closed = 0;
nodes = (
(464,117,l),
(464,0,l)
);
},
{
closed = 0;
nodes = (
(451,104,l),
(451,0,l)
);
}
);
width = 515;
},
{
associatedMasterId = m01;
layerId = "76272802-2A05-4C15-B0B8-25A742B0E12F";
name = "3 Jan 25 at 10:09";
shapes = (
{
closed = 1;
nodes = (
(305,0,ls),
(310,0,o),
(314,2,o),
(317,5,cs),
(443,131,l),
(443,408,ls),
(443,413,o),
(441,417,o),
(438,420,cs),
(363,495,ls),
(360,498,o),
(356,500,o),
(351,500,cs),
(65,500,l),
(65,476,l),
(140,401,l),
(306,401,ls),
(311,401,o),
(315,399,o),
(318,396,cs),
(332,382,ls),
(335,379,o),
(337,375,o),
(337,370,cs),
(337,168,l),
(273,104,ls),
(270,101,o),
(266,99,o),
(261,99,cs),
(175,99,ls),
(170,99,o),
(166,101,o),
(163,104,cs),
(151,116,ls),
(148,119,o),
(146,123,o),
(146,128,cs),
(146,181,ls),
(146,186,o),
(148,190,o),
(151,193,cs),
(163,205,ls),
(166,208,o),
(170,210,o),
(175,210,cs),
(346,210,l),
(346,309,l),
(131,309,ls),
(126,309,o),
(122,307,o),
(119,304,cs),
(45,231,ls),
(42,228,o),
(40,224,o),
(40,219,cs),
(40,91,ls),
(40,86,o),
(42,82,o),
(45,79,cs),
(119,5,ls),
(122,2,o),
(126,0,o),
(131,0,cs)
);
},
{
closed = 1;
nodes = (
(417,0,l),
(443,0,l),
(443,208,l),
(337,132,l),
(337,80,l)
);
}
);
width = 478;
},
{
layerId = m002;
name = Regular;
shapes = (
{
closed = 1;
nodes = (
(377,0,l),
(377,90,l),
(362,90,l),
(362,0,l)
);
},
{
closed = 1;
nodes = (
(390,0,l),
(390,103,l),
(375,103,l),
(375,0,l)
);
},
{
closed = 1;
nodes = (
(403,0,l),
(403,116,l),
(388,116,l),
(388,0,l)
);
},
{
closed = 1;
nodes = (
(416,0,l),
(416,129,l),
(401,129,l),
(401,0,l)
);
},
{
closed = 1;
nodes = (
(429,0,l),
(429,142,l),
(414,142,l),
(414,0,l)
);
},
{
closed = 1;
nodes = (
(442,0,l),
(442,155,l),
(427,155,l),
(427,0,l)
);
},
{
closed = 1;
nodes = (
(455,0,l),
(455,168,l),
(440,168,l),
(440,0,l)
);
},
{
closed = 1;
nodes = (
(468,0,l),
(468,181,l),
(453,181,l),
(453,0,l)
);
},
{
closed = 1;
nodes = (
(287,0,ls),
(294,0,o),
(300,3,o),
(304,7,cs),
(460,164,ls),
(464,168,o),
(468,174,o),
(468,181,cs),
(468,400,ls),
(468,407,o),
(464,413,o),
(460,417,cs),
(385,492,ls),
(381,496,o),
(375,500,o),
(368,500,cs),
(72,500,l),
(72,485,l),
(368,485,ls),
(371,485,o),
(373,484,o),
(375,482,cs),
(450,407,ls),
(452,405,o),
(453,403,o),
(453,400,cs),
(453,181,ls),
(453,178,o),
(452,176,o),
(450,174,cs),
(294,17,ls),
(292,15,o),
(290,15,o),
(287,15,cs),
(138,15,ls),
(135,15,o),
(132,16,o),
(130,18,cs),
(57,91,ls),
(55,93,o),
(55,95,o),
(55,98,cs),
(55,216,ls),
(55,219,o),
(55,221,o),
(57,223,cs),
(131,296,ls),
(133,298,o),
(135,299,o),
(138,299,cs),
(362,299,l),
(362,314,l),
(138,314,ls),
(131,314,o),
(125,310,o),
(121,306,cs),
(47,233,ls),
(43,229,o),
(40,223,o),
(40,216,cs),
(40,98,ls),
(40,91,o),
(43,85,o),
(47,81,cs),
(121,7,ls),
(125,3,o),
(131,0,o),
(138,0,cs)
);
},
{
closed = 1;
nodes = (
(281,12,ls),
(288,12,o),
(294,15,o),
(298,19,cs),
(447,169,ls),
(451,173,o),
(455,179,o),
(455,186,cs),
(455,395,ls),
(455,402,o),
(451,408,o),
(447,412,cs),
(379,480,ls),
(375,484,o),
(369,488,o),
(362,488,cs),
(72,488,l),
(72,473,l),
(362,473,ls),
(365,473,o),
(367,472,o),
(369,470,cs),
(437,402,ls),
(439,400,o),
(440,398,o),
(440,395,cs),
(440,186,ls),
(440,183,o),
(439,181,o),
(437,179,cs),
(288,29,ls),
(286,27,o),
(284,27,o),
(281,27,cs),
(144,27,ls),
(141,27,o),
(139,27,o),
(137,29,cs),
(70,96,ls),
(68,98,o),
(68,100,o),
(68,103,cs),
(68,211,ls),
(68,214,o),
(68,216,o),
(70,218,cs),
(137,284,ls),
(139,286,o),
(141,287,o),
(144,287,cs),
(362,287,l),
(362,302,l),
(144,302,ls),
(137,302,o),
(131,298,o),
(127,294,cs),
(60,228,ls),
(56,224,o),
(53,218,o),
(53,211,cs),
(53,103,ls),
(53,96,o),
(56,90,o),
(60,86,cs),
(127,19,ls),
(131,15,o),
(137,12,o),
(144,12,cs)
);
},
{
closed = 1;
nodes = (
(275,24,ls),
(282,24,o),
(288,27,o),
(292,31,cs),
(434,175,ls),
(438,179,o),
(442,185,o),
(442,192,cs),
(442,390,ls),
(442,397,o),
(438,403,o),
(434,407,cs),
(373,468,ls),
(369,472,o),
(363,476,o),
(356,476,cs),
(72,476,l),
(72,461,l),
(356,461,ls),
(359,461,o),
(361,460,o),
(363,458,cs),
(424,397,ls),
(426,395,o),
(427,393,o),
(427,390,cs),
(427,192,ls),
(427,189,o),
(426,187,o),
(424,185,cs),
(282,41,ls),
(280,39,o),
(278,39,o),
(275,39,cs),
(151,39,ls),
(148,39,o),
(145,40,o),
(143,42,cs),
(83,102,ls),
(81,104,o),
(81,106,o),
(81,109,cs),
(81,206,ls),
(81,209,o),
(81,211,o),
(83,213,cs),
(144,272,ls),
(146,274,o),
(148,275,o),
(151,275,cs),
(362,275,l),
(362,290,l),
(151,290,ls),
(144,290,o),
(138,286,o),
(134,282,cs),
(73,223,ls),
(69,219,o),
(66,213,o),
(66,206,cs),
(66,109,ls),
(66,102,o),
(69,96,o),
(73,92,cs),
(134,31,ls),
(138,27,o),
(144,24,o),
(151,24,cs)
);
},
{
closed = 1;
nodes = (
(268,36,ls),
(275,36,o),
(281,39,o),
(285,43,cs),
(421,180,ls),
(425,184,o),
(429,190,o),
(429,197,cs),
(429,384,ls),
(429,391,o),
(425,397,o),
(421,401,cs),
(366,456,ls),
(362,460,o),
(356,464,o),
(349,464,cs),
(72,464,l),
(72,449,l),
(349,449,ls),
(352,449,o),
(354,448,o),
(356,446,cs),
(411,391,ls),
(413,389,o),
(414,387,o),
(414,384,cs),
(414,197,ls),
(414,194,o),
(413,192,o),
(411,190,cs),
(275,53,ls),
(273,51,o),
(271,51,o),
(268,51,cs),
(157,51,ls),
(154,51,o),
(151,52,o),
(149,54,cs),
(96,107,ls),
(94,109,o),
(94,111,o),
(94,114,cs),
(94,200,ls),
(94,203,o),
(94,205,o),
(96,207,cs),
(150,260,ls),
(152,262,o),
(154,263,o),
(157,263,cs),
(362,263,l),
(362,278,l),
(157,278,ls),
(150,278,o),
(144,274,o),
(140,270,cs),
(86,217,ls),
(82,213,o),
(79,207,o),
(79,200,cs),
(79,114,ls),
(79,107,o),
(82,101,o),
(86,97,cs),
(140,43,ls),
(144,39,o),
(150,36,o),
(157,36,cs)
);
},
{
closed = 1;
nodes = (
(262,48,ls),
(269,48,o),
(275,51,o),
(279,55,cs),
(408,186,ls),
(412,190,o),
(416,196,o),
(416,203,cs),
(416,379,ls),
(416,386,o),
(412,392,o),
(408,396,cs),
(360,444,ls),
(356,448,o),
(350,452,o),
(343,452,cs),
(72,452,l),
(72,437,l),
(343,437,ls),
(346,437,o),
(348,436,o),
(350,434,cs),
(398,386,ls),
(400,384,o),
(401,382,o),
(401,379,cs),
(401,203,ls),
(401,200,o),
(400,198,o),
(398,196,cs),
(269,65,ls),
(267,63,o),
(265,63,o),
(262,63,cs),
(164,63,ls),
(161,63,o),
(158,64,o),
(156,66,cs),
(109,113,ls),
(107,115,o),
(107,117,o),
(107,120,cs),
(107,195,ls),
(107,198,o),
(107,200,o),
(109,202,cs),
(157,248,ls),
(159,250,o),
(161,251,o),
(164,251,cs),
(362,251,l),
(362,266,l),
(164,266,ls),
(157,266,o),
(151,262,o),
(147,258,cs),
(99,212,ls),
(95,208,o),
(92,202,o),
(92,195,cs),
(92,120,ls),
(92,113,o),
(95,107,o),
(99,103,cs),
(147,55,ls),
(151,51,o),
(157,48,o),
(164,48,cs)
);
},
{
closed = 1;
nodes = (
(255,60,ls),
(262,60,o),
(268,63,o),
(272,67,cs),
(395,191,ls),
(399,195,o),
(403,201,o),
(403,208,cs),
(403,373,ls),
(403,380,o),
(399,386,o),
(395,390,cs),
(353,432,ls),
(349,436,o),
(343,440,o),
(336,440,cs),
(72,440,l),
(72,425,l),
(336,425,ls),
(339,425,o),
(341,424,o),
(343,422,cs),
(385,380,ls),
(387,378,o),
(388,376,o),
(388,373,cs),
(388,208,ls),
(388,205,o),
(387,203,o),
(385,201,cs),
(262,77,ls),
(260,75,o),
(258,75,o),
(255,75,cs),
(170,75,ls),
(167,75,o),
(164,76,o),
(162,78,cs),
(122,118,ls),
(120,120,o),
(120,122,o),
(120,125,cs),
(120,189,ls),
(120,192,o),
(120,194,o),
(122,196,cs),
(163,236,ls),
(165,238,o),
(167,239,o),
(170,239,cs),
(362,239,l),
(362,254,l),
(170,254,ls),
(163,254,o),
(157,250,o),
(153,246,cs),
(112,206,ls),
(108,202,o),
(105,196,o),
(105,189,cs),
(105,125,ls),
(105,118,o),
(108,112,o),
(112,108,cs),
(153,67,ls),
(157,63,o),
(163,60,o),
(170,60,cs)
);
},
{
closed = 1;
nodes = (
(249,72,ls),
(256,72,o),
(262,75,o),
(266,79,cs),
(382,196,ls),
(386,200,o),
(390,206,o),
(390,213,cs),
(390,368,ls),
(390,375,o),
(386,381,o),
(382,385,cs),
(347,420,ls),
(343,424,o),
(337,428,o),
(330,428,cs),
(72,428,l),
(72,413,l),
(330,413,ls),
(333,413,o),
(335,412,o),
(337,410,cs),
(372,375,ls),
(374,373,o),
(375,371,o),
(375,368,cs),
(375,213,ls),
(375,210,o),
(374,208,o),
(372,206,cs),
(256,89,ls),
(254,87,o),
(252,87,o),
(249,87,cs),
(176,87,ls),
(173,87,o),
(170,88,o),
(168,90,cs),
(135,123,ls),
(133,125,o),
(133,127,o),
(133,130,cs),
(133,184,ls),
(133,187,o),
(133,189,o),
(135,191,cs),
(169,224,ls),
(171,226,o),
(173,227,o),
(176,227,cs),
(362,227,l),
(362,242,l),
(176,242,ls),
(169,242,o),
(163,238,o),
(159,234,cs),
(125,201,ls),
(121,197,o),
(118,191,o),
(118,184,cs),
(118,130,ls),
(118,123,o),
(121,117,o),
(125,113,cs),
(159,79,ls),
(163,75,o),
(169,72,o),
(176,72,cs)
);
},
{
closed = 1;
nodes = (
(242,84,ls),
(249,84,o),
(255,87,o),
(259,91,cs),
(369,201,ls),
(373,205,o),
(377,211,o),
(377,218,cs),
(377,362,ls),
(377,369,o),
(373,375,o),
(369,379,cs),
(340,408,ls),
(336,412,o),
(330,416,o),
(323,416,cs),
(72,416,l),
(72,401,l),
(323,401,ls),
(326,401,o),
(328,400,o),
(330,398,cs),
(359,369,ls),
(361,367,o),
(362,365,o),
(362,362,cs),
(362,218,ls),
(362,215,o),
(361,213,o),
(359,211,cs),
(249,101,ls),
(247,99,o),
(245,99,o),
(242,99,cs),
(182,99,ls),
(179,99,o),
(176,100,o),
(174,102,cs),
(148,128,ls),
(146,130,o),
(146,132,o),
(146,135,cs),
(146,178,ls),
(146,181,o),
(146,183,o),
(148,185,cs),
(175,212,ls),
(177,214,o),
(179,215,o),
(182,215,cs),
(362,215,l),
(362,230,l),
(182,230,ls),
(175,230,o),
(169,226,o),
(165,222,cs),
(138,195,ls),
(134,191,o),
(131,185,o),
(131,178,cs),
(131,135,ls),
(131,128,o),
(134,122,o),
(138,118,cs),
(165,91,ls),
(169,87,o),
(175,84,o),
(182,84,cs)
);
}
);
width = 508;
},
{
associatedMasterId = m01;
layerId = "8C7564D3-4387-461E-858E-0EE3CDA94008";
name = "3 Jan 25 at 12:22";
shapes = (
{
attr = {
strokeHeight = 106;
strokeWidth = 106;
};
closed = 1;
nodes = (
(282,53,l),
(338,109,l),
(420,109,l),
(420,265,l),
(157,265,l),
(97,205,l),
(97,113,l),
(157,53,l)
);
},
{
attr = {
strokeHeight = 106;
strokeWidth = 106;
};
closed = 0;
nodes = (
(420,0,l),
(420,385,l),
(358,447,l),
(76,447,l)
);
}
);
width = 515;
},
{
associatedMasterId = m01;
layerId = "1AC20C46-AB42-4E71-95BF-B47F4D924060";
name = "4 Jan 25 at 10:52";
shapes = (
{
closed = 1;
nodes = (
(462,0,l),
(462,400,ls),
(462,407,o),
(458,413,o),
(454,417,cs),
(379,492,ls),
(375,496,o),
(369,500,o),
(362,500,cs),
(76,500,l),
(76,420,l),
(287,421,ls),
(290,421,o),
(292,420,o),
(294,418,cs),
(363,349,ls),
(365,347,o),
(366,345,o),
(366,342,cs),
(366,304,l),
(162,304,ls),
(155,304,o),
(149,300,o),
(145,296,cs),
(51,204,ls),
(48,201,o),
(44,194,o),
(44,187,cs),
(44,98,ls),
(44,91,o),
(47,85,o),
(51,81,cs),
(125,7,ls),
(128,4,o),
(135,0,o),
(142,0,cs),
(248,0,ls),
(255,0,o),
(261,3,o),
(265,7,cs),
(366,108,l),
(366,0,l)
);
},
{
closed = 1;
nodes = (
(140,198,ls),
(140,201,o),
(140,203,o),
(142,205,cs),
(159,222,ls),
(161,224,o),
(163,225,o),
(166,225,cs),
(366,225,l),
(366,197,l),
(250,81,ls),
(249,80,o),
(246,79,o),
(243,79,cs),
(216,79,ls),
(213,79,o),
(210,80,o),
(209,81,cs),
(142,148,ls),
(140,150,o),
(140,152,o),
(140,155,cs)
);
}
);
width = 515;
},
{
associatedMasterId = m01;
layerId = "A7B8342E-682A-45AC-898B-1AD7F0DE3497";
name = "6 Jan 25 at 15:25";
shapes = (
{
closed = 1;
nodes = (
(240,0,ls),
(247,0,o),
(253,2,o),
(259,8,cs),
(366,115,l),
(366,0,l),
(472,0,l),
(472,398,ls),
(472,405,o),
(469,412,o),
(464,417,cs),
(389,492,ls),
(384,497,o),
(377,500,o),
(370,500,cs),
(76,500,l),
(76,411,l),
(310,411,ls),
(317,411,o),
(324,408,o),
(329,403,cs),
(358,374,ls),
(363,369,o),
(366,362,o),
(366,355,cs),
(366,314,l),
(144,314,ls),
(137,314,o),
(131,312,o),
(125,306,cs),
(52,234,ls),
(46,228,o),
(44,222,o),
(44,215,cs),
(44,99,ls),
(44,92,o),
(46,86,o),
(52,80,cs),
(124,8,ls),
(130,2,o),
(136,0,o),
(143,0,cs)
);
},
{
closed = 1;
nodes = (
(158,122,ls),
(152,128,o),
(150,134,o),
(150,141,cs),
(150,172,ls),
(150,179,o),
(153,186,o),
(158,191,cs),
(184,217,ls),
(189,222,o),
(196,225,o),
(203,225,cs),
(366,225,l),
(366,204,l),
(259,97,ls),
(254,92,o),
(247,89,o),
(240,89,cs),
(202,89,ls),
(195,89,o),
(188,92,o),
(183,97,cs)
);
}
);
width = 515;
},
{
associatedMasterId = m01;
layerId = "B780E2D4-255D-42D4-B478-07E15A347BA6";
name = "6 Jan 25 at 15:29";
shapes = (
{
closed = 1;
nodes = (
(240,0,ls),
(247,0,o),
(253,2,o),
(259,8,cs),
(312,61,ls),
(318,67,o),
(324,69,o),
(331,69,cs),
(366,69,l),
(435,0,l),
(472,0,l),
(472,398,ls),
(472,405,o),
(469,412,o),
(464,417,cs),
(389,492,ls),
(384,497,o),
(377,500,o),
(370,500,cs),
(76,500,l),
(76,411,l),
(310,411,ls),
(317,411,o),
(324,408,o),
(329,403,cs),
(358,374,ls),
(363,369,o),
(366,362,o),
(366,355,cs),
(366,314,l),
(144,314,ls),
(137,314,o),
(131,312,o),
(125,306,cs),
(52,234,ls),
(46,228,o),
(44,222,o),
(44,215,cs),
(44,99,ls),
(44,92,o),
(46,86,o),
(52,80,cs),
(124,8,ls),
(130,2,o),
(136,0,o),
(143,0,cs)
);
},
{
closed = 1;
nodes = (
(158,122,ls),
(152,128,o),
(150,134,o),
(150,141,cs),
(150,172,ls),
(150,179,o),
(153,186,o),
(158,191,cs),
(184,217,ls),
(189,222,o),
(196,225,o),
(203,225,cs),
(366,225,l),
(366,158,l),
(331,158,ls),
(324,158,o),
(317,155,o),
(312,150,cs),
(259,97,ls),
(254,92,o),
(247,89,o),
(240,89,cs),
(202,89,ls),
(195,89,o),
(188,92,o),
(183,97,cs)
);
}
);
width = 515;
},
{
associatedMasterId = m01;
layerId = "B966A9D3-022B-45E0-860D-5A1A72881ACF";
name = "9 Jan 25 at 16:16";
shapes = (
{
attr = {
strokeWidth = 106;
};
closed = 0;
nodes = (
(405,0,l),
(405,388,l),
(342,451,l),
(62,451,l)
);
},
{
attr = {
strokeWidth = 106;
};
closed = 0;
nodes = (
(405,198,l),
(257,50,l),
(143,50,l),
(83,109,l),
(83,205,l),
(144,265,l),
(406,265,l)
);
}
);
width = 504;
},
{
associatedMasterId = m01;
layerId = "AB57C689-C1CA-40C8-86B1-60B2D8672533";
name = "9 Jan 25 at 16:22";
shapes = (
{
closed = 1;
nodes = (
(458,0,l),
(458,405,ls),
(458,407,o),
(457,410,o),
(455,412,cs),
(370,497,ls),
(368,499,o),
(365,500,o),
(363,500,cs),
(62,500,l),
(62,414,l),
(323,414,ls),
(325,414,o),
(328,413,o),
(330,411,cs),
(363,378,ls),
(365,376,o),
(366,373,o),
(366,371,cs),
(366,0,l)
);
},
{
closed = 1;
nodes = (
(260,0,ls),
(262,0,o),
(265,1,o),
(267,3,cs),
(373,109,l),
(373,235,l),
(227,89,ls),
(225,87,o),
(222,86,o),
(220,86,cs),
(162,86,ls),
(160,86,o),
(157,87,o),
(155,89,cs),
(126,118,ls),
(124,120,o),
(123,123,o),
(123,125,cs),
(123,188,ls),
(123,190,o),
(124,193,o),
(126,195,cs),
(156,225,ls),
(158,227,o),
(161,228,o),
(163,228,cs),
(378,228,l),
(378,314,l),
(123,314,ls),
(121,314,o),
(118,313,o),
(116,311,cs),
(34,230,ls),
(32,228,o),
(31,225,o),
(31,223,cs),
(31,91,ls),
(31,89,o),
(32,86,o),
(34,84,cs),
(115,3,ls),
(117,1,o),
(120,0,o),
(122,0,cs)
);
}
);
width = 504;
},
{
associatedMasterId = m01;
layerId = "AC1F4DB2-BF44-4D55-8D4A-E3A231B74399";
name = "9 Jan 25 at 16:23";
shapes = (
{
closed = 0;
nodes = (
(378,314,l),
(123,314,ls),
(121,314,o),
(118,313,o),
(116,311,cs),
(33,229,ls),
(31,227,o),
(30,224,o),
(30,222,cs),
(30,92,ls),
(30,90,o),
(31,87,o),
(33,85,cs),
(115,3,ls),
(117,1,o),
(120,0,o),
(122,0,cs),
(273,0,ls),
(275,0,o),
(278,1,o),
(280,3,cs),
(373,96,l)
);
},
{
closed = 0;
nodes = (
(458,0,l),
(458,405,ls),
(458,407,o),
(457,410,o),
(455,412,cs),
(370,497,ls),
(368,499,o),
(365,500,o),
(363,500,cs),
(62,500,l)
);
},
{
closed = 0;
nodes = (
(378,265,l),
(148,265,ls),
(146,265,o),
(143,264,o),
(141,262,cs),
(86,208,ls),
(84,206,o),
(83,203,o),
(83,201,cs),
(83,113,ls),
(83,111,o),
(84,108,o),
(86,106,cs),
(139,54,ls),
(141,52,o),
(144,51,o),
(146,51,cs),
(253,50,ls),
(255,50,o),
(258,51,o),
(260,53,cs),
(373,166,l)
);
},
{
closed = 0;
nodes = (
(378,290,l),
(136,290,ls),
(134,290,o),
(131,289,o),
(129,287,cs),
(60,219,ls),
(58,217,o),
(57,214,o),
(57,212,cs),
(57,103,ls),
(57,101,o),
(58,98,o),
(60,96,cs),
(127,29,ls),
(129,27,o),
(132,26,o),
(134,26,cs),
(263,25,ls),
(265,25,o),
(268,26,o),
(270,28,cs),
(373,131,l)
);
},
{
closed = 0;
nodes = (
(373,201,l),
(250,78,ls),
(248,76,o),
(245,75,o),
(243,75,cs),
(158,76,ls),
(156,76,o),
(153,77,o),
(151,79,cs),
(113,117,ls),
(111,119,o),
(110,122,o),
(110,124,cs),
(110,190,ls),
(110,192,o),
(111,195,o),
(113,197,cs),
(153,237,ls),
(155,239,o),
(158,240,o),
(160,240,cs),
(378,240,l)
);
},
{
closed = 0;
nodes = (
(378,302,l),
(130,302,ls),
(128,302,o),
(125,301,o),
(123,299,cs),
(47,224,ls),
(45,222,o),
(44,219,o),
(44,217,cs),
(44,98,ls),
(44,96,o),
(45,93,o),
(47,91,cs),
(121,17,ls),
(123,15,o),
(126,14,o),
(128,14,cs),
(268,13,ls),
(270,13,o),
(273,14,o),
(275,16,cs),
(373,114,l)
);
},
{
closed = 0;
nodes = (
(378,278,l),
(142,278,ls),
(140,278,o),
(137,277,o),
(135,275,cs),
(73,214,ls),
(71,212,o),
(70,209,o),
(70,207,cs),
(70,108,ls),
(70,106,o),
(71,103,o),
(73,101,cs),
(133,42,ls),
(135,40,o),
(138,39,o),
(140,39,cs),
(258,38,ls),
(260,38,o),
(263,39,o),
(265,41,cs),
(373,149,l)
);
},
{
closed = 0;
nodes = (
(378,253,l),
(154,253,ls),
(152,253,o),
(149,252,o),
(147,250,cs),
(100,203,ls),
(98,201,o),
(97,198,o),
(97,196,cs),
(97,119,ls),
(97,117,o),
(98,114,o),
(100,112,cs),
(145,67,ls),
(147,65,o),
(150,64,o),
(152,64,cs),
(248,63,ls),
(250,63,o),
(253,64,o),
(255,66,cs),
(373,184,l)
);
},
{
closed = 0;
nodes = (
(373,218,l),
(245,90,ls),
(243,88,o),
(240,87,o),
(238,87,cs),
(164,88,ls),
(162,88,o),
(159,89,o),
(157,91,cs),
(126,122,ls),
(124,124,o),
(123,127,o),
(123,129,cs),
(123,185,ls),
(123,187,o),
(124,190,o),
(126,192,cs),
(159,225,ls),
(161,227,o),
(164,228,o),
(166,228,cs),
(378,228,l)
);
},
{
closed = 0;
nodes = (
(62,451,l),
(338,451,ls),
(340,451,o),
(343,450,o),
(345,448,cs),
(402,391,ls),
(404,389,o),
(405,386,o),
(405,384,cs),
(405,0,l)
);
},
{
closed = 0;
nodes = (
(62,426,l),
(326,426,ls),
(328,426,o),
(331,425,o),
(333,423,cs),
(376,380,ls),
(378,378,o),
(379,375,o),
(379,373,cs),
(379,0,l)
);
},
{
closed = 0;
nodes = (
(62,414,l),
(320,414,ls),
(322,414,o),
(325,413,o),
(327,411,cs),
(363,375,ls),
(365,373,o),
(366,370,o),
(366,368,cs),
(366,0,l)
);
},
{
closed = 0;
nodes = (
(62,439,l),
(332,439,ls),
(334,439,o),
(337,438,o),
(339,436,cs),
(389,386,ls),
(391,384,o),
(392,381,o),
(392,379,cs),
(392,0,l)
);
},
{
closed = 0;
nodes = (
(432,0,l),
(432,395,ls),
(432,397,o),
(431,400,o),
(429,402,cs),
(358,473,ls),
(356,475,o),
(353,476,o),
(351,476,cs),
(62,476,l)
);
},
{
closed = 0;
nodes = (
(445,0,l),
(445,400,ls),
(445,402,o),
(444,405,o),
(442,407,cs),
(364,485,ls),
(362,487,o),
(359,488,o),
(357,488,cs),
(62,488,l)
);
},
{
closed = 0;
nodes = (
(62,464,l),
(345,464,ls),
(347,464,o),
(350,463,o),
(352,461,cs),
(416,397,ls),
(418,395,o),
(419,392,o),
(419,390,cs),
(419,0,l)
);
}
);
width = 504;
},
{
associatedMasterId = m01;
layerId = "F3DCC3B5-51B8-42A3-A3CF-660FDBE772B2";
name = "10 Jan 25 at 13:38";
shapes = (
{
closed = 1;
nodes = (
(459,0,l),
(459,402,l),
(362,500,l),
(62,500,l),
(62,409,l),
(319,409,l),
(361,367,l),
(361,0,l)
);
},
{
closed = 1;
nodes = (
(271,0,l),
(373,102,l),
(373,235,l),
(229,91,l),
(155,91,l),
(123,123,l),
(123,191,l),
(155,223,l),
(373,223,l),
(373,314,l),
(113,314,l),
(25,226,l),
(25,88,l),
(113,0,l)
);
}
);
width = 505;
},
{
associatedMasterId = m01;
layerId = "57A46BF5-4446-4A30-A26D-09112BC69F24";
name = "10 Jan 25 at 14:56";
shapes = (
{
closed = 1;
nodes = (
(452,0,l),
(452,412,l),
(364,500,l),
(62,500,l),
(62,402,l),
(329,402,l),
(361,370,l),
(361,0,l)
);
},
{
closed = 1;
nodes = (
(278,0,l),
(375,97,l),
(375,230,l),
(243,98,l),
(148,98,l),
(116,130,l),
(116,184,l),
(148,216,l),
(373,216,l),
(373,314,l),
(113,314,l),
(25,226,l),
(25,88,l),
(113,0,l)
);
}
);
width = 498;
}
);
metricRight = "=n";
unicode = 97;
},
{
glyphname = b;
lastChange = "2025-01-08 19:13:15 +0000";
layers = (
{
layerId = m002;
width = 600;
},
{
associatedMasterId = m01;
layerId = "D9564AB6-12A7-41D6-A0A8-6D47CBB0969A";
name = "3 Jan 25 at 11:04";
shapes = (
{
attr = {
strokeHeight = 106;
strokeWidth = 106;
};
closed = 0;
nodes = (
(93,293,l),
(247,447,l),
(347,447,l),
(433,361,l),
(433,139,l),
(347,53,l),
(155,53,l),
(93,115,l),
(93,700,l)
);
}
);
width = 526;
},
{
associatedMasterId = m01;
layerId = "933E9ABF-A376-4A23-A4DB-09B4DC0F73C5";
name = "3 Jan 25 at 12:28";
shapes = (
{
attr = {
strokeHeight = 106;
strokeWidth = 106;
};
closed = 0;
nodes = (
(93,375,l),
(175,375,l),
(247,447,l),
(347,447,l),
(423,371,l),
(423,139,l),
(337,53,l),
(93,53,l),
(93,700,l)
);
}
);
width = 511;
},
{
layerId = m01;
name = Regular;
shapes = (
{
closed = 1;
nodes = (
(48,0,l),
(358,0,ls),
(360,0,o),
(363,1,o),
(365,3,cs),
(476,114,ls),
(478,116,o),
(479,119,o),
(479,121,cs),
(479,389,ls),
(479,391,o),
(478,394,o),
(476,396,cs),
(375,497,ls),
(373,499,o),
(370,500,o),
(368,500,cs),
(237,500,ls),
(235,500,o),
(232,499,o),
(230,497,cs),
(154,421,l),
(154,700,l),
(48,700,l)
);
},
{
closed = 1;
nodes = (
(154,272,l),
(274,391,ls),
(276,393,o),
(279,394,o),
(281,394,cs),
(324,394,ls),
(326,394,o),
(329,393,o),
(331,391,cs),
(370,352,ls),
(372,350,o),
(373,347,o),
(373,345,cs),
(373,165,ls),
(373,163,o),
(372,160,o),
(370,158,cs),
(321,109,ls),
(319,107,o),
(316,106,o),
(314,106,cs),
(154,106,l)
);
}
);
width = 519;
},
{
associatedMasterId = m01;
layerId = "B5CF8DE4-756F-4D2D-AD6E-D23FD023F747";
name = "8 Jan 25 at 13:33";
shapes = (
{
attr = {
strokeHeight = 106;
strokeWidth = 106;
};
closed = 0;
nodes = (
(93,293,l),
(247,447,l),
(347,447,l),
(423,371,l),
(423,139,l),
(337,53,l),
(93,53,l),
(93,700,l)
);
}
);
width = 511;
}
);
metricLeft = "=n";
metricRight = "=o";
unicode = 98;
},
{
glyphname = c;
lastChange = "2025-01-08 19:13:42 +0000";
layers = (
{
layerId = m002;
width = 600;
},
{
associatedMasterId = m01;
layerId = "1587F8C2-CF8E-49C7-8162-763546448F81";
name = "3 Jan 25 at 11:13";
shapes = (
{
attr = {
strokeHeight = 106;
strokeWidth = 106;
};
closed = 0;
nodes = (
(410,129,l),
(334,53,l),
(179,53,l),
(93,139,l),
(93,361,l),
(179,447,l),
(339,447,l),
(405,381,l)
);
}
);
width = 457;
},
{
layerId = m01;
name = Regular;
shapes = (
{
attr = {
strokeHeight = 106;
strokeWidth = 106;
};
closed = 0;
nodes = (
(395,53,l),
(382,53,l),
(169,53,l),
(93,129,l),
(93,341,l),
(199,447,l),
(393,447,l)
);
}
);
width = 422;
},
{
associatedMasterId = m01;
layerId = "2A07BDA5-2DDC-4737-9A4A-2A7A43245FE8";
name = "3 Jan 25 at 17:36";
shapes = (
{
attr = {
strokeHeight = 106;
strokeWidth = 106;
};
closed = 0;
nodes = (
(388,53,l),
(375,53,l),
(179,53,l),
(93,139,l),
(93,321,l),
(219,447,l),
(388,447,l)
);
}
);
width = 428;
}
);
metricLeft = "=o";
unicode = 99;
},
{
glyphname = d;
lastChange = "2025-01-09 13:58:08 +0000";
layers = (
{
layerId = m01;
shapes = (
{
attr = {
strokeHeight = 106;
strokeWidth = 106;
};
closed = 0;
nodes = (
(425,700,l),
(425,0,l)
);
},
{
attr = {
strokeHeight = 106;
strokeWidth = 106;
};
closed = 0;
nodes = (
(425,207,l),
(271,53,l),
(169,53,l),
(93,129,l),
(93,361,l),
(179,447,l),
(425,447,l)
);
}
);
width = 526;
},
{
layerId = m002;
width = 600;
}
);
metricLeft = "=o";
metricRight = "=|n";
unicode = 100;
},
{
glyphname = e;
lastChange = "2025-01-08 16:34:18 +0000";
layers = (
{
layerId = m002;
width = 600;
},
{
associatedMasterId = m01;
layerId = "CE769510-6A10-49F0-BCF9-5A3DDBCAC1BC";
name = "2 Jan 25 at 23:35";
shapes = (
{
attr = {
strokeHeight = 106;
strokeWidth = 106;
};
closed = 0;
nodes = (
(428,129,l),
(352,53,l),
(179,53,l),
(93,139,l),
(93,361,l),
(179,447,l),
(307,447,l),
(363,391,l),
(101,129,l)
);
}
);
width = 600;
},
{
associatedMasterId = m01;
layerId = "F887BD32-B610-455D-BF06-2FFC5EFB92E9";
name = "2 Jan 25 at 23:36";
shapes = (
{
attr = {
strokeHeight = 106;
strokeWidth = 106;
};
closed = 0;
nodes = (
(438,53,l),
(362,53,l),
(179,53,l),
(93,139,l),
(93,361,l),
(179,447,l),
(347,447,l),
(403,391,l),
(403,300,l),
(366,263,l),
(101,263,l)
);
}
);
width = 600;
},
{
associatedMasterId = m01;
layerId = "EDAD3E6C-B68D-44B1-9EFE-78A102D13711";
name = "3 Jan 25 at 11:13";
shapes = (
{
attr = {
strokeHeight = 106;
strokeWidth = 106;
};
closed = 0;
nodes = (
(436,110,l),
(379,53,l),
(179,53,l),
(93,139,l),
(93,361,l),
(179,447,l),
(347,447,l),
(403,391,l),
(403,300,l),
(366,263,l),
(101,263,l)
);
}
);
width = 503;
},
{
layerId = m01;
name = Regular;
shapes = (
{
attr = {
strokeHeight = 106;
strokeWidth = 106;
};
closed = 0;
nodes = (
(444,53,l),
(177,53,l),
(91,139,l),
(91,341,l),
(197,447,l),
(345,447,l),
(401,391,l),
(401,300,l),
(364,263,l),
(99,263,l)
);
}
);
width = 479;
}
);
unicode = 101;
},
{
glyphname = f;
lastChange = "2025-01-08 19:16:02 +0000";
layers = (
{
layerId = m01;
shapes = (
{
attr = {
strokeHeight = 106;
strokeWidth = 106;
};
closed = 0;
nodes = (
(108,0,l),
(108,567,l),
(188,647,l),
(339,647,l)
);
},
{
attr = {
strokeHeight = 99;
strokeWidth = 99;
};
closed = 0;
nodes = (
(108,450,l),
(309,450,l)
);
}
);
width = 310;
},
{
layerId = m002;
width = 600;
}
);
unicode = 102;
},
{
glyphname = g;
lastChange = "2025-01-08 19:16:14 +0000";
layers = (
{
layerId = m01;
shapes = (
{
attr = {
identifier = ID0x7f7cc8cdf600;
strokeHeight = 106;
strokeWidth = 106;
};
closed = 0;
nodes = (
(413,207,l),
(259,53,l),
(159,53,l),
(93,119,l),
(93,361,l),
(179,447,l),
(387,447,l)
);
},
{
attr = {
identifier = ID0x7f7cc8cdf600;
strokeHeight = 106;
strokeWidth = 106;
};
closed = 0;
nodes = (
(413,500,l),
(413,-68,l),
(334,-147,l),
(90,-147,l)
);
}
);
width = 514;
},
{
associatedMasterId = m01;
layerId = "DBF37D3F-1E6B-45BD-A665-1B7BE74C5BB0";
name = "3 Jan 25 at 16:04";
shapes = (
{
attr = {
strokeHeight = 106;
strokeWidth = 106;
};
closed = 0;
nodes = (
(430,463,l),
(340,372,l)
);
},
{
attr = {
strokeHeight = 106;
strokeWidth = 106;
};
closed = 1;
nodes = (
(340,271,l),
(247,178,l),
(143,178,l),
(83,238,l),
(83,354,l),
(176,447,l),
(280,447,l),
(340,387,l)
);
},
{
attr = {
strokeHeight = 106;
strokeWidth = 106;
};
closed = 0;
nodes = (
(247,178,l),
(118,49,l),
(118,13,l),
(352,13,l),
(407,-34,l),
(407,-76,l),
(336,-147,l),
(36,-147,l)
);
}
);
width = 496;
},
{
associatedMasterId = m01;
layerId = "63D9FAEA-DD85-4389-8171-74B3DBA35306";
name = "3 Jan 25 at 16:16";
shapes = (
{
attr = {
strokeHeight = 106;
strokeWidth = 106;
};
closed = 0;
nodes = (
(460,447,l),
(166,447,l),
(83,364,l),
(83,238,l),
(143,178,l),
(237,178,l),
(340,281,l),
(340,407,l)
);
},
{
attr = {
strokeHeight = 106;
strokeWidth = 106;
};
closed = 0;
nodes = (
(237,178,l),
(108,49,l),
(108,13,l),
(352,13,l),
(407,-34,l),
(407,-76,l),
(336,-147,l),
(36,-147,l)
);
}
);
width = 496;
},
{
associatedMasterId = m01;
layerId = "E2E1E83F-DBF0-440D-BB07-BB753DDD8D03";
name = "3 Jan 25 at 15:53";
shapes = (
{
attr = {
strokeHeight = 106;
strokeWidth = 106;
};
closed = 0;
nodes = (
(480,447,l),
(166,447,l),
(83,364,l),
(83,238,l),
(143,178,l),
(237,178,l),
(340,281,l),
(340,407,l)
);
},
{
attr = {
strokeHeight = 106;
strokeWidth = 106;
};
closed = 0;
nodes = (
(237,178,l),
(118,59,l),
(118,13,l),
(297,13,l),
(393,109,l),
(440,62,l),
(440,-76,l),
(369,-147,l),
(36,-147,l)
);
}
);
width = 496;
},
{
layerId = m002;
width = 600;
},
{
associatedMasterId = m01;
layerId = "79E48C6D-8901-469D-A24B-0677F3AC5ED1";
name = "3 Jan 25 at 16:19";
shapes = (
{
attr = {
strokeHeight = 106;
strokeWidth = 106;
};
closed = 1;
nodes = (
(409,-147,l),
(440,-116,l),
(440,-43,l),
(346,52,l),
(86,52,l),
(55,21,l),
(55,-52,l),
(150,-147,l)
);
},
{
attr = {
strokeHeight = 106;
strokeWidth = 106;
};
closed = 0;
nodes = (
(460,447,l),
(161,447,l),
(73,359,l),
(73,245,l),
(136,181,l),
(225,181,l),
(334,290,l),
(334,405,l)
);
}
);
width = 496;
},
{
associatedMasterId = m01;
layerId = "773B2632-CC62-4AA9-98E9-1D196CAB0B8D";
name = "3 Jan 25 at 16:34";
shapes = (
{
attr = {
strokeHeight = 106;
strokeWidth = 106;
};
closed = 1;
nodes = (
(430,-52,l),
(430,3,l),
(380,53,l),
(132,53,l),
(55,-24,l),
(55,-96,l),
(106,-147,l),
(335,-147,l)
);
},
{
attr = {
strokeHeight = 106;
strokeWidth = 106;
};
closed = 0;
nodes = (
(460,447,l),
(161,447,l),
(73,359,l),
(73,255,l),
(126,201,l),
(257,201,l)
);
},
{
attr = {
strokeHeight = 106;
strokeWidth = 106;
};
closed = 0;
nodes = (
(54,-25,l),
(334,275,l),
(334,405,l)
);
}
);
width = 496;
},
{
associatedMasterId = m01;
layerId = "806CECC3-08F5-4941-87E6-B3E510D78301";
name = "3 Jan 25 at 16:47";
shapes = (
{
attr = {
strokeHeight = 106;
strokeWidth = 106;
};
closed = 1;
nodes = (
(410,-52,l),
(410,3,l),
(360,53,l),
(132,53,l),
(55,-24,l),
(55,-96,l),
(106,-147,l),
(315,-147,l)
);
},
{
attr = {
strokeHeight = 106;
strokeWidth = 106;
};
closed = 0;
nodes = (
(54,-25,l),
(334,275,l),
(334,404,l),
(291,447,l),
(161,447,l),
(73,359,l),
(73,260,l),
(131,201,l),
(257,201,l)
);
},
{
attr = {
strokeHeight = 106;
strokeWidth = 106;
};
closed = 0;
nodes = (
(420,532,l),
(312,424,l)
);
}
);
width = 496;
},
{
associatedMasterId = m01;
layerId = "37B57BD6-9E30-432F-A71F-7D6B70CEAE9F";
name = "8 Jan 25 at 13:30";
shapes = (
{
attr = {
strokeHeight = 106;
strokeWidth = 106;
};
closed = 1;
nodes = (
(408,-52,l),
(408,3,l),
(358,53,l),
(132,53,l),
(55,-24,l),
(55,-96,l),
(106,-147,l),
(313,-147,l)
);
},
{
attr = {
strokeHeight = 106;
strokeWidth = 106;
};
closed = 0;
nodes = (
(460,447,l),
(161,447,l),
(73,359,l),
(73,255,l),
(126,201,l),
(257,201,l)
);
},
{
attr = {
strokeHeight = 106;
strokeWidth = 106;
};
closed = 0;
nodes = (
(54,-25,l),
(334,275,l),
(334,405,l)
);
}
);
width = 496;
}
);
metricRight = "=|n";
unicode = 103;
},
{
glyphname = h;
lastChange = "2025-01-13 15:31:57 +0000";
layers = (
{
layerId = m01;
shapes = (
{
attr = {
strokeHeight = 106;
strokeWidth = 106;
};
closed = 0;
nodes = (
(101,293,l),
(255,447,l),
(345,447,l),
(421,371,l),
(421,0,l)
);
},
{
attr = {
strokeHeight = 106;
strokeWidth = 106;
};
closed = 0;
nodes = (
(101,0,l),
(101,700,l)
);
}
);
width = 520;
},
{
layerId = m002;
width = 600;
}
);
metricLeft = "=n";
metricRight = "=n";
unicode = 104;
},
{
glyphname = i;
lastChange = "2025-01-08 19:16:41 +0000";
layers = (
{
layerId = m01;
shapes = (
{
attr = {
strokeHeight = 106;
strokeWidth = 106;
};
closed = 0;
nodes = (
(101,0,l),
(101,500,l)
);
},
{
attr = {
strokeHeight = 106;
strokeWidth = 106;
};
closed = 0;
nodes = (
(101,579,l),
(101,691,l)
);
}
);
width = 202;
},
{
layerId = m002;
width = 600;
}
);
metricLeft = "=n";
metricRight = "=|n";
unicode = 105;
},
{
glyphname = j;
lastChange = "2025-01-08 19:16:53 +0000";
layers = (
{
layerId = m01;
shapes = (
{
attr = {
strokeHeight = 106;
strokeWidth = 106;
};
closed = 0;
nodes = (
(101,500,l),
(101,-59,l),
(41,-119,l),
(-32,-119,l)
);
},
{
attr = {
strokeHeight = 106;
strokeWidth = 106;
};
closed = 0;
nodes = (
(101,579,l),
(101,691,l)
);
}
);
width = 202;
},
{
layerId = m002;
width = 600;
},
{
associatedMasterId = m01;
layerId = "F6496D64-3030-48B1-84FA-7162007DFF6A";
name = "3 Jan 25 at 21:16";
shapes = (
{
attr = {
strokeHeight = 106;
strokeWidth = 106;
};
closed = 0;
nodes = (
(93,500,l),
(93,-200,l)
);
},
{
attr = {
strokeHeight = 99;
strokeWidth = 99;
};
closed = 0;
nodes = (
(93,582,l),
(93,691,l)
);
}
);
width = 186;
},
{
associatedMasterId = m01;
layerId = "E39D93D4-F6A7-4E54-A763-5E1861112A68";
name = "3 Jan 25 at 21:17";
shapes = (
{
attr = {
strokeHeight = 106;
strokeWidth = 106;
};
closed = 0;
nodes = (
(93,500,l),
(93,-22,l),
(-11,-126,l)
);
},
{
attr = {
strokeHeight = 99;
strokeWidth = 99;
};
closed = 0;
nodes = (
(93,582,l),
(93,691,l)
);
}
);
width = 186;
}
);
metricRight = "=i";
unicode = 106;
},
{
glyphname = k;
lastChange = "2025-01-13 10:39:15 +0000";
layers = (
{
associatedMasterId = m01;
layerId = "6808155E-E129-4684-A44F-FDA511B12D9D";
name = "3 Jan 25 at 10:49";
shapes = (
{
attr = {
strokeHeight = 106;
strokeWidth = 106;
};
closed = 0;
nodes = (
(93,0,l),
(93,700,l)
);
},
{
attr = {
strokeHeight = 106;
strokeWidth = 106;
};
closed = 0;
nodes = (
(93,196,l),
(342,445,l),
(436,445,l)
);
},
{
attr = {
strokeHeight = 106;
strokeWidth = 106;
};
closed = 0;
nodes = (
(446,53,l),
(365,53,l),
(141,278,l)
);
}
);
width = 600;
},
{
associatedMasterId = m01;
layerId = "F3119CDD-D045-47F8-9200-24536E2C4F54";
name = "3 Jan 25 at 10:22";
shapes = (
{
attr = {
strokeHeight = 106;
strokeWidth = 106;
};
closed = 0;
nodes = (
(93,0,l),
(93,700,l)
);
},
{
attr = {
strokeHeight = 106;
strokeWidth = 106;
};
closed = 0;
nodes = (
(119,262,l),
(195,262,l),
(418,485,l)
);
},
{
attr = {
strokeHeight = 106;
strokeWidth = 106;
};
closed = 0;
nodes = (
(431,23,l),
(193,261,l)
);
}
);
width = 600;
},
{
layerId = m002;
width = 600;
},
{
associatedMasterId = m01;
layerId = "11B1FAF3-6270-4D85-8A28-7EC41DB50319";
name = "3 Jan 25 at 10:52";
shapes = (
{
attr = {
strokeHeight = 106;
strokeWidth = 106;
};
closed = 0;
nodes = (
(93,0,l),
(93,700,l)
);
},
{
attr = {
strokeHeight = 106;
strokeWidth = 106;
};
closed = 0;
nodes = (
(93,196,l),
(378,481,l)
);
},
{
attr = {
strokeHeight = 106;
strokeWidth = 106;
};
closed = 0;
nodes = (
(406,21,l),
(151,278,l)
);
}
);
width = 600;
},
{
layerId = m01;
name = Regular;
shapes = (
{
attr = {
strokeHeight = 106;
strokeWidth = 106;
};
closed = 0;
nodes = (
(101,0,l),
(101,700,l)
);
},
{
attr = {
strokeHeight = 106;
strokeWidth = 106;
};
closed = 0;
nodes = (
(101,293,l),
(265,447,l),
(333,447,l),
(399,381,l),
(399,313,l),
(284,198,l),
(284,170,l),
(435,19,l)
);
}
);
width = 500;
},
{
associatedMasterId = m01;
layerId = "4477168B-74DA-4006-947E-20060EE66DB0";
name = "12 Jan 25 at 21:39";
shapes = (
{
attr = {
strokeHeight = 106;
strokeWidth = 106;
};
closed = 0;
nodes = (
(101,0,l),
(101,700,l)
);
},
{
attr = {
strokeHeight = 106;
strokeWidth = 106;
};
closed = 0;
nodes = (
(101,293,l),
(265,447,l),
(343,447,l),
(409,381,l),
(409,293,l),
(297,181,l),
(100,181,l)
);
},
{
attr = {
strokeHeight = 106;
strokeWidth = 106;
};
closed = 0;
nodes = (
(282,191,l),
(445,19,l)
);
}
);
width = 500;
},
{
associatedMasterId = m01;
layerId = "162633C0-02A7-4028-B6D4-5A0285A35FFD";
name = "12 Jan 25 at 21:58";
shapes = (
{
attr = {
strokeHeight = 106;
strokeWidth = 106;
};
closed = 0;
nodes = (
(101,0,l),
(101,700,l)
);
},
{
attr = {
strokeHeight = 106;
strokeWidth = 106;
};
closed = 0;
nodes = (
(101,293,l),
(265,447,l),
(343,447,l),
(409,381,l),
(409,283,l),
(276,138,l),
(264,138,l),
(254,149,l),
(254,161,l),
(265,171,l),
(282,171,l),
(435,19,l)
);
}
);
width = 500;
},
{
associatedMasterId = m01;
layerId = "8FD044EC-CC2E-456D-AB57-D759500C1A04";
name = "13 Jan 25 at 10:38";
shapes = (
{
attr = {
strokeHeight = 106;
strokeWidth = 106;
};
closed = 0;
nodes = (
(101,0,l),
(101,700,l)
);
},
{
attr = {
strokeHeight = 106;
strokeWidth = 106;
};
closed = 0;
nodes = (
(101,293,l),
(265,447,l),
(343,447,l),
(409,381,l),
(409,283,l),
(304,178,l),
(304,150,l),
(435,19,l)
);
}
);
width = 500;
}
);
metricLeft = "=h";
unicode = 107;
},
{
glyphname = l;
lastChange = "2025-01-08 19:17:27 +0000";
layers = (
{
layerId = m01;
shapes = (
{
attr = {
strokeHeight = 106;
strokeWidth = 106;
};
closed = 0;
nodes = (
(101,0,l),
(101,700,l)
);
}
);
width = 202;
},
{
layerId = m002;
width = 600;
}
);
unicode = 108;
},
{
glyphname = m;
lastChange = "2025-01-08 19:17:35 +0000";
layers = (
{
layerId = m01;
shapes = (
{
attr = {
strokeHeight = 106;
strokeWidth = 106;
};
closed = 0;
nodes = (
(97,293,l),
(251,447,l),
(321,447,l),
(387,381,l),
(387,0,l)
);
},
{
attr = {
strokeHeight = 106;
strokeWidth = 106;
};
closed = 0;
nodes = (
(101,0,l),
(101,500,l)
);
},
{
attr = {
strokeHeight = 106;
strokeWidth = 106;
};
closed = 0;
nodes = (
(383,313,l),
(517,447,l),
(597,447,l),
(673,371,l),
(673,0,l)
);
}
);
width = 772;
},
{
layerId = m002;
width = 600;
}
);
metricLeft = "=n";
metricRight = "=n";
unicode = 109;
},
{
glyphname = n;
lastChange = "2025-01-12 23:03:01 +0000";
layers = (
{
layerId = m002;
width = 600;
},
{
associatedMasterId = m01;
layerId = "81034E8B-F81A-4C54-BC4C-E6C4D0C9B74A";
name = "3 Jan 25 at 12:09";
shapes = (
{
attr = {
strokeHeight = 106;
strokeWidth = 106;
};
closed = 0;
nodes = (
(93,0,l),
(93,333,l),
(207,447,l),
(337,447,l),
(413,371,l),
(413,0,l)
);
}
);
width = 496;
},
{
layerId = m01;
name = Regular;
shapes = (
{
attr = {
strokeHeight = 106;
strokeWidth = 106;
};
closed = 0;
nodes = (
(101,293,l),
(255,447,l),
(345,447,l),
(421,371,l),
(421,0,l)
);
},
{
attr = {
strokeHeight = 106;
strokeWidth = 106;
};
closed = 0;
nodes = (
(101,0,l),
(101,500,l)
);
}
);
width = 520;
},
{
associatedMasterId = m01;
layerId = "4FEAA716-008C-470E-92D6-28A1C3658EC0";
name = "3 Jan 25 at 12:09";
shapes = (
{
attr = {
strokeHeight = 106;
strokeWidth = 106;
};
closed = 0;
nodes = (
(413,0,l),
(413,371,l),
(337,447,l),
(300,447,l),
(229,376,l),
(195,376,l),
(124,447,l),
(93,447,l)
);
},
{
attr = {
strokeHeight = 106;
strokeWidth = 106;
};
closed = 0;
nodes = (
(93,0,l),
(93,500,l)
);
}
);
width = 496;
},
{
associatedMasterId = m01;
layerId = "2C22BE24-BD0B-417A-9520-5C1D9B4A230C";
name = "3 Jan 25 at 12:19";
shapes = (
{
attr = {
strokeHeight = 106;
strokeWidth = 106;
};
closed = 0;
nodes = (
(93,375,l),
(175,375,l),
(247,447,l),
(337,447,l),
(413,371,l),
(413,0,l)
);
},
{
attr = {
strokeHeight = 106;
strokeWidth = 106;
};
closed = 0;
nodes = (
(93,0,l),
(93,500,l)
);
}
);
width = 496;
}
);
unicode = 110;
},
{
glyphname = o;
lastChange = "2025-01-08 16:27:55 +0000";
layers = (
{
layerId = m01;
shapes = (
{
attr = {
strokeHeight = 106;
strokeWidth = 106;
};
closed = 1;
nodes = (
(325,53,l),
(431,159,l),
(431,371,l),
(355,447,l),
(199,447,l),
(93,341,l),
(93,129,l),
(169,53,l)
);
}
);
width = 524;
},
{
layerId = m002;
width = 600;
},
{
associatedMasterId = m01;
layerId = "35CAB2F8-11EB-4F62-B130-76FFE26418EF";
name = "3 Jan 25 at 15:54";
shapes = (
{
attr = {
strokeHeight = 106;
strokeWidth = 106;
};
closed = 1;
nodes = (
(325,53,l),
(411,139,l),
(411,361,l),
(325,447,l),
(169,447,l),
(83,361,l),
(83,139,l),
(169,53,l)
);
}
);
width = 494;
}
);
unicode = 111;
},
{
glyphname = p;
lastChange = "2025-01-08 19:18:10 +0000";
layers = (
{
layerId = m01;
shapes = (
{
attr = {
strokeHeight = 106;
strokeWidth = 106;
};
closed = 0;
nodes = (
(101,293,l),
(255,447,l),
(356,447,l),
(432,371,l),
(432,139,l),
(346,53,l),
(101,53,l)
);
},
{
attr = {
strokeHeight = 106;
strokeWidth = 106;
};
closed = 0;
nodes = (
(101,-187,l),
(101,500,l)
);
}
);
width = 525;
},
{
layerId = m002;
width = 600;
},
{
associatedMasterId = m01;
layerId = "6AD750F8-0B40-456A-9038-3325E39E9056";
name = "3 Jan 25 at 10:57";
shapes = (
{
attr = {
strokeHeight = 106;
strokeWidth = 106;
};
closed = 0;
nodes = (
(93,293,l),
(247,447,l),
(347,447,l),
(433,361,l),
(433,139,l),
(347,53,l),
(165,53,l),
(93,125,l)
);
},
{
attr = {
strokeHeight = 106;
strokeWidth = 106;
};
closed = 0;
nodes = (
(93,-187,l),
(93,500,l)
);
}
);
width = 600;
}
);
metricLeft = "=h";
metricRight = "=o";
unicode = 112;
},
{
glyphname = q;
lastChange = "2025-01-08 19:18:30 +0000";
layers = (
{
layerId = m01;
shapes = (
{
attr = {
strokeHeight = 106;
strokeWidth = 106;
};
closed = 0;
nodes = (
(425,500,l),
(425,-200,l)
);
},
{
attr = {
strokeHeight = 106;
strokeWidth = 106;
};
closed = 0;
nodes = (
(425,207,l),
(271,53,l),
(169,53,l),
(93,129,l),
(93,361,l),
(179,447,l),
(425,447,l)
);
}
);
width = 526;
},
{
layerId = m002;
width = 600;
},
{
associatedMasterId = m01;
layerId = "69341185-57B3-42D5-B1AB-E348C724CC79";
name = "3 Jan 25 at 11:00";
shapes = (
{
attr = {
strokeHeight = 106;
strokeWidth = 106;
};
closed = 0;
nodes = (
(415,207,l),
(261,53,l),
(169,53,l),
(83,139,l),
(83,361,l),
(169,447,l),
(329,447,l),
(415,361,l),
(415,-200,l)
);
}
);
width = 508;
}
);
metricLeft = "=o";
metricRight = "=|n";
unicode = 113;
},
{
glyphname = r;
lastChange = "2025-01-12 22:05:43 +0000";
layers = (
{
layerId = m01;
shapes = (
{
attr = {
strokeHeight = 106;
strokeWidth = 106;
};
closed = 0;
nodes = (
(101,263,l),
(322,484,l)
);
},
{
attr = {
strokeHeight = 106;
strokeWidth = 106;
};
closed = 0;
nodes = (
(101,0,l),
(101,500,l)
);
}
);
width = 343;
},
{
layerId = m002;
width = 600;
},
{
associatedMasterId = m01;
layerId = "6EA699C0-1EFB-4874-A840-D761B8140803";
name = "3 Jan 25 at 11:10";
shapes = (
{
attr = {
strokeHeight = 106;
strokeWidth = 106;
};
closed = 0;
nodes = (
(93,293,l),
(247,447,l),
(338,447,l)
);
},
{
attr = {
strokeHeight = 106;
strokeWidth = 106;
};
closed = 0;
nodes = (
(93,0,l),
(93,500,l)
);
}
);
width = 353;
},
{
associatedMasterId = m01;
layerId = "6C9E12D4-DA25-4E87-AC15-D67F363644B5";
name = "3 Jan 25 at 12:06";
shapes = (
{
attr = {
strokeHeight = 106;
strokeWidth = 106;
};
closed = 0;
nodes = (
(93,0,l),
(93,373,l),
(167,447,l),
(301,447,l)
);
}
);
width = 311;
},
{
associatedMasterId = m01;
layerId = "99212D30-26B1-460B-8067-FC2B69656232";
name = "12 Jan 25 at 22:00";
shapes = (
{
attr = {
strokeHeight = 106;
strokeWidth = 106;
};
closed = 0;
nodes = (
(101,367,l),
(205,367,l),
(322,484,l)
);
},
{
attr = {
strokeHeight = 106;
strokeWidth = 106;
};
closed = 0;
nodes = (
(101,0,l),
(101,500,l)
);
}
);
width = 343;
},
{
associatedMasterId = m01;
layerId = "AE2CB73A-4E5B-49D1-A4C7-3DC717FC66BE";
name = "12 Jan 25 at 22:05";
shapes = (
{
attr = {
strokeHeight = 106;
strokeWidth = 106;
};
closed = 0;
nodes = (
(101,357,l),
(185,357,l),
(275,447,l),
(338,447,l)
);
},
{
attr = {
strokeHeight = 106;
strokeWidth = 106;
};
closed = 0;
nodes = (
(101,0,l),
(101,500,l)
);
}
);
width = 343;
}
);
metricLeft = "=n";
unicode = 114;
},
{
glyphname = s;
lastChange = "2025-01-08 19:25:18 +0000";
layers = (
{
layerId = m002;
width = 600;
},
{
associatedMasterId = m01;
layerId = "EF444528-4125-4CDA-9248-38D6C778D99E";
name = "8 Jan 25 at 19:22";
shapes = (
{
attr = {
strokeHeight = 106;
strokeWidth = 106;
};
closed = 0;
nodes = (
(38,53,l),
(274,53,l),
(380,159,l),
(380,198,l),
(324,254,l),
(135,254,l),
(79,310,l),
(79,341,l),
(185,447,l),
(391,447,l)
);
}
);
width = 466;
},
{
layerId = m01;
name = Regular;
shapes = (
{
attr = {
strokeHeight = 106;
strokeWidth = 106;
};
closed = 0;
nodes = (
(38,53,l),
(314,53,l),
(380,119,l),
(380,188,l),
(314,254,l),
(145,254,l),
(79,320,l),
(79,381,l),
(145,447,l),
(391,447,l)
);
}
);
width = 466;
},
{
associatedMasterId = m01;
layerId = "1DE3BB1B-E622-4ECC-AEE6-662E1865C8B2";
name = "8 Jan 25 at 19:23";
shapes = (
{
attr = {
strokeHeight = 106;
strokeWidth = 106;
};
closed = 0;
nodes = (
(42,53,l),
(298,53,l),
(384,139,l),
(384,188,l),
(318,254,l),
(149,254,l),
(83,320,l),
(83,361,l),
(169,447,l),
(405,447,l)
);
}
);
width = 464;
}
);
unicode = 115;
},
{
glyphname = t;
lastChange = "2025-01-08 19:26:24 +0000";
layers = (
{
layerId = m01;
shapes = (
{
attr = {
strokeHeight = 106;
strokeWidth = 106;
};
closed = 0;
nodes = (
(300,53,l),
(175,53,l),
(99,129,l),
(99,620,l)
);
},
{
attr = {
strokeHeight = 99;
strokeWidth = 99;
};
closed = 0;
nodes = (
(99,450,l),
(300,450,l)
);
}
);
width = 328;
},
{
layerId = m002;
width = 600;
}
);
unicode = 116;
},
{
glyphname = u;
lastChange = "2025-01-08 19:27:04 +0000";
layers = (
{
layerId = m01;
shapes = (
{
attr = {
strokeHeight = 106;
strokeWidth = 106;
};
closed = 0;
nodes = (
(99,500,l),
(99,119,l),
(165,53,l),
(260,53,l),
(414,207,l)
);
},
{
attr = {
strokeHeight = 106;
strokeWidth = 106;
};
closed = 0;
nodes = (
(414,0,l),
(414,500,l)
);
}
);
width = 515;
},
{
layerId = m002;
width = 600;
}
);
metricLeft = "=|n";
metricRight = "=|n";
unicode = 117;
},
{
glyphname = v;
lastChange = "2025-01-08 19:27:32 +0000";
layers = (
{
layerId = m01;
shapes = (
{
attr = {
strokeHeight = 106;
strokeWidth = 106;
};
closed = 0;
nodes = (
(93,500,l),
(93,151,l),
(191,53,l),
(224,53,l),
(382,211,l),
(382,500,l)
);
}
);
width = 475;
},
{
layerId = m002;
width = 600;
}
);
unicode = 118;
},
{
glyphname = w;
lastChange = "2025-01-08 19:28:27 +0000";
layers = (
{
layerId = m01;
shapes = (
{
attr = {
strokeHeight = 106;
strokeWidth = 106;
};
closed = 0;
nodes = (
(93,500,l),
(93,132,l),
(172,53,l),
(225,53,l),
(343,171,l),
(343,500,l)
);
},
{
attr = {
strokeHeight = 106;
strokeWidth = 106;
};
closed = 0;
nodes = (
(323,151,l),
(421,53,l),
(475,53,l),
(593,171,l),
(593,500,l)
);
}
);
width = 686;
},
{
layerId = m002;
width = 600;
},
{
associatedMasterId = m01;
layerId = "6038D064-CA52-4D68-9BE2-FB472675EE1D";
name = "3 Jan 25 at 12:36";
shapes = (
{
attr = {
strokeHeight = 106;
strokeWidth = 106;
};
closed = 0;
nodes = (
(73,500,l),
(73,161,l),
(181,53,l),
(214,53,l),
(322,161,l),
(322,500,l)
);
},
{
attr = {
strokeHeight = 106;
strokeWidth = 106;
};
closed = 0;
nodes = (
(324,500,l),
(324,161,l),
(432,53,l),
(465,53,l),
(573,161,l),
(573,500,l)
);
}
);
width = 646;
},
{
associatedMasterId = m01;
layerId = "3FF52067-DD43-4351-AB84-F99C59F9F6D6";
name = "3 Jan 25 at 14:39";
shapes = (
{
attr = {
strokeHeight = 106;
strokeWidth = 106;
};
closed = 0;
nodes = (
(72,500,l),
(72,119,l),
(138,53,l),
(184,53,l),
(322,191,l),
(322,500,l)
);
},
{
attr = {
strokeHeight = 106;
strokeWidth = 106;
};
closed = 0;
nodes = (
(322,151,l),
(420,53,l),
(434,53,l),
(572,191,l),
(572,500,l)
);
}
);
width = 646;
}
);
metricLeft = "=v";
metricRight = "=v";
unicode = 119;
},
{
glyphname = x;
lastChange = "2025-01-08 19:28:53 +0000";
layers = (
{
layerId = m002;
width = 600;
},
{
associatedMasterId = m01;
layerId = "0611C930-CBA1-4A3E-B698-C9E86E6ECF48";
name = "2 Jan 25 at 23:44";
shapes = (
{
attr = {
strokeWidth = 106;
};
closed = 0;
nodes = (
(73,0,l),
(73,128,l),
(332,387,l),
(332,503,l)
);
},
{
attr = {
strokeWidth = 106;
};
closed = 0;
nodes = (
(338,0,l),
(338,128,l),
(79,387,l),
(79,503,l)
);
}
);
width = 411;
},
{
associatedMasterId = m01;
layerId = "B0DA336B-7544-463D-B515-367E6037B3E7";
name = "3 Jan 25 at 09:57";
shapes = (
{
attr = {
strokeWidth = 106;
};
closed = 0;
nodes = (
(121,0,l),
(121,138,l),
(255,271,l)
);
},
{
attr = {
strokeWidth = 106;
};
closed = 0;
nodes = (
(386,0,l),
(386,138,l),
(127,397,l),
(127,503,l)
);
},
{
attr = {
strokeWidth = 106;
};
closed = 0;
nodes = (
(323,310,l),
(390,377,l),
(390,503,l)
);
}
);
width = 600;
},
{
layerId = m01;
name = Regular;
shapes = (
{
attr = {
strokeWidth = 106;
};
closed = 0;
nodes = (
(93,0,l),
(93,95,l),
(246,248,l),
(246,257,l),
(106,397,l),
(106,500,l)
);
},
{
attr = {
strokeWidth = 106;
};
closed = 0;
nodes = (
(412,0,l),
(412,89,l),
(252,249,l),
(252,258,l),
(405,411,l),
(405,500,l)
);
}
);
width = 505;
},
{
associatedMasterId = m01;
layerId = "32BAEC41-54F7-40F3-9D86-F42B6AD63B53";
name = "3 Jan 25 at 12:41";
shapes = (
{
attr = {
strokeWidth = 106;
};
closed = 0;
nodes = (
(63,0,l),
(63,122,l),
(196,255,l),
(196,264,l),
(66,374,l),
(66,500,l)
);
},
{
attr = {
strokeWidth = 106;
};
closed = 0;
nodes = (
(336,0,l),
(336,122,l),
(203,255,l),
(203,264,l),
(323,374,l),
(323,500,l)
);
}
);
width = 411;
},
{
associatedMasterId = m01;
layerId = "A13E7D78-22EC-474C-B691-E0DE963B1F03";
name = "3 Jan 25 at 14:26";
shapes = (
{
attr = {
strokeWidth = 106;
};
closed = 0;
nodes = (
(79,0,l),
(79,174,l),
(164,259,l),
(302,259,l),
(375,332,l),
(375,500,l)
);
},
{
attr = {
strokeWidth = 106;
};
closed = 0;
nodes = (
(384,0,l),
(384,109,l),
(88,407,l),
(88,500,l)
);
}
);
width = 457;
},
{
associatedMasterId = m01;
layerId = "C65F14D2-6099-47A6-8679-667EFDB791D4";
name = "3 Jan 25 at 14:33";
shapes = (
{
attr = {
strokeWidth = 106;
};
closed = 0;
nodes = (
(83,0,l),
(83,58,l),
(178,153,l),
(178,295,l)
);
},
{
attr = {
strokeWidth = 106;
};
closed = 0;
nodes = (
(400,0,l),
(400,94,l),
(98,396,l),
(98,500,l)
);
},
{
attr = {
strokeWidth = 106;
};
closed = 0;
nodes = (
(385,500,l),
(385,426,l),
(302,343,l),
(302,203,l)
);
}
);
width = 483;
},
{
associatedMasterId = m01;
layerId = "F6DC7D83-AB6A-4944-A52F-F672085E8AA1";
name = "4 Jan 25 at 09:46";
shapes = (
{
attr = {
strokeWidth = 106;
};
closed = 0;
nodes = (
(83,0,l),
(83,148,l),
(188,253,l),
(292,253,l),
(385,346,l),
(385,500,l)
);
},
{
attr = {
strokeWidth = 106;
};
closed = 0;
nodes = (
(400,0,l),
(400,94,l),
(98,396,l),
(98,500,l)
);
}
);
width = 483;
}
);
metricLeft = "=v";
metricRight = "=v";
unicode = 120;
},
{
glyphname = y;
lastChange = "2025-01-08 19:29:35 +0000";
layers = (
{
layerId = m002;
width = 600;
},
{
associatedMasterId = m01;
layerId = "8801DC8D-0A86-45BB-9B76-EF7092EB933F";
name = "6 Jan 25 at 13:32";
shapes = (
{
attr = {
strokeHeight = 106;
strokeWidth = 106;
};
closed = 0;
nodes = (
(-7,500,l),
(83,410,l),
(83,119,l),
(149,53,l),
(249,53,l),
(403,207,l)
);
},
{
attr = {
strokeHeight = 106;
strokeWidth = 106;
};
closed = 0;
nodes = (
(313,500,l),
(403,410,l),
(403,-68,l),
(324,-147,l),
(80,-147,l)
);
}
);
width = 496;
},
{
layerId = m01;
name = Regular;
shapes = (
{
attr = {
strokeHeight = 106;
strokeWidth = 106;
};
closed = 0;
nodes = (
(99,500,l),
(99,119,l),
(165,53,l),
(260,53,l),
(414,207,l)
);
},
{
attr = {
strokeHeight = 106;
strokeWidth = 106;
};
closed = 0;
nodes = (
(414,500,l),
(414,-68,l),
(335,-147,l),
(91,-147,l)
);
}
);
width = 515;
}
);
metricLeft = "=u";
metricRight = "=u";
unicode = 121;
},
{
glyphname = z;
lastChange = "2025-01-08 19:30:22 +0000";
layers = (
{
layerId = m01;
shapes = (
{
attr = {
strokeHeight = 106;
strokeWidth = 106;
};
closed = 0;
nodes = (
(53,447,l),
(379,447,l),
(379,391,l),
(97,109,l),
(97,53,l),
(442,53,l)
);
}
);
width = 480;
},
{
layerId = m002;
width = 600;
},
{
associatedMasterId = m01;
layerId = "B94CC240-4B0C-4C1F-9DB8-7A0C39E2865A";
name = "3 Jan 25 at 15:50";
shapes = (
{
attr = {
strokeHeight = 106;
strokeWidth = 106;
};
closed = 0;
nodes = (
(29,447,l),
(385,447,l),
(385,379,l),
(255,249,l),
(181,249,l),
(51,119,l),
(51,53,l),
(458,53,l)
);
}
);
width = 478;
}
);
unicode = 122;
},
{
glyphname = zero;
lastChange = "2025-01-08 20:44:13 +0000";
layers = (
{
layerId = m01;
shapes = (
{
attr = {
strokeHeight = 119;
strokeWidth = 119;
};
closed = 1;
nodes = (
(408,59,l),
(572,223,l),
(572,550,l),
(454,668,l),
(258,668,l),
(94,504,l),
(94,177,l),
(212,59,l)
);
},
{
attr = {
strokeHeight = 119;
strokeWidth = 119;
};
closed = 0;
nodes = (
(333,480,l),
(333,254,l)
);
}
);
width = 667;
},
{
layerId = m002;
width = 600;
},
{
associatedMasterId = m01;
layerId = "ADA2318D-3B54-4D83-AD5D-E022B0892E59";
name = "6 Jan 25 at 16:46";
shapes = (
{
attr = {
strokeHeight = 119;
strokeWidth = 119;
};
closed = 1;
nodes = (
(433,59,l),
(518,144,l),
(518,305,l),
(597,384,l),
(597,550,l),
(479,668,l),
(253,668,l),
(183,598,l),
(183,469,l),
(89,375,l),
(89,177,l),
(207,59,l)
);
},
{
attr = {
strokeHeight = 119;
strokeWidth = 119;
};
closed = 0;
nodes = (
(347,487,l),
(347,261,l)
);
}
);
width = 697;
},
{
associatedMasterId = m01;
layerId = "2298FEBD-1A77-4228-98A5-7CF270644019";
name = "6 Jan 25 at 16:48";
shapes = (
{
attr = {
strokeHeight = 119;
strokeWidth = 119;
};
closed = 1;
nodes = (
(433,59,l),
(518,144,l),
(518,305,l),
(597,384,l),
(597,550,l),
(479,668,l),
(253,668,l),
(183,598,l),
(183,469,l),
(89,375,l),
(89,177,l),
(207,59,l)
);
},
{
attr = {
strokeHeight = 119;
strokeWidth = 119;
};
closed = 0;
nodes = (
(418,454,l),
(258,294,l)
);
}
);
width = 600;
}
);
unicode = 48;
},
{
glyphname = one;
lastChange = "2025-01-13 15:24:17 +0000";
layers = (
{
layerId = m01;
shapes = (
{
attr = {
strokeHeight = 105;
strokeWidth = 112;
};
closed = 0;
nodes = (
(187,0,l),
(187,615,l),
(127,675,l),
(10,675,l)
);
}
);
width = 307;
},
{
layerId = m002;
width = 600;
},
{
associatedMasterId = m01;
layerId = "F26C9335-5FF3-4EFE-8908-D27DBE8019A3";
name = "6 Jan 25 at 16:53";
shapes = (
{
attr = {
strokeHeight = 119;
strokeWidth = 119;
};
closed = 0;
nodes = (
(249,0,l),
(249,668,l),
(200,668,l),
(92,560,l),
(-5,560,l)
);
}
);
width = 339;
},
{
associatedMasterId = m01;
layerId = "1302121F-C62F-4E27-8FA3-47AE686E3F53";
name = "6 Jan 25 at 16:54";
shapes = (
{
attr = {
strokeHeight = 119;
strokeWidth = 119;
};
closed = 0;
nodes = (
(249,0,l),
(249,668,l),
(200,668,l),
(92,560,l),
(92,451,l)
);
},
{
closed = 0;
nodes = (
(239,-10,l)
);
}
);
width = 339;
},
{
associatedMasterId = m01;
layerId = "5586AD36-D2C8-45E4-AA43-E8A5FA77CF81";
name = "6 Jan 25 at 16:55";
shapes = (
{
attr = {
strokeHeight = 119;
strokeWidth = 119;
};
closed = 0;
nodes = (
(249,0,l),
(249,165,l),
(173,241,l),
(173,363,l),
(249,439,l),
(249,668,l),
(200,668,l),
(72,540,l)
);
}
);
width = 339;
},
{
associatedMasterId = m01;
layerId = "0048FDC1-CB27-40C7-A575-A6D79ABA6C05";
name = "6 Jan 25 at 16:57";
shapes = (
{
attr = {
strokeHeight = 119;
strokeWidth = 119;
};
closed = 0;
nodes = (
(229,0,l),
(229,668,l),
(180,668,l),
(52,540,l)
);
}
);
width = 329;
}
);
unicode = 49;
},
{
glyphname = two;
lastChange = "2025-01-08 20:50:19 +0000";
layers = (
{
layerId = m01;
shapes = (
{
attr = {
strokeHeight = 119;
strokeWidth = 119;
};
closed = 0;
nodes = (
(107,485,l),
(107,578,l),
(197,668,l),
(366,668,l),
(456,578,l),
(456,497,l),
(104,145,l),
(104,59,l),
(525,59,l)
);
}
);
width = 570;
},
{
layerId = m002;
width = 600;
},
{
associatedMasterId = m01;
layerId = "78F28DCF-ED4A-4B9F-8C6D-CE910C84C0F8";
name = "8 Jan 25 at 13:45";
shapes = (
{
attr = {
strokeHeight = 119;
strokeWidth = 119;
};
closed = 0;
nodes = (
(131,485,l),
(131,569,l),
(230,668,l),
(381,668,l),
(480,569,l),
(480,501,l),
(315,336,l),
(268,336,l),
(111,179,l),
(111,109,l),
(161,59,l),
(570,59,l)
);
}
);
width = 600;
},
{
associatedMasterId = m01;
layerId = "D95F5446-9278-433A-B3A4-E72A62328A2E";
name = "8 Jan 25 at 20:45";
shapes = (
{
attr = {
strokeHeight = 119;
strokeWidth = 119;
};
closed = 0;
nodes = (
(102,485,l),
(102,578,l),
(192,668,l),
(361,668,l),
(451,578,l),
(451,501,l),
(99,149,l),
(99,109,l),
(149,59,l),
(523,59,l)
);
}
);
width = 563;
}
);
unicode = 50;
},
{
glyphname = three;
lastChange = "2025-01-08 20:51:37 +0000";
layers = (
{
layerId = m002;
width = 600;
},
{
associatedMasterId = m01;
layerId = "38D6E29E-E190-4C7A-A6E9-B1D8D7065C6F";
name = "8 Jan 25 at 14:14";
shapes = (
{
attr = {
strokeHeight = 119;
strokeWidth = 119;
};
closed = 0;
nodes = (
(131,485,l),
(131,568,l),
(231,668,l),
(380,668,l),
(480,568,l),
(480,500,l),
(407,427,l),
(299,427,l),
(255,381,l),
(255,345,l),
(299,301,l),
(407,301,l),
(480,228,l),
(480,159,l),
(380,59,l),
(208,59,l),
(128,139,l),
(128,211,l)
);
}
);
width = 600;
},
{
associatedMasterId = m01;
layerId = "4F5DEC3B-4290-4A0E-8E1A-ADE6164BF768";
name = "8 Jan 25 at 20:48";
shapes = (
{
attr = {
strokeHeight = 119;
strokeWidth = 119;
};
closed = 0;
nodes = (
(100,485,l),
(100,568,l),
(200,668,l),
(349,668,l),
(449,568,l),
(449,511,l),
(332,394,l),
(332,358,l),
(449,241,l),
(449,159,l),
(349,59,l),
(177,59,l),
(97,139,l),
(97,211,l)
);
}
);
width = 560;
},
{
layerId = m01;
name = Regular;
shapes = (
{
attr = {
strokeHeight = 119;
strokeWidth = 119;
};
closed = 0;
nodes = (
(104,495,l),
(104,578,l),
(194,668,l),
(378,668,l),
(468,578,l),
(468,469,l),
(371,372,l),
(264,372,l),
(375,372,l),
(478,269,l),
(478,149,l),
(388,59,l),
(181,59,l),
(101,139,l),
(101,211,l)
);
}
);
width = 580;
}
);
unicode = 51;
},
{
glyphname = four;
lastChange = "2025-01-08 20:52:03 +0000";
layers = (
{
layerId = m01;
shapes = (
{
attr = {
strokeHeight = 119;
strokeWidth = 119;
};
closed = 0;
nodes = (
(409,0,l),
(409,728,l)
);
},
{
attr = {
strokeHeight = 119;
strokeWidth = 119;
};
closed = 0;
nodes = (
(188,728,l),
(188,479,l),
(89,370,l),
(89,289,l),
(149,229,l),
(564,229,l)
);
}
);
width = 599;
},
{
layerId = m002;
width = 600;
},
{
associatedMasterId = m01;
layerId = "B382652B-E60A-4823-BE0B-41352398D95A";
name = "8 Jan 25 at 14:30";
shapes = (
{
attr = {
strokeHeight = 119;
strokeWidth = 119;
};
closed = 0;
nodes = (
(439,0,l),
(439,628,l),
(399,668,l),
(380,668,l),
(38,326,l),
(38,289,l),
(98,229,l),
(584,229,l)
);
}
);
width = 600;
},
{
associatedMasterId = m01;
layerId = "FDD36D7E-8FD8-4512-B990-B3C3459D81E1";
name = "8 Jan 25 at 14:31";
shapes = (
{
attr = {
strokeHeight = 119;
strokeWidth = 119;
};
closed = 0;
nodes = (
(379,0,l),
(379,628,l),
(339,668,l),
(320,668,l),
(99,447,l),
(99,289,l),
(159,229,l),
(524,229,l)
);
}
);
width = 564;
},
{
associatedMasterId = m01;
layerId = "F06C2BB5-9EC8-480B-BA2C-535154E5531C";
name = "8 Jan 25 at 14:37";
shapes = (
{
attr = {
strokeHeight = 119;
strokeWidth = 119;
};
closed = 0;
nodes = (
(379,0,l),
(379,728,l)
);
},
{
attr = {
strokeHeight = 119;
strokeWidth = 119;
};
closed = 0;
nodes = (
(89,728,l),
(89,309,l),
(169,229,l),
(534,229,l)
);
}
);
width = 564;
},
{
associatedMasterId = m01;
layerId = "52734CFD-4486-49E2-A493-30FD77040580";
name = "8 Jan 25 at 14:43";
shapes = (
{
attr = {
strokeHeight = 119;
strokeWidth = 119;
};
closed = 0;
nodes = (
(419,0,l),
(419,668,l),
(389,668,l),
(99,378,l),
(99,279,l),
(149,229,l),
(574,229,l)
);
}
);
width = 594;
}
);
unicode = 52;
},
{
glyphname = five;
lastChange = "2025-01-08 20:53:29 +0000";
layers = (
{
layerId = m01;
shapes = (
{
attr = {
strokeHeight = 119;
strokeWidth = 119;
};
closed = 0;
nodes = (
(502,668,l),
(156,668,l),
(106,618,l),
(106,409,l),
(141,374,l),
(191,374,l),
(249,432,l),
(389,432,l),
(489,332,l),
(489,159,l),
(389,59,l),
(173,59,l),
(78,154,l)
);
}
);
width = 589;
},
{
layerId = m002;
width = 600;
}
);
unicode = 53;
},
{
glyphname = six;
lastChange = "2025-01-13 15:21:43 +0000";
layers = (
{
layerId = m002;
width = 600;
},
{
associatedMasterId = m01;
layerId = "8116576C-3CCB-4E7D-ADF3-CD916AC2AA13";
name = "8 Jan 25 at 15:50";
shapes = (
{
attr = {
strokeHeight = 119;
strokeWidth = 119;
};
closed = 0;
nodes = (
(484,668,l),
(287,668,l),
(113,494,l),
(113,126,l),
(180,59,l),
(392,59,l),
(492,159,l),
(492,332,l),
(384,440,l),
(280,440,l),
(113,273,l)
);
}
);
width = 600;
},
{
layerId = m01;
name = Regular;
shapes = (
{
attr = {
strokeHeight = 119;
strokeWidth = 119;
};
closed = 0;
nodes = (
(443,717,l),
(94,368,l),
(94,157,l),
(191,60,l),
(378,60,l),
(478,160,l),
(478,353,l),
(380,451,l),
(177,451,l)
);
}
);
width = 573;
},
{
associatedMasterId = m01;
layerId = "85DA22C1-2C09-483D-91CA-5271F7BB9E86";
name = "13 Jan 25 at 15:18";
shapes = (
{
attr = {
strokeHeight = 119;
strokeWidth = 119;
};
closed = 0;
nodes = (
(483,668,l),
(227,668,l),
(94,539,l),
(94,157,l),
(191,60,l),
(378,60,l),
(478,160,l),
(478,353,l),
(380,451,l),
(247,451,l),
(94,298,l)
);
}
);
width = 573;
}
);
unicode = 54;
},
{
glyphname = seven;
lastChange = "2025-01-08 20:54:44 +0000";
layers = (
{
layerId = m002;
width = 600;
},
{
associatedMasterId = m01;
layerId = "19669AF3-6960-4BB3-985B-8B306CE860D8";
name = "8 Jan 25 at 15:33";
shapes = (
{
attr = {
strokeHeight = 119;
strokeWidth = 119;
};
closed = 0;
nodes = (
(287,0,l),
(287,271,l),
(532,516,l),
(532,668,l),
(98,668,l)
);
}
);
width = 600;
},
{
layerId = m01;
name = Regular;
shapes = (
{
attr = {
strokeHeight = 119;
strokeWidth = 119;
};
closed = 0;
nodes = (
(275,0,l),
(275,321,l),
(460,516,l),
(460,638,l),
(430,668,l),
(137,668,l),
(87,608,l),
(87,530,l)
);
}
);
width = 550;
},
{
associatedMasterId = m01;
layerId = "AF8A12AE-1BBA-4781-AC21-E4172C701D49";
name = "8 Jan 25 at 15:33";
shapes = (
{
attr = {
strokeHeight = 119;
strokeWidth = 119;
};
closed = 0;
nodes = (
(239,0,l),
(239,301,l),
(454,516,l),
(454,668,l),
(20,668,l)
);
}
);
width = 534;
},
{
associatedMasterId = m01;
layerId = "2359E2F6-C7BD-4997-A259-151C016624E8";
name = "8 Jan 25 at 15:57";
shapes = (
{
attr = {
strokeHeight = 119;
strokeWidth = 119;
};
closed = 0;
nodes = (
(269,0,l),
(269,321,l),
(454,516,l),
(454,668,l),
(131,668,l),
(81,608,l),
(81,530,l)
);
}
);
width = 534;
}
);
unicode = 55;
},
{
glyphname = eight;
lastChange = "2025-01-08 20:55:02 +0000";
layers = (
{
layerId = m002;
width = 600;
},
{
associatedMasterId = m01;
layerId = "DEF406E7-D8BB-439F-9A00-1261FB23CE01";
name = "8 Jan 25 at 15:47";
shapes = (
{
attr = {
strokeHeight = 119;
strokeWidth = 119;
};
closed = 0;
nodes = (
(357,392,l),
(462,498,l),
(462,589,l),
(383,668,l),
(240,668,l),
(171,599,l),
(171,505,l),
(265,411,l),
(324,411,l),
(497,238,l),
(497,166,l),
(392,60,l),
(231,60,l),
(126,166,l),
(126,309,l),
(236,419,l)
);
}
);
width = 600;
},
{
layerId = m01;
name = Regular;
shapes = (
{
attr = {
strokeHeight = 119;
strokeWidth = 119;
};
closed = 1;
nodes = (
(365,60,l),
(470,166,l),
(470,289,l),
(365,394,l),
(204,394,l),
(99,289,l),
(99,166,l),
(204,60,l)
);
},
{
attr = {
strokeHeight = 119;
strokeWidth = 119;
};
closed = 1;
nodes = (
(356,394,l),
(435,474,l),
(435,589,l),
(356,668,l),
(213,668,l),
(134,589,l),
(134,474,l),
(213,394,l)
);
}
);
width = 570;
},
{
associatedMasterId = m01;
layerId = "8121B5CB-1DAA-423B-A716-2BE50C674C56";
name = "8 Jan 25 at 15:47";
shapes = (
{
attr = {
strokeHeight = 119;
strokeWidth = 119;
};
closed = 0;
nodes = (
(328,350,l),
(442,464,l),
(442,589,l),
(363,668,l),
(230,668,l),
(162,600,l),
(162,514,l),
(457,219,l),
(457,126,l),
(392,60,l),
(231,60,l),
(126,166,l),
(126,279,l),
(231,384,l)
);
}
);
width = 600;
}
);
unicode = 56;
},
{
glyphname = period;
lastChange = "2025-01-12 22:14:15 +0000";
layers = (
{
layerId = m01;
shapes = (
{
closed = 1;
nodes = (
(165,132,l),
(37,132,l),
(37,0,l),
(165,0,l)
);
}
);
width = 219;
},
{
layerId = m002;
width = 600;
},
{
associatedMasterId = m01;
layerId = "92A21FF8-3034-48B9-ACC4-5DE18C9B9498";
name = "12 Jan 25 at 22:12";
shapes = (
{
closed = 1;
nodes = (
(165,117,l),
(53,117,l),
(53,0,l),
(165,0,l)
);
}
);
width = 219;
}
);
unicode = 46;
},
{
glyphname = comma;
lastChange = "2025-01-12 22:15:34 +0000";
layers = (
{
layerId = m002;
width = 600;
},
{
associatedMasterId = m01;
layerId = "637FAEF9-6B83-4F53-A67B-E5390F8D2170";
name = "12 Jan 25 at 20:45";
shapes = (
{
attr = {
strokeHeight = 91;
strokeWidth = 98;
};
closed = 0;
nodes = (
(115,109,l),
(115,-20,l),
(55,-80,l)
);
}
);
width = 224;
},
{
layerId = m01;
name = Regular;
shapes = (
{
closed = 1;
nodes = (
(168,0,l),
(168,132,l),
(40,132,l),
(40,-128,l)
);
}
);
width = 208;
},
{
associatedMasterId = m01;
layerId = "9D0EC484-1B3D-4191-BA71-534073C6DF7A";
name = "12 Jan 25 at 20:50";
shapes = (
{
closed = 0;
nodes = (
(96,-116,l),
(171,-41,l),
(171,109,l)
);
},
{
closed = 0;
nodes = (
(56,-76,l),
(115,-17,l),
(115,109,l)
);
},
{
closed = 0;
nodes = (
(76,-96,l),
(143,-29,l),
(143,109,l)
);
},
{
closed = 0;
nodes = (
(86,-106,l),
(157,-35,l),
(157,109,l)
);
},
{
closed = 0;
nodes = (
(66,-86,l),
(129,-23,l),
(129,109,l)
);
},
{
closed = 0;
nodes = (
(36,-56,l),
(87,-5,l),
(87,109,l)
);
},
{
closed = 0;
nodes = (
(46,-66,l),
(101,-11,l),
(101,109,l)
);
},
{
closed = 0;
nodes = (
(26,-46,l),
(73,1,l),
(73,109,l)
);
}
);
visible = 1;
width = 225;
},
{
associatedMasterId = m01;
layerId = "B34B22D8-06BC-458A-8235-A1AF7F8C0AF2";
name = "12 Jan 25 at 21:16";
shapes = (
{
closed = 0;
nodes = (
(75,-96,l),
(171,0,l),
(171,109,l)
);
},
{
closed = 0;
nodes = (
(47,-68,l),
(115,0,l),
(115,109,l)
);
},
{
closed = 0;
nodes = (
(61,-82,l),
(143,0,l),
(143,109,l)
);
},
{
closed = 0;
nodes = (
(68,-89,l),
(157,0,l),
(157,109,l)
);
},
{
closed = 0;
nodes = (
(54,-75,l),
(129,0,l),
(129,109,l)
);
},
{
closed = 0;
nodes = (
(33,-54,l),
(87,0,l),
(87,109,l)
);
},
{
closed = 0;
nodes = (
(40,-61,l),
(101,0,l),
(101,109,l)
);
},
{
closed = 0;
nodes = (
(26,-47,l),
(73,0,l),
(73,109,l)
);
}
);
width = 225;
},
{
associatedMasterId = m01;
layerId = "23844B5D-1E50-4F90-B31C-F1CF6FF74ECE";
name = "12 Jan 25 at 21:45";
shapes = (
{
closed = 1;
nodes = (
(171,-41,l),
(171,109,l),
(73,109,l),
(73,1,l),
(26,-46,l),
(96,-116,l)
);
}
);
width = 225;
},
{
associatedMasterId = m01;
layerId = "085615E2-FBE3-43DF-BBB0-A2053CA3301E";
name = "12 Jan 25 at 21:46";
shapes = (
{
closed = 1;
nodes = (
(171,-18,l),
(171,109,l),
(73,109,l),
(73,-116,l)
);
}
);
width = 225;
}
);
unicode = 44;
},
{
glyphname = exclam;
lastChange = "2025-01-09 14:04:58 +0000";
layers = (
{
layerId = m01;
shapes = (
{
attr = {
strokeWidth = 106;
};
closed = 0;
nodes = (
(93,728,l),
(93,172,l)
);
},
{
attr = {
strokeHeight = 106;
strokeWidth = 106;
};
closed = 0;
nodes = (
(93,110,l),
(93,0,l)
);
}
);
width = 186;
},
{
layerId = m002;
width = 600;
}
);
unicode = 33;
},
{
glyphname = exclamdown;
lastChange = "2025-01-09 16:56:11 +0000";
layers = (
{
layerId = m01;
shapes = (
{
attr = {
identifier = ID0x7ff6af2d3d40;
strokeWidth = 106;
};
closed = 0;
nodes = (
(93,328,l),
(93,-200,l)
);
},
{
attr = {
identifier = ID0x7ff6af2d3d40;
strokeHeight = 106;
strokeWidth = 106;
};
closed = 0;
nodes = (
(93,500,l),
(93,390,l)
);
}
);
width = 186;
},
{
layerId = m002;
width = 600;
}
);
unicode = 161;
},
{
glyphname = question;
lastChange = "2025-01-09 14:04:48 +0000";
layers = (
{
layerId = m01;
shapes = (
{
attr = {
strokeWidth = 106;
};
closed = 0;
nodes = (
(271,172,l),
(271,283,l),
(454,466,l),
(454,591,l),
(370,675,l),
(177,675,l),
(93,591,l),
(93,489,l)
);
},
{
attr = {
strokeHeight = 106;
strokeWidth = 106;
};
closed = 0;
nodes = (
(271,110,l),
(271,0,l)
);
}
);
width = 547;
},
{
layerId = m002;
width = 600;
},
{
associatedMasterId = m01;
layerId = "9CE25CE8-A538-4BDB-9097-502AE210A612";
name = "9 Jan 25 at 13:45";
shapes = (
{
attr = {
strokeWidth = 106;
};
closed = 0;
nodes = (
(77,551,l),
(203,675,l),
(373,675,l),
(478,570,l),
(478,466,l),
(295,283,l),
(295,166,l)
);
},
{
attr = {
strokeHeight = 106;
strokeWidth = 106;
};
closed = 0;
nodes = (
(295,106,l),
(295,0,l)
);
}
);
width = 571;
}
);
unicode = 63;
},
{
glyphname = questiondown;
lastChange = "2025-01-09 16:57:24 +0000";
layers = (
{
layerId = m01;
shapes = (
{
attr = {
identifier = ID0x7ff6af45b100;
strokeWidth = 106;
};
closed = 0;
nodes = (
(276,327,l),
(276,226,l),
(103,53,l),
(103,-73,l),
(177,-147,l),
(360,-147,l),
(444,-63,l),
(444,39,l)
);
},
{
attr = {
identifier = ID0x7ff6af45b100;
strokeHeight = 106;
strokeWidth = 106;
};
closed = 0;
nodes = (
(276,389,l),
(276,499,l)
);
}
);
width = 547;
},
{
layerId = m002;
width = 600;
}
);
unicode = 191;
},
{
glyphname = bullet;
lastChange = "2025-01-12 21:38:49 +0000";
layers = (
{
layerId = m01;
shapes = (
{
attr = {
identifier = ID0x7ff6af52c1b0;
strokeHeight = 160;
strokeWidth = 160;
};
closed = 0;
nodes = (
(142,346,l),
(142,180,l)
);
}
);
width = 284;
},
{
layerId = m002;
width = 600;
}
);
unicode = 8226;
},
{
glyphname = asterisk;
lastChange = "2025-01-09 16:11:24 +0000";
layers = (
{
layerId = m01;
shapes = (
{
attr = {
strokeHeight = 53;
strokeWidth = 53;
};
closed = 0;
nodes = (
(94,476,l),
(310,694,l)
);
},
{
attr = {
strokeHeight = 53;
strokeWidth = 53;
};
closed = 0;
nodes = (
(49,584,l),
(355,586,l)
);
},
{
attr = {
strokeHeight = 53;
strokeWidth = 53;
};
closed = 0;
nodes = (
(93,693,l),
(311,477,l)
);
},
{
attr = {
strokeHeight = 53;
strokeWidth = 53;
};
closed = 0;
nodes = (
(201,738,l),
(203,432,l)
);
}
);
width = 405;
},
{
layerId = m002;
width = 600;
},
{
associatedMasterId = m01;
layerId = "79E0BFA4-943B-494D-B48F-F3FEAD063C20";
name = "9 Jan 25 at 16:09";
shapes = (
{
attr = {
strokeHeight = 106;
strokeWidth = 106;
};
closed = 0;
nodes = (
(202,585,l),
(202,738,l)
);
},
{
attr = {
strokeHeight = 106;
strokeWidth = 106;
};
closed = 0;
nodes = (
(203,584,l),
(349,631,l)
);
},
{
attr = {
strokeHeight = 106;
strokeWidth = 106;
};
closed = 0;
nodes = (
(203,583,l),
(292,458,l)
);
},
{
attr = {
strokeHeight = 106;
strokeWidth = 106;
};
closed = 0;
nodes = (
(201,583,l),
(112,458,l)
);
},
{
attr = {
strokeHeight = 106;
strokeWidth = 106;
};
closed = 0;
nodes = (
(201,584,l),
(56,631,l)
);
}
);
width = 405;
}
);
unicode = 42;
},
{
glyphname = numbersign;
lastChange = "2025-01-11 22:27:02 +0000";
layers = (
{
layerId = m01;
shapes = (
{
attr = {
strokeHeight = 112;
strokeWidth = 105;
};
closed = 0;
nodes = (
(220,1,l),
(220,272,l),
(402,454,l),
(402,728,l)
);
},
{
attr = {
strokeHeight = 112;
strokeWidth = 105;
};
closed = 0;
nodes = (
(533,1,l),
(533,272,l),
(715,454,l),
(715,728,l)
);
},
{
attr = {
strokeHeight = 112;
strokeWidth = 105;
};
closed = 0;
nodes = (
(34,240,l),
(785,240,l)
);
},
{
attr = {
strokeHeight = 112;
strokeWidth = 105;
};
closed = 0;
nodes = (
(160,486,l),
(911,486,l)
);
}
);
width = 933;
},
{
layerId = m002;
width = 600;
}
);
unicode = 35;
},
{
glyphname = slash;
lastChange = "2025-01-11 22:43:15 +0000";
layers = (
{
layerId = m01;
shapes = (
{
attr = {
strokeHeight = 91;
strokeWidth = 98;
};
closed = 0;
nodes = (
(109,-124,l),
(109,122,l),
(209,222,l),
(209,478,l),
(309,578,l),
(309,824,l)
);
}
);
width = 418;
},
{
layerId = m002;
width = 600;
},
{
associatedMasterId = m01;
layerId = "1AAA8D7D-1D68-48B2-9E58-9E6A458C4FF7";
name = "11 Jan 25 at 22:35";
shapes = (
{
attr = {
strokeHeight = 112;
strokeWidth = 105;
};
closed = 0;
nodes = (
(67,-140,l),
(187,-20,l),
(187,296,l),
(287,396,l),
(287,722,l),
(407,842,l)
);
}
);
width = 474;
},
{
associatedMasterId = m01;
layerId = "2D05E201-3457-45EA-AE83-BD196E8A9F1A";
name = "11 Jan 25 at 22:36";
shapes = (
{
attr = {
strokeHeight = 112;
strokeWidth = 105;
};
closed = 0;
nodes = (
(102,-120,l),
(102,296,l),
(202,396,l),
(202,822,l)
);
}
);
width = 305;
}
);
unicode = 47;
},
{
glyphname = backslash;
lastChange = "2025-01-11 22:43:26 +0000";
layers = (
{
layerId = m01;
shapes = (
{
attr = {
strokeHeight = 91;
strokeWidth = 98;
};
closed = 0;
nodes = (
(309,-124,l),
(309,122,l),
(209,222,l),
(209,478,l),
(109,578,l),
(109,824,l)
);
}
);
width = 418;
},
{
layerId = m002;
width = 600;
}
);
unicode = 92;
},
{
glyphname = hyphen;
lastChange = "2025-01-09 16:44:21 +0000";
layers = (
{
layerId = m01;
shapes = (
{
attr = {
strokeHeight = 106;
strokeWidth = 106;
};
closed = 0;
nodes = (
(50,261,l),
(321,261,l)
);
}
);
width = 371;
},
{
layerId = m002;
width = 600;
}
);
unicode = 45;
},
{
glyphname = endash;
lastChange = "2025-01-09 16:38:26 +0000";
layers = (
{
layerId = m01;
shapes = (
{
attr = {
strokeHeight = 99;
strokeWidth = 99;
};
closed = 0;
nodes = (
(80,261,l),
(591,261,l)
);
}
);
width = 671;
},
{
layerId = m002;
width = 600;
}
);
unicode = 8211;
},
{
glyphname = emdash;
lastChange = "2025-01-09 16:38:13 +0000";
layers = (
{
layerId = m01;
shapes = (
{
attr = {
strokeHeight = 99;
strokeWidth = 99;
};
closed = 0;
nodes = (
(40,261,l),
(759,261,l)
);
}
);
width = 799;
},
{
layerId = m002;
width = 600;
}
);
unicode = 8212;
},
{
glyphname = underscore;
lastChange = "2025-01-11 22:49:18 +0000";
layers = (
{
layerId = m01;
shapes = (
{
attr = {
strokeHeight = 91;
strokeWidth = 98;
};
closed = 0;
nodes = (
(60,-63,l),
(538,-63,l)
);
}
);
width = 598;
},
{
layerId = m002;
width = 600;
}
);
unicode = 95;
},
{
glyphname = parenleft;
lastChange = "2025-01-09 13:54:53 +0000";
layers = (
{
layerId = m002;
width = 600;
},
{
associatedMasterId = m01;
layerId = "9401EAEF-4BA2-49EA-8288-5ED9F39BE1AA";
name = "9 Jan 25 at 13:54";
shapes = (
{
attr = {
strokeHeight = 106;
strokeWidth = 106;
};
closed = 0;
nodes = (
(257,-141,l),
(93,23,l),
(93,607,l),
(257,771,l)
);
}
);
width = 304;
},
{
layerId = m01;
name = Regular;
shapes = (
{
attr = {
strokeHeight = 106;
strokeWidth = 106;
};
closed = 0;
nodes = (
(253,-197,l),
(173,-117,l),
(173,-57,l),
(93,23,l),
(93,577,l),
(173,657,l),
(173,717,l),
(253,797,l)
);
}
);
width = 270;
}
);
unicode = 40;
},
{
glyphname = braceleft;
lastChange = "2025-01-09 16:04:49 +0000";
layers = (
{
layerId = m01;
shapes = (
{
attr = {
strokeWidth = 106;
};
closed = 0;
nodes = (
(338,-147,l),
(262,-147,l),
(203,-88,l),
(203,232,l),
(122,313,l),
(40,313,l),
(122,313,l),
(203,394,l),
(203,714,l),
(262,773,l),
(338,773,l)
);
}
);
width = 348;
},
{
associatedMasterId = m01;
layerId = "C37B9C53-7658-4F2C-81FD-1B9C1F85F26D";
name = "9 Jan 25 at 14:09";
shapes = (
{
attr = {
strokeWidth = 106;
};
closed = 0;
nodes = (
(331,-157,l),
(255,-157,l),
(196,-98,l),
(196,232,l),
(115,313,l),
(196,394,l),
(196,724,l),
(255,783,l),
(331,783,l)
);
}
);
width = 371;
},
{
associatedMasterId = m01;
layerId = "4F506DCD-66B8-4D08-8FAB-80C87A778F14";
name = "9 Jan 25 at 14:08";
shapes = (
{
attr = {
strokeWidth = 106;
};
closed = 0;
nodes = (
(384,-157,l),
(308,-157,l),
(249,-98,l),
(249,202,l),
(128,323,l),
(249,444,l),
(249,724,l),
(308,783,l),
(384,783,l)
);
}
);
width = 600;
},
{
layerId = m002;
width = 600;
}
);
unicode = 123;
},
{
glyphname = bracketleft;
lastChange = "2025-01-09 16:01:41 +0000";
layers = (
{
layerId = m01;
shapes = (
{
attr = {
strokeHeight = 106;
strokeWidth = 106;
};
closed = 0;
nodes = (
(240,-149,l),
(95,-149,l),
(95,772,l),
(240,772,l)
);
}
);
width = 250;
},
{
layerId = m002;
width = 600;
}
);
unicode = 91;
},
{
glyphname = guilsinglleft;
lastChange = "2025-01-12 22:42:23 +0000";
layers = (
{
layerId = m01;
shapes = (
{
attr = {
strokeHeight = 91;
strokeWidth = 98;
};
closed = 0;
nodes = (
(265,46,l),
(79,232,l),
(79,270,l),
(265,455,l)
);
}
);
width = 340;
},
{
layerId = m002;
width = 600;
}
);
unicode = 8249;
},
{
glyphname = quotesingle;
lastChange = "2025-01-12 22:45:44 +0000";
layers = (
{
layerId = m01;
shapes = (
{
attr = {
strokeHeight = 91;
strokeWidth = 98;
};
closed = 0;
nodes = (
(89,757,l),
(89,549,l)
);
}
);
width = 178;
},
{
layerId = m002;
width = 600;
}
);
unicode = 39;
},
{
glyphname = at;
lastChange = "2025-01-13 10:41:13 +0000";
layers = (
{
associatedMasterId = m01;
layerId = "1DB342B7-9B44-46C8-A7B0-593C5C928BC1";
name = "12 Jan 25 at 22:57";
shapes = (
{
attr = {
strokeHeight = 91;
strokeWidth = 98;
};
closed = 1;
nodes = (
(250,146,l),
(317,79,l),
(439,79,l),
(506,146,l),
(506,373,l),
(456,423,l),
(404,423,l),
(250,269,l)
);
},
{
attr = {
strokeHeight = 91;
strokeWidth = 98;
};
closed = 0;
nodes = (
(496,135,l),
(551,80,l),
(628,80,l),
(667,121,l),
(667,437,l),
(525,584,l),
(338,584,l),
(89,335,l),
(89,80,l),
(251,-82,l),
(505,-82,l),
(548,-39,l)
);
}
);
width = 756;
},
{
associatedMasterId = m01;
layerId = "909AD4DE-FE47-4EA2-B4BC-7B50BE4CE70B";
name = "12 Jan 25 at 22:59";
shapes = (
{
attr = {
strokeHeight = 91;
strokeWidth = 98;
};
closed = 1;
nodes = (
(253,160,l),
(330,83,l),
(422,83,l),
(499,160,l),
(499,367,l),
(469,397,l),
(387,397,l),
(253,263,l)
);
},
{
attr = {
strokeHeight = 91;
strokeWidth = 98;
};
closed = 0;
nodes = (
(489,149,l),
(554,84,l),
(618,84,l),
(667,135,l),
(667,444,l),
(550,561,l),
(295,561,l),
(89,355,l),
(89,77,l),
(251,-85,l),
(598,-85,l)
);
}
);
width = 756;
},
{
associatedMasterId = m01;
layerId = "701258CF-0130-4E0E-8E5B-4AD9C02923E3";
name = "13 Jan 25 at 09:59";
shapes = (
{
attr = {
strokeHeight = 91;
strokeWidth = 98;
};
closed = 1;
nodes = (
(422,88,l),
(496,161,l),
(496,360,l),
(468,388,l),
(333,388,l),
(260,315,l),
(260,161,l),
(333,88,l)
);
},
{
attr = {
strokeHeight = 91;
strokeWidth = 98;
};
closed = 0;
nodes = (
(493,139,l),
(544,88,l),
(616,88,l),
(667,139,l),
(667,444,l),
(550,561,l),
(259,561,l),
(89,391,l),
(89,77,l),
(251,-85,l),
(598,-85,l)
);
}
);
width = 756;
},
{
associatedMasterId = m01;
layerId = "9BC3BD9A-D353-49E3-926C-CFE05AE63242";
name = "13 Jan 25 at 09:31";
shapes = (
{
attr = {
strokeHeight = 91;
strokeWidth = 98;
};
closed = 1;
nodes = (
(382,91,l),
(496,204,l),
(496,363,l),
(468,391,l),
(388,391,l),
(260,263,l),
(260,144,l),
(314,91,l)
);
},
{
attr = {
strokeHeight = 91;
strokeWidth = 98;
};
closed = 0;
nodes = (
(667,0,l),
(667,444,l),
(550,561,l),
(295,561,l),
(89,355,l),
(89,77,l),
(251,-85,l),
(424,-85,l),
(496,-13,l),
(496,204,l)
);
}
);
width = 756;
},
{
associatedMasterId = m01;
layerId = "5CAD73B2-793D-40B1-A34B-04645396144E";
name = "13 Jan 25 at 10:03";
shapes = (
{
attr = {
strokeHeight = 91;
strokeWidth = 98;
};
closed = 0;
nodes = (
(496,93,l),
(496,363,l),
(468,391,l),
(388,391,l),
(260,263,l),
(260,164,l),
(334,91,l),
(575,91,l),
(667,183,l),
(667,444,l),
(550,561,l),
(295,561,l),
(89,355,l),
(89,77,l),
(251,-85,l),
(646,-85,l)
);
}
);
width = 756;
},
{
associatedMasterId = m01;
layerId = "7822042B-21E9-4B2A-BF54-287CAA001E00";
name = "13 Jan 25 at 10:08";
shapes = (
{
attr = {
strokeHeight = 91;
strokeWidth = 98;
};
closed = 0;
nodes = (
(646,-85,l),
(251,-85,l),
(89,77,l),
(89,355,l),
(295,561,l),
(550,561,l),
(667,444,l),
(667,143,l),
(615,91,l),
(548,91,l),
(496,143,l),
(496,363,l),
(468,391,l),
(388,391,l),
(260,263,l),
(260,164,l),
(334,91,l),
(407,91,l)
);
}
);
width = 756;
},
{
associatedMasterId = m01;
layerId = "8B4CBDBF-E5AD-4BFC-B396-28A297613D3F";
name = "13 Jan 25 at 09:46";
shapes = (
{
attr = {
strokeHeight = 91;
strokeWidth = 98;
};
closed = 0;
nodes = (
(550,552,l),
(295,552,l),
(109,366,l),
(109,68,l),
(271,-94,l),
(678,-94,l)
);
},
{
closed = 1;
nodes = (
(680,50,l),
(680,483,l),
(565,598,l),
(334,598,l),
(334,507,l),
(522,507,l),
(582,447,l),
(582,50,l)
);
},
{
closed = 1;
nodes = (
(492,50,l),
(594,152,l),
(594,285,l),
(450,141,l),
(376,141,l),
(344,173,l),
(344,281,l),
(376,313,l),
(594,313,l),
(594,404,l),
(334,404,l),
(246,316,l),
(246,138,l),
(334,50,l)
);
}
);
width = 740;
},
{
layerId = m002;
width = 600;
},
{
associatedMasterId = m01;
layerId = "10D41E1C-E553-422C-888F-597D8C6FB71B";
name = "13 Jan 25 at 10:18";
shapes = (
{
attr = {
strokeHeight = 91;
strokeWidth = 98;
};
closed = 0;
nodes = (
(447,552,l),
(295,552,l),
(109,366,l),
(109,68,l),
(271,-94,l),
(545,-94,l),
(734,95,l),
(734,470,l),
(646,558,l)
);
},
{
closed = 1;
nodes = (
(597,180,l),
(597,463,l),
(462,598,l),
(331,598,l),
(331,507,l),
(419,507,l),
(499,427,l),
(499,180,l)
);
},
{
closed = 1;
nodes = (
(499,50,l),
(597,148,l),
(597,208,l),
(511,195,l),
(457,141,l),
(373,141,l),
(341,173,l),
(341,281,l),
(373,313,l),
(743,313,l),
(743,404,l),
(331,404,l),
(243,316,l),
(243,138,l),
(331,50,l)
);
}
);
width = 843;
},
{
associatedMasterId = m01;
layerId = "AB965B1E-514B-4981-BED5-3502B20B934F";
name = "13 Jan 25 at 10:26";
shapes = (
{
attr = {
strokeHeight = 91;
strokeWidth = 98;
};
closed = 0;
nodes = (
(467,552,l),
(295,552,l),
(109,366,l),
(109,68,l),
(271,-94,l),
(545,-94,l),
(734,95,l),
(734,598,l)
);
},
{
closed = 1;
nodes = (
(597,180,l),
(597,483,l),
(482,598,l),
(331,598,l),
(331,507,l),
(439,507,l),
(499,447,l),
(499,180,l)
);
},
{
closed = 1;
nodes = (
(499,50,l),
(597,148,l),
(597,208,l),
(511,195,l),
(457,141,l),
(373,141,l),
(341,173,l),
(341,281,l),
(373,313,l),
(743,313,l),
(743,404,l),
(331,404,l),
(243,316,l),
(243,138,l),
(331,50,l)
);
}
);
width = 843;
},
{
associatedMasterId = m01;
layerId = "17D10778-B614-4337-AA7D-EAAFDDF9A1C6";
name = "13 Jan 25 at 10:27";
shapes = (
{
attr = {
strokeHeight = 91;
strokeWidth = 98;
};
closed = 0;
nodes = (
(467,552,l),
(295,552,l),
(109,366,l),
(109,68,l),
(271,-94,l),
(545,-94,l),
(734,95,l),
(734,404,l)
);
},
{
closed = 1;
nodes = (
(597,180,l),
(597,483,l),
(482,598,l),
(331,598,l),
(331,507,l),
(439,507,l),
(499,447,l),
(499,180,l)
);
},
{
closed = 1;
nodes = (
(499,50,l),
(597,148,l),
(597,208,l),
(511,195,l),
(457,141,l),
(373,141,l),
(341,173,l),
(341,281,l),
(373,313,l),
(743,313,l),
(743,404,l),
(331,404,l),
(243,316,l),
(243,138,l),
(331,50,l)
);
}
);
width = 843;
},
{
associatedMasterId = m01;
layerId = "067B4FC0-212C-486C-B215-EDDDAAC65646";
name = "13 Jan 25 at 10:28";
shapes = (
{
closed = 1;
nodes = (
(499,175,l),
(597,175,l),
(597,598,l),
(499,598,l)
);
},
{
closed = 1;
nodes = (
(499,45,l),
(597,143,l),
(597,203,l),
(511,190,l),
(457,136,l),
(373,136,l),
(341,168,l),
(341,276,l),
(393,328,l),
(512,328,l),
(512,419,l),
(351,419,l),
(243,311,l),
(243,133,l),
(331,45,l)
);
},
{
attr = {
strokeHeight = 91;
strokeWidth = 98;
};
closed = 0;
nodes = (
(554,552,l),
(295,552,l),
(109,366,l),
(109,68,l),
(271,-94,l),
(545,-94,l),
(734,95,l),
(734,552,l),
(636,552,l)
);
}
);
width = 843;
},
{
associatedMasterId = m01;
layerId = "1F2ED7FC-23AE-4714-929F-0880F2035B99";
name = "13 Jan 25 at 10:41";
shapes = (
{
attr = {
strokeHeight = 91;
strokeWidth = 98;
};
closed = 1;
nodes = (
(250,146,l),
(317,79,l),
(439,79,l),
(506,146,l),
(506,373,l),
(456,423,l),
(404,423,l),
(250,269,l)
);
},
{
attr = {
strokeHeight = 91;
strokeWidth = 98;
};
closed = 0;
nodes = (
(496,135,l),
(551,80,l),
(628,80,l),
(667,121,l),
(667,464,l),
(547,584,l),
(209,584,l),
(89,464,l),
(89,38,l),
(209,-82,l),
(505,-82,l),
(548,-39,l)
);
}
);
width = 756;
},
{
layerId = m01;
name = Regular;
shapes = (
{
attr = {
strokeHeight = 91;
strokeWidth = 98;
};
closed = 1;
nodes = (
(442,91,l),
(516,164,l),
(516,363,l),
(488,391,l),
(408,391,l),
(280,263,l),
(280,164,l),
(354,91,l)
);
},
{
attr = {
strokeHeight = 91;
strokeWidth = 98;
};
closed = 0;
nodes = (
(513,142,l),
(564,91,l),
(636,91,l),
(687,142,l),
(687,444,l),
(570,561,l),
(315,561,l),
(109,355,l),
(109,77,l),
(271,-85,l),
(618,-85,l)
);
}
);
width = 796;
}
);
unicode = 64;
},
